SplineFontDB: 3.2
FontName: MatrixSansScreen-Regular
FullName: Matrix Sans Screen
FamilyName: Matrix Sans Screen
Weight: Regular
Copyright: Copyright 2022 The Matrix Sans Project Authors (https://github.com/FriedOrange/MatrixSans)
Version: 1.000
ItalicAngle: 0
UnderlinePosition: -150
UnderlineWidth: 100
Ascent: 800
Descent: 200
InvalidEm: 0
LayerCount: 2
Layer: 0 0 "Back" 1
Layer: 1 0 "Fore" 0
XUID: [1021 655 -629464056 810]
StyleMap: 0x0000
FSType: 0
OS2Version: 0
OS2_WeightWidthSlopeOnly: 0
OS2_UseTypoMetrics: 1
CreationTime: 1657964544
ModificationTime: 1671673889
PfmFamily: 81
TTFWeight: 400
TTFWidth: 5
LineGap: 0
VLineGap: 90
Panose: 4 1 6 4 2 11 2 2 3 2
OS2TypoAscent: 1000
OS2TypoAOffset: 0
OS2TypoDescent: -300
OS2TypoDOffset: 0
OS2TypoLinegap: 0
OS2WinAscent: 1000
OS2WinAOffset: 0
OS2WinDescent: 200
OS2WinDOffset: 0
HheadAscent: 1000
HheadAOffset: 0
HheadDescent: -300
HheadDOffset: 0
OS2SubXSize: 714
OS2SubYSize: 714
OS2SubXOff: 0
OS2SubYOff: 200
OS2SupXSize: 714
OS2SupYSize: 714
OS2SupXOff: 0
OS2SupYOff: 300
OS2StrikeYSize: 86
OS2StrikeYPos: 307
OS2CapHeight: 700
OS2XHeight: 500
OS2FamilyClass: 2058
OS2Vendor: 'PfEd'
MarkAttachClasses: 1
DEI: 91125
LangName: 1033 "" "" "" "" "" "" "" "" "" "Brad Neil" "" "" "http://friedorange.xyz/" "This Font Software is licensed under the SIL Open Font License, Version 1.1. This license is available with a FAQ at: https://scripts.sil.org/OFL" "https://scripts.sil.org/OFL"
Encoding: UnicodeFull
UnicodeInterp: none
NameList: AGL For New Fonts
DisplaySize: -48
AntiAlias: 1
FitToEm: 1
WinInfo: 176 16 14
BeginPrivate: 0
EndPrivate
TeXData: 1 0 0 629146 314573 209715 524288 1048576 0 783286 444596 497025 792723 393216 433062 380633 303038 157286 324010 404750 52429 2506097 1059062 262144
AnchorClass2: "marks_above"""  "marks_below"""  "ogonek"""  "marks_aboveright""" 
BeginChars: 1114174 436

StartChar: exclam
Encoding: 33 33 1
Width: 200
Flags: HMW
LayerCount: 2
Fore
SplineSet
57 607 m 25
 57 693 l 25
 143 693 l 25
 143 607 l 25
 57 607 l 25
57 507 m 25
 57 593 l 25
 143 593 l 25
 143 507 l 25
 57 507 l 25
57 407 m 25
 57 493 l 25
 143 493 l 25
 143 407 l 25
 57 407 l 25
57 307 m 25
 57 393 l 25
 143 393 l 25
 143 307 l 25
 57 307 l 25
57 207 m 25
 57 293 l 25
 143 293 l 25
 143 207 l 25
 57 207 l 25
57 7 m 25
 57 93 l 25
 143 93 l 25
 143 7 l 25
 57 7 l 25
EndSplineSet
EndChar

StartChar: quotedbl
Encoding: 34 34 2
Width: 400
Flags: HMW
LayerCount: 2
Fore
SplineSet
57 607 m 25
 57 693 l 25
 143 693 l 25
 143 607 l 25
 57 607 l 25
257 607 m 25
 257 693 l 25
 343 693 l 25
 343 607 l 25
 257 607 l 25
57 507 m 25
 57 593 l 25
 143 593 l 25
 143 507 l 25
 57 507 l 25
257 507 m 25
 257 593 l 25
 343 593 l 25
 343 507 l 25
 257 507 l 25
57 407 m 25
 57 493 l 25
 143 493 l 25
 143 407 l 25
 57 407 l 25
257 407 m 25
 257 493 l 25
 343 493 l 25
 343 407 l 25
 257 407 l 25
EndSplineSet
EndChar

StartChar: numbersign
Encoding: 35 35 3
Width: 600
Flags: HMW
LayerCount: 2
Fore
SplineSet
157 607 m 25
 157 693 l 25
 243 693 l 25
 243 607 l 25
 157 607 l 25
357 607 m 25
 357 693 l 25
 443 693 l 25
 443 607 l 25
 357 607 l 25
157 507 m 25
 157 593 l 25
 243 593 l 25
 243 507 l 25
 157 507 l 25
357 507 m 25
 357 593 l 25
 443 593 l 25
 443 507 l 25
 357 507 l 25
57 407 m 25
 57 493 l 25
 143 493 l 25
 143 407 l 25
 57 407 l 25
157 407 m 25
 157 493 l 25
 243 493 l 25
 243 407 l 25
 157 407 l 25
257 407 m 25
 257 493 l 25
 343 493 l 25
 343 407 l 25
 257 407 l 25
357 407 m 25
 357 493 l 25
 443 493 l 25
 443 407 l 25
 357 407 l 25
457 407 m 25
 457 493 l 25
 543 493 l 25
 543 407 l 25
 457 407 l 25
157 307 m 25
 157 393 l 25
 243 393 l 25
 243 307 l 25
 157 307 l 25
357 307 m 25
 357 393 l 25
 443 393 l 25
 443 307 l 25
 357 307 l 25
57 207 m 25
 57 293 l 25
 143 293 l 25
 143 207 l 25
 57 207 l 25
157 207 m 25
 157 293 l 25
 243 293 l 25
 243 207 l 25
 157 207 l 25
257 207 m 25
 257 293 l 25
 343 293 l 25
 343 207 l 25
 257 207 l 25
357 207 m 25
 357 293 l 25
 443 293 l 25
 443 207 l 25
 357 207 l 25
457 207 m 25
 457 293 l 25
 543 293 l 25
 543 207 l 25
 457 207 l 25
157 107 m 25
 157 193 l 25
 243 193 l 25
 243 107 l 25
 157 107 l 25
357 107 m 25
 357 193 l 25
 443 193 l 25
 443 107 l 25
 357 107 l 25
157 7 m 25
 157 93 l 25
 243 93 l 25
 243 7 l 25
 157 7 l 25
357 7 m 25
 357 93 l 25
 443 93 l 25
 443 7 l 25
 357 7 l 25
EndSplineSet
EndChar

StartChar: dollar
Encoding: 36 36 4
Width: 600
Flags: HMW
LayerCount: 2
Fore
SplineSet
257 607 m 25
 257 693 l 25
 343 693 l 25
 343 607 l 25
 257 607 l 25
157 507 m 25
 157 593 l 25
 243 593 l 25
 243 507 l 25
 157 507 l 25
257 507 m 25
 257 593 l 25
 343 593 l 25
 343 507 l 25
 257 507 l 25
357 507 m 25
 357 593 l 25
 443 593 l 25
 443 507 l 25
 357 507 l 25
457 507 m 25
 457 593 l 25
 543 593 l 25
 543 507 l 25
 457 507 l 25
57 407 m 25
 57 493 l 25
 143 493 l 25
 143 407 l 25
 57 407 l 25
257 407 m 25
 257 493 l 25
 343 493 l 25
 343 407 l 25
 257 407 l 25
157 307 m 25
 157 393 l 25
 243 393 l 25
 243 307 l 25
 157 307 l 25
257 307 m 25
 257 393 l 25
 343 393 l 25
 343 307 l 25
 257 307 l 25
357 307 m 25
 357 393 l 25
 443 393 l 25
 443 307 l 25
 357 307 l 25
257 207 m 25
 257 293 l 25
 343 293 l 25
 343 207 l 25
 257 207 l 25
457 207 m 25
 457 293 l 25
 543 293 l 25
 543 207 l 25
 457 207 l 25
57 107 m 25
 57 193 l 25
 143 193 l 25
 143 107 l 25
 57 107 l 25
157 107 m 25
 157 193 l 25
 243 193 l 25
 243 107 l 25
 157 107 l 25
257 107 m 25
 257 193 l 25
 343 193 l 25
 343 107 l 25
 257 107 l 25
357 107 m 25
 357 193 l 25
 443 193 l 25
 443 107 l 25
 357 107 l 25
257 7 m 25
 257 93 l 25
 343 93 l 25
 343 7 l 25
 257 7 l 25
EndSplineSet
EndChar

StartChar: percent
Encoding: 37 37 5
Width: 600
Flags: HMW
LayerCount: 2
Fore
SplineSet
57 607 m 25
 57 693 l 25
 143 693 l 25
 143 607 l 25
 57 607 l 25
157 607 m 25
 157 693 l 25
 243 693 l 25
 243 607 l 25
 157 607 l 25
57 507 m 25
 57 593 l 25
 143 593 l 25
 143 507 l 25
 57 507 l 25
157 507 m 25
 157 593 l 25
 243 593 l 25
 243 507 l 25
 157 507 l 25
457 507 m 25
 457 593 l 25
 543 593 l 25
 543 507 l 25
 457 507 l 25
357 407 m 25
 357 493 l 25
 443 493 l 25
 443 407 l 25
 357 407 l 25
257 307 m 25
 257 393 l 25
 343 393 l 25
 343 307 l 25
 257 307 l 25
157 207 m 25
 157 293 l 25
 243 293 l 25
 243 207 l 25
 157 207 l 25
57 107 m 25
 57 193 l 25
 143 193 l 25
 143 107 l 25
 57 107 l 25
357 107 m 25
 357 193 l 25
 443 193 l 25
 443 107 l 25
 357 107 l 25
457 107 m 25
 457 193 l 25
 543 193 l 25
 543 107 l 25
 457 107 l 25
357 7 m 25
 357 93 l 25
 443 93 l 25
 443 7 l 25
 357 7 l 25
457 7 m 25
 457 93 l 25
 543 93 l 25
 543 7 l 25
 457 7 l 25
EndSplineSet
EndChar

StartChar: ampersand
Encoding: 38 38 6
Width: 600
Flags: HMW
LayerCount: 2
Fore
SplineSet
157 607 m 25
 157 693 l 25
 243 693 l 25
 243 607 l 25
 157 607 l 25
57 507 m 25
 57 593 l 25
 143 593 l 25
 143 507 l 25
 57 507 l 25
257 507 m 25
 257 593 l 25
 343 593 l 25
 343 507 l 25
 257 507 l 25
57 407 m 25
 57 493 l 25
 143 493 l 25
 143 407 l 25
 57 407 l 25
257 407 m 25
 257 493 l 25
 343 493 l 25
 343 407 l 25
 257 407 l 25
157 307 m 25
 157 393 l 25
 243 393 l 25
 243 307 l 25
 157 307 l 25
57 207 m 25
 57 293 l 25
 143 293 l 25
 143 207 l 25
 57 207 l 25
257 207 m 25
 257 293 l 25
 343 293 l 25
 343 207 l 25
 257 207 l 25
457 207 m 25
 457 293 l 25
 543 293 l 25
 543 207 l 25
 457 207 l 25
57 107 m 25
 57 193 l 25
 143 193 l 25
 143 107 l 25
 57 107 l 25
357 107 m 25
 357 193 l 25
 443 193 l 25
 443 107 l 25
 357 107 l 25
157 7 m 25
 157 93 l 25
 243 93 l 25
 243 7 l 25
 157 7 l 25
257 7 m 25
 257 93 l 25
 343 93 l 25
 343 7 l 25
 257 7 l 25
457 7 m 25
 457 93 l 25
 543 93 l 25
 543 7 l 25
 457 7 l 25
EndSplineSet
EndChar

StartChar: quotesingle
Encoding: 39 39 7
Width: 200
Flags: HMW
LayerCount: 2
Fore
SplineSet
57 607 m 25
 57 693 l 25
 143 693 l 25
 143 607 l 25
 57 607 l 25
57 507 m 25
 57 593 l 25
 143 593 l 25
 143 507 l 25
 57 507 l 25
57 407 m 25
 57 493 l 25
 143 493 l 25
 143 407 l 25
 57 407 l 25
EndSplineSet
EndChar

StartChar: parenleft
Encoding: 40 40 8
Width: 400
Flags: HMW
LayerCount: 2
Fore
SplineSet
257 607 m 25
 257 693 l 25
 343 693 l 25
 343 607 l 25
 257 607 l 25
157 507 m 25
 157 593 l 25
 243 593 l 25
 243 507 l 25
 157 507 l 25
57 407 m 25
 57 493 l 25
 143 493 l 25
 143 407 l 25
 57 407 l 25
57 307 m 25
 57 393 l 25
 143 393 l 25
 143 307 l 25
 57 307 l 25
57 207 m 25
 57 293 l 25
 143 293 l 25
 143 207 l 25
 57 207 l 25
157 107 m 25
 157 193 l 25
 243 193 l 25
 243 107 l 25
 157 107 l 25
257 7 m 25
 257 93 l 25
 343 93 l 25
 343 7 l 25
 257 7 l 25
EndSplineSet
EndChar

StartChar: parenright
Encoding: 41 41 9
Width: 400
Flags: HMW
LayerCount: 2
Fore
SplineSet
57 607 m 25
 57 693 l 25
 143 693 l 25
 143 607 l 25
 57 607 l 25
157 507 m 25
 157 593 l 25
 243 593 l 25
 243 507 l 25
 157 507 l 25
257 407 m 25
 257 493 l 25
 343 493 l 25
 343 407 l 25
 257 407 l 25
257 307 m 25
 257 393 l 25
 343 393 l 25
 343 307 l 25
 257 307 l 25
257 207 m 25
 257 293 l 25
 343 293 l 25
 343 207 l 25
 257 207 l 25
157 107 m 25
 157 193 l 25
 243 193 l 25
 243 107 l 25
 157 107 l 25
57 7 m 25
 57 93 l 25
 143 93 l 25
 143 7 l 25
 57 7 l 25
EndSplineSet
EndChar

StartChar: asterisk
Encoding: 42 42 10
Width: 600
Flags: HMW
LayerCount: 2
Fore
SplineSet
257 507 m 25
 257 593 l 25
 343 593 l 25
 343 507 l 25
 257 507 l 25
57 407 m 25
 57 493 l 25
 143 493 l 25
 143 407 l 25
 57 407 l 25
257 407 m 25
 257 493 l 25
 343 493 l 25
 343 407 l 25
 257 407 l 25
457 407 m 25
 457 493 l 25
 543 493 l 25
 543 407 l 25
 457 407 l 25
157 307 m 25
 157 393 l 25
 243 393 l 25
 243 307 l 25
 157 307 l 25
257 307 m 25
 257 393 l 25
 343 393 l 25
 343 307 l 25
 257 307 l 25
357 307 m 25
 357 393 l 25
 443 393 l 25
 443 307 l 25
 357 307 l 25
57 207 m 25
 57 293 l 25
 143 293 l 25
 143 207 l 25
 57 207 l 25
257 207 m 25
 257 293 l 25
 343 293 l 25
 343 207 l 25
 257 207 l 25
457 207 m 25
 457 293 l 25
 543 293 l 25
 543 207 l 25
 457 207 l 25
257 107 m 25
 257 193 l 25
 343 193 l 25
 343 107 l 25
 257 107 l 25
EndSplineSet
EndChar

StartChar: plus
Encoding: 43 43 11
Width: 600
Flags: HMW
LayerCount: 2
Fore
SplineSet
257 507 m 25
 257 593 l 25
 343 593 l 25
 343 507 l 25
 257 507 l 25
257 407 m 25
 257 493 l 25
 343 493 l 25
 343 407 l 25
 257 407 l 25
57 307 m 25
 57 393 l 25
 143 393 l 25
 143 307 l 25
 57 307 l 25
157 307 m 25
 157 393 l 25
 243 393 l 25
 243 307 l 25
 157 307 l 25
257 307 m 25
 257 393 l 25
 343 393 l 25
 343 307 l 25
 257 307 l 25
357 307 m 25
 357 393 l 25
 443 393 l 25
 443 307 l 25
 357 307 l 25
457 307 m 25
 457 393 l 25
 543 393 l 25
 543 307 l 25
 457 307 l 25
257 207 m 25
 257 293 l 25
 343 293 l 25
 343 207 l 25
 257 207 l 25
257 107 m 25
 257 193 l 25
 343 193 l 25
 343 107 l 25
 257 107 l 25
EndSplineSet
EndChar

StartChar: comma
Encoding: 44 44 12
Width: 300
Flags: HMW
LayerCount: 2
Fore
SplineSet
157 107 m 25
 157 193 l 25
 243 193 l 25
 243 107 l 25
 157 107 l 25
157 7 m 25
 157 93 l 25
 243 93 l 25
 243 7 l 25
 157 7 l 25
57 -93 m 25
 57 -7 l 25
 143 -7 l 25
 143 -93 l 25
 57 -93 l 25
EndSplineSet
EndChar

StartChar: hyphen
Encoding: 45 45 13
Width: 500
Flags: HMW
LayerCount: 2
Fore
SplineSet
57 307 m 25
 57 393 l 25
 143 393 l 25
 143 307 l 25
 57 307 l 25
157 307 m 25
 157 393 l 25
 243 393 l 25
 243 307 l 25
 157 307 l 25
257 307 m 25
 257 393 l 25
 343 393 l 25
 343 307 l 25
 257 307 l 25
357 307 m 25
 357 393 l 25
 443 393 l 25
 443 307 l 25
 357 307 l 25
EndSplineSet
EndChar

StartChar: period
Encoding: 46 46 14
Width: 200
Flags: HMW
LayerCount: 2
Fore
SplineSet
57 7 m 25
 57 93 l 25
 143 93 l 25
 143 7 l 25
 57 7 l 25
EndSplineSet
EndChar

StartChar: slash
Encoding: 47 47 15
Width: 600
Flags: HMW
LayerCount: 2
Fore
SplineSet
457 507 m 25
 457 593 l 25
 543 593 l 25
 543 507 l 25
 457 507 l 25
357 407 m 25
 357 493 l 25
 443 493 l 25
 443 407 l 25
 357 407 l 25
257 307 m 25
 257 393 l 25
 343 393 l 25
 343 307 l 25
 257 307 l 25
157 207 m 25
 157 293 l 25
 243 293 l 25
 243 207 l 25
 157 207 l 25
57 107 m 25
 57 193 l 25
 143 193 l 25
 143 107 l 25
 57 107 l 25
EndSplineSet
EndChar

StartChar: zero
Encoding: 48 48 16
Width: 600
Flags: HMW
LayerCount: 2
Fore
SplineSet
157 607 m 25
 157 693 l 25
 243 693 l 25
 243 607 l 25
 157 607 l 25
257 607 m 25
 257 693 l 25
 343 693 l 25
 343 607 l 25
 257 607 l 25
357 607 m 25
 357 693 l 25
 443 693 l 25
 443 607 l 25
 357 607 l 25
57 507 m 25
 57 593 l 25
 143 593 l 25
 143 507 l 25
 57 507 l 25
457 507 m 25
 457 593 l 25
 543 593 l 25
 543 507 l 25
 457 507 l 25
57 407 m 25
 57 493 l 25
 143 493 l 25
 143 407 l 25
 57 407 l 25
357 407 m 25
 357 493 l 25
 443 493 l 25
 443 407 l 25
 357 407 l 25
457 407 m 25
 457 493 l 25
 543 493 l 25
 543 407 l 25
 457 407 l 25
57 307 m 25
 57 393 l 25
 143 393 l 25
 143 307 l 25
 57 307 l 25
257 307 m 25
 257 393 l 25
 343 393 l 25
 343 307 l 25
 257 307 l 25
457 307 m 25
 457 393 l 25
 543 393 l 25
 543 307 l 25
 457 307 l 25
57 207 m 25
 57 293 l 25
 143 293 l 25
 143 207 l 25
 57 207 l 25
157 207 m 25
 157 293 l 25
 243 293 l 25
 243 207 l 25
 157 207 l 25
457 207 m 25
 457 293 l 25
 543 293 l 25
 543 207 l 25
 457 207 l 25
57 107 m 25
 57 193 l 25
 143 193 l 25
 143 107 l 25
 57 107 l 25
457 107 m 25
 457 193 l 25
 543 193 l 25
 543 107 l 25
 457 107 l 25
157 7 m 25
 157 93 l 25
 243 93 l 25
 243 7 l 25
 157 7 l 25
257 7 m 25
 257 93 l 25
 343 93 l 25
 343 7 l 25
 257 7 l 25
357 7 m 25
 357 93 l 25
 443 93 l 25
 443 7 l 25
 357 7 l 25
EndSplineSet
EndChar

StartChar: one
Encoding: 49 49 17
Width: 400
Flags: HMW
LayerCount: 2
Fore
SplineSet
157 607 m 25
 157 693 l 25
 243 693 l 25
 243 607 l 25
 157 607 l 25
57 507 m 25
 57 593 l 25
 143 593 l 25
 143 507 l 25
 57 507 l 25
157 507 m 25
 157 593 l 25
 243 593 l 25
 243 507 l 25
 157 507 l 25
157 407 m 25
 157 493 l 25
 243 493 l 25
 243 407 l 25
 157 407 l 25
157 307 m 25
 157 393 l 25
 243 393 l 25
 243 307 l 25
 157 307 l 25
157 207 m 25
 157 293 l 25
 243 293 l 25
 243 207 l 25
 157 207 l 25
157 107 m 25
 157 193 l 25
 243 193 l 25
 243 107 l 25
 157 107 l 25
57 7 m 25
 57 93 l 25
 143 93 l 25
 143 7 l 25
 57 7 l 25
157 7 m 25
 157 93 l 25
 243 93 l 25
 243 7 l 25
 157 7 l 25
257 7 m 25
 257 93 l 25
 343 93 l 25
 343 7 l 25
 257 7 l 25
EndSplineSet
EndChar

StartChar: two
Encoding: 50 50 18
Width: 600
Flags: HMW
LayerCount: 2
Fore
SplineSet
157 607 m 25
 157 693 l 25
 243 693 l 25
 243 607 l 25
 157 607 l 25
257 607 m 25
 257 693 l 25
 343 693 l 25
 343 607 l 25
 257 607 l 25
357 607 m 25
 357 693 l 25
 443 693 l 25
 443 607 l 25
 357 607 l 25
57 507 m 25
 57 593 l 25
 143 593 l 25
 143 507 l 25
 57 507 l 25
457 507 m 25
 457 593 l 25
 543 593 l 25
 543 507 l 25
 457 507 l 25
457 407 m 25
 457 493 l 25
 543 493 l 25
 543 407 l 25
 457 407 l 25
257 307 m 25
 257 393 l 25
 343 393 l 25
 343 307 l 25
 257 307 l 25
357 307 m 25
 357 393 l 25
 443 393 l 25
 443 307 l 25
 357 307 l 25
157 207 m 25
 157 293 l 25
 243 293 l 25
 243 207 l 25
 157 207 l 25
57 107 m 25
 57 193 l 25
 143 193 l 25
 143 107 l 25
 57 107 l 25
57 7 m 25
 57 93 l 25
 143 93 l 25
 143 7 l 25
 57 7 l 25
157 7 m 25
 157 93 l 25
 243 93 l 25
 243 7 l 25
 157 7 l 25
257 7 m 25
 257 93 l 25
 343 93 l 25
 343 7 l 25
 257 7 l 25
357 7 m 25
 357 93 l 25
 443 93 l 25
 443 7 l 25
 357 7 l 25
457 7 m 25
 457 93 l 25
 543 93 l 25
 543 7 l 25
 457 7 l 25
EndSplineSet
EndChar

StartChar: three
Encoding: 51 51 19
Width: 600
Flags: HMW
LayerCount: 2
Fore
SplineSet
157 607 m 25
 157 693 l 25
 243 693 l 25
 243 607 l 25
 157 607 l 25
257 607 m 25
 257 693 l 25
 343 693 l 25
 343 607 l 25
 257 607 l 25
357 607 m 25
 357 693 l 25
 443 693 l 25
 443 607 l 25
 357 607 l 25
57 507 m 25
 57 593 l 25
 143 593 l 25
 143 507 l 25
 57 507 l 25
457 507 m 25
 457 593 l 25
 543 593 l 25
 543 507 l 25
 457 507 l 25
457 407 m 25
 457 493 l 25
 543 493 l 25
 543 407 l 25
 457 407 l 25
257 307 m 25
 257 393 l 25
 343 393 l 25
 343 307 l 25
 257 307 l 25
357 307 m 25
 357 393 l 25
 443 393 l 25
 443 307 l 25
 357 307 l 25
457 207 m 25
 457 293 l 25
 543 293 l 25
 543 207 l 25
 457 207 l 25
57 107 m 25
 57 193 l 25
 143 193 l 25
 143 107 l 25
 57 107 l 25
457 107 m 25
 457 193 l 25
 543 193 l 25
 543 107 l 25
 457 107 l 25
157 7 m 25
 157 93 l 25
 243 93 l 25
 243 7 l 25
 157 7 l 25
257 7 m 25
 257 93 l 25
 343 93 l 25
 343 7 l 25
 257 7 l 25
357 7 m 25
 357 93 l 25
 443 93 l 25
 443 7 l 25
 357 7 l 25
EndSplineSet
EndChar

StartChar: four
Encoding: 52 52 20
Width: 600
Flags: HMW
LayerCount: 2
Fore
SplineSet
357 607 m 25
 357 693 l 25
 443 693 l 25
 443 607 l 25
 357 607 l 25
257 507 m 25
 257 593 l 25
 343 593 l 25
 343 507 l 25
 257 507 l 25
357 507 m 25
 357 593 l 25
 443 593 l 25
 443 507 l 25
 357 507 l 25
157 407 m 25
 157 493 l 25
 243 493 l 25
 243 407 l 25
 157 407 l 25
357 407 m 25
 357 493 l 25
 443 493 l 25
 443 407 l 25
 357 407 l 25
57 307 m 25
 57 393 l 25
 143 393 l 25
 143 307 l 25
 57 307 l 25
357 307 m 25
 357 393 l 25
 443 393 l 25
 443 307 l 25
 357 307 l 25
57 207 m 25
 57 293 l 25
 143 293 l 25
 143 207 l 25
 57 207 l 25
157 207 m 25
 157 293 l 25
 243 293 l 25
 243 207 l 25
 157 207 l 25
257 207 m 25
 257 293 l 25
 343 293 l 25
 343 207 l 25
 257 207 l 25
357 207 m 25
 357 293 l 25
 443 293 l 25
 443 207 l 25
 357 207 l 25
457 207 m 25
 457 293 l 25
 543 293 l 25
 543 207 l 25
 457 207 l 25
357 107 m 25
 357 193 l 25
 443 193 l 25
 443 107 l 25
 357 107 l 25
357 7 m 25
 357 93 l 25
 443 93 l 25
 443 7 l 25
 357 7 l 25
EndSplineSet
EndChar

StartChar: five
Encoding: 53 53 21
Width: 600
Flags: HMW
LayerCount: 2
Fore
SplineSet
57 607 m 25
 57 693 l 25
 143 693 l 25
 143 607 l 25
 57 607 l 25
157 607 m 25
 157 693 l 25
 243 693 l 25
 243 607 l 25
 157 607 l 25
257 607 m 25
 257 693 l 25
 343 693 l 25
 343 607 l 25
 257 607 l 25
357 607 m 25
 357 693 l 25
 443 693 l 25
 443 607 l 25
 357 607 l 25
457 607 m 25
 457 693 l 25
 543 693 l 25
 543 607 l 25
 457 607 l 25
57 507 m 25
 57 593 l 25
 143 593 l 25
 143 507 l 25
 57 507 l 25
57 407 m 25
 57 493 l 25
 143 493 l 25
 143 407 l 25
 57 407 l 25
157 407 m 25
 157 493 l 25
 243 493 l 25
 243 407 l 25
 157 407 l 25
257 407 m 25
 257 493 l 25
 343 493 l 25
 343 407 l 25
 257 407 l 25
357 407 m 25
 357 493 l 25
 443 493 l 25
 443 407 l 25
 357 407 l 25
457 307 m 25
 457 393 l 25
 543 393 l 25
 543 307 l 25
 457 307 l 25
457 207 m 25
 457 293 l 25
 543 293 l 25
 543 207 l 25
 457 207 l 25
57 107 m 25
 57 193 l 25
 143 193 l 25
 143 107 l 25
 57 107 l 25
457 107 m 25
 457 193 l 25
 543 193 l 25
 543 107 l 25
 457 107 l 25
157 7 m 25
 157 93 l 25
 243 93 l 25
 243 7 l 25
 157 7 l 25
257 7 m 25
 257 93 l 25
 343 93 l 25
 343 7 l 25
 257 7 l 25
357 7 m 25
 357 93 l 25
 443 93 l 25
 443 7 l 25
 357 7 l 25
EndSplineSet
EndChar

StartChar: six
Encoding: 54 54 22
Width: 600
Flags: HMW
LayerCount: 2
Fore
SplineSet
257 607 m 25
 257 693 l 25
 343 693 l 25
 343 607 l 25
 257 607 l 25
357 607 m 25
 357 693 l 25
 443 693 l 25
 443 607 l 25
 357 607 l 25
157 507 m 25
 157 593 l 25
 243 593 l 25
 243 507 l 25
 157 507 l 25
57 407 m 25
 57 493 l 25
 143 493 l 25
 143 407 l 25
 57 407 l 25
57 307 m 25
 57 393 l 25
 143 393 l 25
 143 307 l 25
 57 307 l 25
157 307 m 25
 157 393 l 25
 243 393 l 25
 243 307 l 25
 157 307 l 25
257 307 m 25
 257 393 l 25
 343 393 l 25
 343 307 l 25
 257 307 l 25
357 307 m 25
 357 393 l 25
 443 393 l 25
 443 307 l 25
 357 307 l 25
57 207 m 25
 57 293 l 25
 143 293 l 25
 143 207 l 25
 57 207 l 25
457 207 m 25
 457 293 l 25
 543 293 l 25
 543 207 l 25
 457 207 l 25
57 107 m 25
 57 193 l 25
 143 193 l 25
 143 107 l 25
 57 107 l 25
457 107 m 25
 457 193 l 25
 543 193 l 25
 543 107 l 25
 457 107 l 25
157 7 m 25
 157 93 l 25
 243 93 l 25
 243 7 l 25
 157 7 l 25
257 7 m 25
 257 93 l 25
 343 93 l 25
 343 7 l 25
 257 7 l 25
357 7 m 25
 357 93 l 25
 443 93 l 25
 443 7 l 25
 357 7 l 25
EndSplineSet
EndChar

StartChar: seven
Encoding: 55 55 23
Width: 600
Flags: HMW
LayerCount: 2
Fore
SplineSet
57 607 m 25
 57 693 l 25
 143 693 l 25
 143 607 l 25
 57 607 l 25
157 607 m 25
 157 693 l 25
 243 693 l 25
 243 607 l 25
 157 607 l 25
257 607 m 25
 257 693 l 25
 343 693 l 25
 343 607 l 25
 257 607 l 25
357 607 m 25
 357 693 l 25
 443 693 l 25
 443 607 l 25
 357 607 l 25
457 607 m 25
 457 693 l 25
 543 693 l 25
 543 607 l 25
 457 607 l 25
457 507 m 25
 457 593 l 25
 543 593 l 25
 543 507 l 25
 457 507 l 25
357 407 m 25
 357 493 l 25
 443 493 l 25
 443 407 l 25
 357 407 l 25
257 307 m 25
 257 393 l 25
 343 393 l 25
 343 307 l 25
 257 307 l 25
157 207 m 25
 157 293 l 25
 243 293 l 25
 243 207 l 25
 157 207 l 25
157 107 m 25
 157 193 l 25
 243 193 l 25
 243 107 l 25
 157 107 l 25
157 7 m 25
 157 93 l 25
 243 93 l 25
 243 7 l 25
 157 7 l 25
EndSplineSet
EndChar

StartChar: eight
Encoding: 56 56 24
Width: 600
Flags: HMW
LayerCount: 2
Fore
SplineSet
157 607 m 25
 157 693 l 25
 243 693 l 25
 243 607 l 25
 157 607 l 25
257 607 m 25
 257 693 l 25
 343 693 l 25
 343 607 l 25
 257 607 l 25
357 607 m 25
 357 693 l 25
 443 693 l 25
 443 607 l 25
 357 607 l 25
57 507 m 25
 57 593 l 25
 143 593 l 25
 143 507 l 25
 57 507 l 25
457 507 m 25
 457 593 l 25
 543 593 l 25
 543 507 l 25
 457 507 l 25
57 407 m 25
 57 493 l 25
 143 493 l 25
 143 407 l 25
 57 407 l 25
457 407 m 25
 457 493 l 25
 543 493 l 25
 543 407 l 25
 457 407 l 25
157 307 m 25
 157 393 l 25
 243 393 l 25
 243 307 l 25
 157 307 l 25
257 307 m 25
 257 393 l 25
 343 393 l 25
 343 307 l 25
 257 307 l 25
357 307 m 25
 357 393 l 25
 443 393 l 25
 443 307 l 25
 357 307 l 25
57 207 m 25
 57 293 l 25
 143 293 l 25
 143 207 l 25
 57 207 l 25
457 207 m 25
 457 293 l 25
 543 293 l 25
 543 207 l 25
 457 207 l 25
57 107 m 25
 57 193 l 25
 143 193 l 25
 143 107 l 25
 57 107 l 25
457 107 m 25
 457 193 l 25
 543 193 l 25
 543 107 l 25
 457 107 l 25
157 7 m 25
 157 93 l 25
 243 93 l 25
 243 7 l 25
 157 7 l 25
257 7 m 25
 257 93 l 25
 343 93 l 25
 343 7 l 25
 257 7 l 25
357 7 m 25
 357 93 l 25
 443 93 l 25
 443 7 l 25
 357 7 l 25
EndSplineSet
EndChar

StartChar: nine
Encoding: 57 57 25
Width: 600
Flags: HMW
LayerCount: 2
Fore
SplineSet
157 607 m 25
 157 693 l 25
 243 693 l 25
 243 607 l 25
 157 607 l 25
257 607 m 25
 257 693 l 25
 343 693 l 25
 343 607 l 25
 257 607 l 25
357 607 m 25
 357 693 l 25
 443 693 l 25
 443 607 l 25
 357 607 l 25
57 507 m 25
 57 593 l 25
 143 593 l 25
 143 507 l 25
 57 507 l 25
457 507 m 25
 457 593 l 25
 543 593 l 25
 543 507 l 25
 457 507 l 25
57 407 m 25
 57 493 l 25
 143 493 l 25
 143 407 l 25
 57 407 l 25
457 407 m 25
 457 493 l 25
 543 493 l 25
 543 407 l 25
 457 407 l 25
157 307 m 25
 157 393 l 25
 243 393 l 25
 243 307 l 25
 157 307 l 25
257 307 m 25
 257 393 l 25
 343 393 l 25
 343 307 l 25
 257 307 l 25
357 307 m 25
 357 393 l 25
 443 393 l 25
 443 307 l 25
 357 307 l 25
457 307 m 25
 457 393 l 25
 543 393 l 25
 543 307 l 25
 457 307 l 25
457 207 m 25
 457 293 l 25
 543 293 l 25
 543 207 l 25
 457 207 l 25
357 107 m 25
 357 193 l 25
 443 193 l 25
 443 107 l 25
 357 107 l 25
157 7 m 25
 157 93 l 25
 243 93 l 25
 243 7 l 25
 157 7 l 25
257 7 m 25
 257 93 l 25
 343 93 l 25
 343 7 l 25
 257 7 l 25
EndSplineSet
EndChar

StartChar: colon
Encoding: 58 58 26
Width: 200
Flags: HMW
LayerCount: 2
Fore
SplineSet
57 407 m 25
 57 493 l 25
 143 493 l 25
 143 407 l 25
 57 407 l 25
57 7 m 25
 57 93 l 25
 143 93 l 25
 143 7 l 25
 57 7 l 25
EndSplineSet
EndChar

StartChar: semicolon
Encoding: 59 59 27
Width: 300
Flags: HMW
LayerCount: 2
Fore
SplineSet
157 407 m 25
 157 493 l 25
 243 493 l 25
 243 407 l 25
 157 407 l 25
157 107 m 25
 157 193 l 25
 243 193 l 25
 243 107 l 25
 157 107 l 25
157 7 m 25
 157 93 l 25
 243 93 l 25
 243 7 l 25
 157 7 l 25
57 -93 m 25
 57 -7 l 25
 143 -7 l 25
 143 -93 l 25
 57 -93 l 25
EndSplineSet
EndChar

StartChar: less
Encoding: 60 60 28
Width: 400
Flags: HMW
LayerCount: 2
Fore
SplineSet
257 507 m 25
 257 593 l 25
 343 593 l 25
 343 507 l 25
 257 507 l 25
157 407 m 25
 157 493 l 25
 243 493 l 25
 243 407 l 25
 157 407 l 25
57 307 m 25
 57 393 l 25
 143 393 l 25
 143 307 l 25
 57 307 l 25
157 207 m 25
 157 293 l 25
 243 293 l 25
 243 207 l 25
 157 207 l 25
257 107 m 25
 257 193 l 25
 343 193 l 25
 343 107 l 25
 257 107 l 25
EndSplineSet
EndChar

StartChar: equal
Encoding: 61 61 29
Width: 600
Flags: HMW
LayerCount: 2
Fore
SplineSet
57 407 m 25
 57 493 l 25
 143 493 l 25
 143 407 l 25
 57 407 l 25
157 407 m 25
 157 493 l 25
 243 493 l 25
 243 407 l 25
 157 407 l 25
257 407 m 25
 257 493 l 25
 343 493 l 25
 343 407 l 25
 257 407 l 25
357 407 m 25
 357 493 l 25
 443 493 l 25
 443 407 l 25
 357 407 l 25
457 407 m 25
 457 493 l 25
 543 493 l 25
 543 407 l 25
 457 407 l 25
57 207 m 25
 57 293 l 25
 143 293 l 25
 143 207 l 25
 57 207 l 25
157 207 m 25
 157 293 l 25
 243 293 l 25
 243 207 l 25
 157 207 l 25
257 207 m 25
 257 293 l 25
 343 293 l 25
 343 207 l 25
 257 207 l 25
357 207 m 25
 357 293 l 25
 443 293 l 25
 443 207 l 25
 357 207 l 25
457 207 m 25
 457 293 l 25
 543 293 l 25
 543 207 l 25
 457 207 l 25
EndSplineSet
EndChar

StartChar: greater
Encoding: 62 62 30
Width: 400
Flags: HMW
LayerCount: 2
Fore
SplineSet
57 507 m 25
 57 593 l 25
 143 593 l 25
 143 507 l 25
 57 507 l 25
157 407 m 25
 157 493 l 25
 243 493 l 25
 243 407 l 25
 157 407 l 25
257 307 m 25
 257 393 l 25
 343 393 l 25
 343 307 l 25
 257 307 l 25
157 207 m 25
 157 293 l 25
 243 293 l 25
 243 207 l 25
 157 207 l 25
57 107 m 25
 57 193 l 25
 143 193 l 25
 143 107 l 25
 57 107 l 25
EndSplineSet
EndChar

StartChar: question
Encoding: 63 63 31
Width: 600
Flags: HMW
LayerCount: 2
Fore
SplineSet
157 607 m 25
 157 693 l 25
 243 693 l 25
 243 607 l 25
 157 607 l 25
257 607 m 25
 257 693 l 25
 343 693 l 25
 343 607 l 25
 257 607 l 25
357 607 m 25
 357 693 l 25
 443 693 l 25
 443 607 l 25
 357 607 l 25
57 507 m 25
 57 593 l 25
 143 593 l 25
 143 507 l 25
 57 507 l 25
457 507 m 25
 457 593 l 25
 543 593 l 25
 543 507 l 25
 457 507 l 25
457 407 m 25
 457 493 l 25
 543 493 l 25
 543 407 l 25
 457 407 l 25
257 307 m 25
 257 393 l 25
 343 393 l 25
 343 307 l 25
 257 307 l 25
357 307 m 25
 357 393 l 25
 443 393 l 25
 443 307 l 25
 357 307 l 25
257 207 m 25
 257 293 l 25
 343 293 l 25
 343 207 l 25
 257 207 l 25
257 7 m 25
 257 93 l 25
 343 93 l 25
 343 7 l 25
 257 7 l 25
EndSplineSet
EndChar

StartChar: at
Encoding: 64 64 32
Width: 600
Flags: HMW
LayerCount: 2
Fore
SplineSet
157 607 m 25
 157 693 l 25
 243 693 l 25
 243 607 l 25
 157 607 l 25
257 607 m 25
 257 693 l 25
 343 693 l 25
 343 607 l 25
 257 607 l 25
357 607 m 25
 357 693 l 25
 443 693 l 25
 443 607 l 25
 357 607 l 25
57 507 m 25
 57 593 l 25
 143 593 l 25
 143 507 l 25
 57 507 l 25
457 507 m 25
 457 593 l 25
 543 593 l 25
 543 507 l 25
 457 507 l 25
57 407 m 25
 57 493 l 25
 143 493 l 25
 143 407 l 25
 57 407 l 25
257 407 m 25
 257 493 l 25
 343 493 l 25
 343 407 l 25
 257 407 l 25
357 407 m 25
 357 493 l 25
 443 493 l 25
 443 407 l 25
 357 407 l 25
457 407 m 25
 457 493 l 25
 543 493 l 25
 543 407 l 25
 457 407 l 25
57 307 m 25
 57 393 l 25
 143 393 l 25
 143 307 l 25
 57 307 l 25
257 307 m 25
 257 393 l 25
 343 393 l 25
 343 307 l 25
 257 307 l 25
457 307 m 25
 457 393 l 25
 543 393 l 25
 543 307 l 25
 457 307 l 25
57 207 m 25
 57 293 l 25
 143 293 l 25
 143 207 l 25
 57 207 l 25
257 207 m 25
 257 293 l 25
 343 293 l 25
 343 207 l 25
 257 207 l 25
357 207 m 25
 357 293 l 25
 443 293 l 25
 443 207 l 25
 357 207 l 25
457 207 m 25
 457 293 l 25
 543 293 l 25
 543 207 l 25
 457 207 l 25
57 107 m 25
 57 193 l 25
 143 193 l 25
 143 107 l 25
 57 107 l 25
157 7 m 25
 157 93 l 25
 243 93 l 25
 243 7 l 25
 157 7 l 25
257 7 m 25
 257 93 l 25
 343 93 l 25
 343 7 l 25
 257 7 l 25
357 7 m 25
 357 93 l 25
 443 93 l 25
 443 7 l 25
 357 7 l 25
EndSplineSet
EndChar

StartChar: A
Encoding: 65 65 33
Width: 600
Flags: HMW
AnchorPoint: "ogonek" 400 0 basechar 0
AnchorPoint: "marks_below" 300 0 basechar 0
AnchorPoint: "marks_above" 300 800 basechar 0
LayerCount: 2
Fore
SplineSet
257 607 m 25
 257 693 l 25
 343 693 l 25
 343 607 l 25
 257 607 l 25
157 507 m 25
 157 593 l 25
 243 593 l 25
 243 507 l 25
 157 507 l 25
357 507 m 25
 357 593 l 25
 443 593 l 25
 443 507 l 25
 357 507 l 25
57 407 m 25
 57 493 l 25
 143 493 l 25
 143 407 l 25
 57 407 l 25
457 407 m 25
 457 493 l 25
 543 493 l 25
 543 407 l 25
 457 407 l 25
57 307 m 25
 57 393 l 25
 143 393 l 25
 143 307 l 25
 57 307 l 25
457 307 m 25
 457 393 l 25
 543 393 l 25
 543 307 l 25
 457 307 l 25
57 207 m 25
 57 293 l 25
 143 293 l 25
 143 207 l 25
 57 207 l 25
157 207 m 25
 157 293 l 25
 243 293 l 25
 243 207 l 25
 157 207 l 25
257 207 m 25
 257 293 l 25
 343 293 l 25
 343 207 l 25
 257 207 l 25
357 207 m 25
 357 293 l 25
 443 293 l 25
 443 207 l 25
 357 207 l 25
457 207 m 25
 457 293 l 25
 543 293 l 25
 543 207 l 25
 457 207 l 25
57 107 m 25
 57 193 l 25
 143 193 l 25
 143 107 l 25
 57 107 l 25
457 107 m 25
 457 193 l 25
 543 193 l 25
 543 107 l 25
 457 107 l 25
57 7 m 25
 57 93 l 25
 143 93 l 25
 143 7 l 25
 57 7 l 25
457 7 m 25
 457 93 l 25
 543 93 l 25
 543 7 l 25
 457 7 l 25
EndSplineSet
EndChar

StartChar: B
Encoding: 66 66 34
Width: 600
Flags: HMW
AnchorPoint: "marks_below" 300 0 basechar 0
AnchorPoint: "marks_above" 300 800 basechar 0
LayerCount: 2
Fore
SplineSet
57 607 m 25
 57 693 l 25
 143 693 l 25
 143 607 l 25
 57 607 l 25
157 607 m 25
 157 693 l 25
 243 693 l 25
 243 607 l 25
 157 607 l 25
257 607 m 25
 257 693 l 25
 343 693 l 25
 343 607 l 25
 257 607 l 25
357 607 m 25
 357 693 l 25
 443 693 l 25
 443 607 l 25
 357 607 l 25
57 507 m 25
 57 593 l 25
 143 593 l 25
 143 507 l 25
 57 507 l 25
457 507 m 25
 457 593 l 25
 543 593 l 25
 543 507 l 25
 457 507 l 25
57 407 m 25
 57 493 l 25
 143 493 l 25
 143 407 l 25
 57 407 l 25
457 407 m 25
 457 493 l 25
 543 493 l 25
 543 407 l 25
 457 407 l 25
57 307 m 25
 57 393 l 25
 143 393 l 25
 143 307 l 25
 57 307 l 25
157 307 m 25
 157 393 l 25
 243 393 l 25
 243 307 l 25
 157 307 l 25
257 307 m 25
 257 393 l 25
 343 393 l 25
 343 307 l 25
 257 307 l 25
357 307 m 25
 357 393 l 25
 443 393 l 25
 443 307 l 25
 357 307 l 25
57 207 m 25
 57 293 l 25
 143 293 l 25
 143 207 l 25
 57 207 l 25
457 207 m 25
 457 293 l 25
 543 293 l 25
 543 207 l 25
 457 207 l 25
57 107 m 25
 57 193 l 25
 143 193 l 25
 143 107 l 25
 57 107 l 25
457 107 m 25
 457 193 l 25
 543 193 l 25
 543 107 l 25
 457 107 l 25
57 7 m 25
 57 93 l 25
 143 93 l 25
 143 7 l 25
 57 7 l 25
157 7 m 25
 157 93 l 25
 243 93 l 25
 243 7 l 25
 157 7 l 25
257 7 m 25
 257 93 l 25
 343 93 l 25
 343 7 l 25
 257 7 l 25
357 7 m 25
 357 93 l 25
 443 93 l 25
 443 7 l 25
 357 7 l 25
EndSplineSet
EndChar

StartChar: C
Encoding: 67 67 35
Width: 600
Flags: HMW
AnchorPoint: "marks_below" 300 0 basechar 0
AnchorPoint: "marks_above" 300 800 basechar 0
LayerCount: 2
Fore
SplineSet
157 607 m 25
 157 693 l 25
 243 693 l 25
 243 607 l 25
 157 607 l 25
257 607 m 25
 257 693 l 25
 343 693 l 25
 343 607 l 25
 257 607 l 25
357 607 m 25
 357 693 l 25
 443 693 l 25
 443 607 l 25
 357 607 l 25
57 507 m 25
 57 593 l 25
 143 593 l 25
 143 507 l 25
 57 507 l 25
457 507 m 25
 457 593 l 25
 543 593 l 25
 543 507 l 25
 457 507 l 25
57 407 m 25
 57 493 l 25
 143 493 l 25
 143 407 l 25
 57 407 l 25
57 307 m 25
 57 393 l 25
 143 393 l 25
 143 307 l 25
 57 307 l 25
57 207 m 25
 57 293 l 25
 143 293 l 25
 143 207 l 25
 57 207 l 25
57 107 m 25
 57 193 l 25
 143 193 l 25
 143 107 l 25
 57 107 l 25
457 107 m 25
 457 193 l 25
 543 193 l 25
 543 107 l 25
 457 107 l 25
157 7 m 25
 157 93 l 25
 243 93 l 25
 243 7 l 25
 157 7 l 25
257 7 m 25
 257 93 l 25
 343 93 l 25
 343 7 l 25
 257 7 l 25
357 7 m 25
 357 93 l 25
 443 93 l 25
 443 7 l 25
 357 7 l 25
EndSplineSet
EndChar

StartChar: D
Encoding: 68 68 36
Width: 600
Flags: HMW
AnchorPoint: "marks_below" 300 0 basechar 0
AnchorPoint: "marks_above" 300 800 basechar 0
LayerCount: 2
Fore
SplineSet
57 607 m 25
 57 693 l 25
 143 693 l 25
 143 607 l 25
 57 607 l 25
157 607 m 25
 157 693 l 25
 243 693 l 25
 243 607 l 25
 157 607 l 25
257 607 m 25
 257 693 l 25
 343 693 l 25
 343 607 l 25
 257 607 l 25
57 507 m 25
 57 593 l 25
 143 593 l 25
 143 507 l 25
 57 507 l 25
357 507 m 25
 357 593 l 25
 443 593 l 25
 443 507 l 25
 357 507 l 25
57 407 m 25
 57 493 l 25
 143 493 l 25
 143 407 l 25
 57 407 l 25
457 407 m 25
 457 493 l 25
 543 493 l 25
 543 407 l 25
 457 407 l 25
57 307 m 25
 57 393 l 25
 143 393 l 25
 143 307 l 25
 57 307 l 25
457 307 m 25
 457 393 l 25
 543 393 l 25
 543 307 l 25
 457 307 l 25
57 207 m 25
 57 293 l 25
 143 293 l 25
 143 207 l 25
 57 207 l 25
457 207 m 25
 457 293 l 25
 543 293 l 25
 543 207 l 25
 457 207 l 25
57 107 m 25
 57 193 l 25
 143 193 l 25
 143 107 l 25
 57 107 l 25
357 107 m 25
 357 193 l 25
 443 193 l 25
 443 107 l 25
 357 107 l 25
57 7 m 25
 57 93 l 25
 143 93 l 25
 143 7 l 25
 57 7 l 25
157 7 m 25
 157 93 l 25
 243 93 l 25
 243 7 l 25
 157 7 l 25
257 7 m 25
 257 93 l 25
 343 93 l 25
 343 7 l 25
 257 7 l 25
EndSplineSet
EndChar

StartChar: E
Encoding: 69 69 37
Width: 600
Flags: HMW
AnchorPoint: "ogonek" 400 0 basechar 0
AnchorPoint: "marks_below" 300 0 basechar 0
AnchorPoint: "marks_above" 300 800 basechar 0
LayerCount: 2
Fore
SplineSet
57 607 m 25
 57 693 l 25
 143 693 l 25
 143 607 l 25
 57 607 l 25
157 607 m 25
 157 693 l 25
 243 693 l 25
 243 607 l 25
 157 607 l 25
257 607 m 25
 257 693 l 25
 343 693 l 25
 343 607 l 25
 257 607 l 25
357 607 m 25
 357 693 l 25
 443 693 l 25
 443 607 l 25
 357 607 l 25
457 607 m 25
 457 693 l 25
 543 693 l 25
 543 607 l 25
 457 607 l 25
57 507 m 25
 57 593 l 25
 143 593 l 25
 143 507 l 25
 57 507 l 25
57 407 m 25
 57 493 l 25
 143 493 l 25
 143 407 l 25
 57 407 l 25
57 307 m 25
 57 393 l 25
 143 393 l 25
 143 307 l 25
 57 307 l 25
157 307 m 25
 157 393 l 25
 243 393 l 25
 243 307 l 25
 157 307 l 25
257 307 m 25
 257 393 l 25
 343 393 l 25
 343 307 l 25
 257 307 l 25
357 307 m 25
 357 393 l 25
 443 393 l 25
 443 307 l 25
 357 307 l 25
57 207 m 25
 57 293 l 25
 143 293 l 25
 143 207 l 25
 57 207 l 25
57 107 m 25
 57 193 l 25
 143 193 l 25
 143 107 l 25
 57 107 l 25
57 7 m 25
 57 93 l 25
 143 93 l 25
 143 7 l 25
 57 7 l 25
157 7 m 25
 157 93 l 25
 243 93 l 25
 243 7 l 25
 157 7 l 25
257 7 m 25
 257 93 l 25
 343 93 l 25
 343 7 l 25
 257 7 l 25
357 7 m 25
 357 93 l 25
 443 93 l 25
 443 7 l 25
 357 7 l 25
457 7 m 25
 457 93 l 25
 543 93 l 25
 543 7 l 25
 457 7 l 25
EndSplineSet
EndChar

StartChar: F
Encoding: 70 70 38
Width: 600
Flags: HMW
AnchorPoint: "marks_below" 300 0 basechar 0
AnchorPoint: "marks_above" 300 800 basechar 0
LayerCount: 2
Fore
SplineSet
57 607 m 25
 57 693 l 25
 143 693 l 25
 143 607 l 25
 57 607 l 25
157 607 m 25
 157 693 l 25
 243 693 l 25
 243 607 l 25
 157 607 l 25
257 607 m 25
 257 693 l 25
 343 693 l 25
 343 607 l 25
 257 607 l 25
357 607 m 25
 357 693 l 25
 443 693 l 25
 443 607 l 25
 357 607 l 25
457 607 m 25
 457 693 l 25
 543 693 l 25
 543 607 l 25
 457 607 l 25
57 507 m 25
 57 593 l 25
 143 593 l 25
 143 507 l 25
 57 507 l 25
57 407 m 25
 57 493 l 25
 143 493 l 25
 143 407 l 25
 57 407 l 25
57 307 m 25
 57 393 l 25
 143 393 l 25
 143 307 l 25
 57 307 l 25
157 307 m 25
 157 393 l 25
 243 393 l 25
 243 307 l 25
 157 307 l 25
257 307 m 25
 257 393 l 25
 343 393 l 25
 343 307 l 25
 257 307 l 25
357 307 m 25
 357 393 l 25
 443 393 l 25
 443 307 l 25
 357 307 l 25
57 207 m 25
 57 293 l 25
 143 293 l 25
 143 207 l 25
 57 207 l 25
57 107 m 25
 57 193 l 25
 143 193 l 25
 143 107 l 25
 57 107 l 25
57 7 m 25
 57 93 l 25
 143 93 l 25
 143 7 l 25
 57 7 l 25
EndSplineSet
EndChar

StartChar: G
Encoding: 71 71 39
Width: 600
Flags: HMW
AnchorPoint: "marks_below" 300 0 basechar 0
AnchorPoint: "marks_above" 300 800 basechar 0
LayerCount: 2
Fore
SplineSet
157 607 m 25
 157 693 l 25
 243 693 l 25
 243 607 l 25
 157 607 l 25
257 607 m 25
 257 693 l 25
 343 693 l 25
 343 607 l 25
 257 607 l 25
357 607 m 25
 357 693 l 25
 443 693 l 25
 443 607 l 25
 357 607 l 25
57 507 m 25
 57 593 l 25
 143 593 l 25
 143 507 l 25
 57 507 l 25
457 507 m 25
 457 593 l 25
 543 593 l 25
 543 507 l 25
 457 507 l 25
57 407 m 25
 57 493 l 25
 143 493 l 25
 143 407 l 25
 57 407 l 25
57 307 m 25
 57 393 l 25
 143 393 l 25
 143 307 l 25
 57 307 l 25
357 307 m 25
 357 393 l 25
 443 393 l 25
 443 307 l 25
 357 307 l 25
457 307 m 25
 457 393 l 25
 543 393 l 25
 543 307 l 25
 457 307 l 25
57 207 m 25
 57 293 l 25
 143 293 l 25
 143 207 l 25
 57 207 l 25
457 207 m 25
 457 293 l 25
 543 293 l 25
 543 207 l 25
 457 207 l 25
57 107 m 25
 57 193 l 25
 143 193 l 25
 143 107 l 25
 57 107 l 25
457 107 m 25
 457 193 l 25
 543 193 l 25
 543 107 l 25
 457 107 l 25
157 7 m 25
 157 93 l 25
 243 93 l 25
 243 7 l 25
 157 7 l 25
257 7 m 25
 257 93 l 25
 343 93 l 25
 343 7 l 25
 257 7 l 25
357 7 m 25
 357 93 l 25
 443 93 l 25
 443 7 l 25
 357 7 l 25
457 7 m 25
 457 93 l 25
 543 93 l 25
 543 7 l 25
 457 7 l 25
EndSplineSet
EndChar

StartChar: H
Encoding: 72 72 40
Width: 600
Flags: HMW
AnchorPoint: "marks_below" 300 0 basechar 0
AnchorPoint: "marks_above" 300 800 basechar 0
LayerCount: 2
Fore
SplineSet
57 607 m 25
 57 693 l 25
 143 693 l 25
 143 607 l 25
 57 607 l 25
457 607 m 25
 457 693 l 25
 543 693 l 25
 543 607 l 25
 457 607 l 25
57 507 m 25
 57 593 l 25
 143 593 l 25
 143 507 l 25
 57 507 l 25
457 507 m 25
 457 593 l 25
 543 593 l 25
 543 507 l 25
 457 507 l 25
57 407 m 25
 57 493 l 25
 143 493 l 25
 143 407 l 25
 57 407 l 25
457 407 m 25
 457 493 l 25
 543 493 l 25
 543 407 l 25
 457 407 l 25
57 307 m 25
 57 393 l 25
 143 393 l 25
 143 307 l 25
 57 307 l 25
157 307 m 25
 157 393 l 25
 243 393 l 25
 243 307 l 25
 157 307 l 25
257 307 m 25
 257 393 l 25
 343 393 l 25
 343 307 l 25
 257 307 l 25
357 307 m 25
 357 393 l 25
 443 393 l 25
 443 307 l 25
 357 307 l 25
457 307 m 25
 457 393 l 25
 543 393 l 25
 543 307 l 25
 457 307 l 25
57 207 m 25
 57 293 l 25
 143 293 l 25
 143 207 l 25
 57 207 l 25
457 207 m 25
 457 293 l 25
 543 293 l 25
 543 207 l 25
 457 207 l 25
57 107 m 25
 57 193 l 25
 143 193 l 25
 143 107 l 25
 57 107 l 25
457 107 m 25
 457 193 l 25
 543 193 l 25
 543 107 l 25
 457 107 l 25
57 7 m 25
 57 93 l 25
 143 93 l 25
 143 7 l 25
 57 7 l 25
457 7 m 25
 457 93 l 25
 543 93 l 25
 543 7 l 25
 457 7 l 25
EndSplineSet
EndChar

StartChar: I
Encoding: 73 73 41
Width: 400
Flags: HMW
AnchorPoint: "marks_below" 200 0 basechar 0
AnchorPoint: "ogonek" 200 0 basechar 0
AnchorPoint: "marks_above" 200 800 basechar 0
LayerCount: 2
Fore
SplineSet
57 607 m 25
 57 693 l 25
 143 693 l 25
 143 607 l 25
 57 607 l 25
157 607 m 25
 157 693 l 25
 243 693 l 25
 243 607 l 25
 157 607 l 25
257 607 m 25
 257 693 l 25
 343 693 l 25
 343 607 l 25
 257 607 l 25
157 507 m 25
 157 593 l 25
 243 593 l 25
 243 507 l 25
 157 507 l 25
157 407 m 25
 157 493 l 25
 243 493 l 25
 243 407 l 25
 157 407 l 25
157 307 m 25
 157 393 l 25
 243 393 l 25
 243 307 l 25
 157 307 l 25
157 207 m 25
 157 293 l 25
 243 293 l 25
 243 207 l 25
 157 207 l 25
157 107 m 25
 157 193 l 25
 243 193 l 25
 243 107 l 25
 157 107 l 25
57 7 m 25
 57 93 l 25
 143 93 l 25
 143 7 l 25
 57 7 l 25
157 7 m 25
 157 93 l 25
 243 93 l 25
 243 7 l 25
 157 7 l 25
257 7 m 25
 257 93 l 25
 343 93 l 25
 343 7 l 25
 257 7 l 25
EndSplineSet
EndChar

StartChar: J
Encoding: 74 74 42
Width: 600
Flags: HMW
AnchorPoint: "marks_above" 400 800 basechar 0
LayerCount: 2
Fore
SplineSet
257 607 m 25
 257 693 l 25
 343 693 l 25
 343 607 l 25
 257 607 l 25
357 607 m 25
 357 693 l 25
 443 693 l 25
 443 607 l 25
 357 607 l 25
457 607 m 25
 457 693 l 25
 543 693 l 25
 543 607 l 25
 457 607 l 25
357 507 m 25
 357 593 l 25
 443 593 l 25
 443 507 l 25
 357 507 l 25
357 407 m 25
 357 493 l 25
 443 493 l 25
 443 407 l 25
 357 407 l 25
357 307 m 25
 357 393 l 25
 443 393 l 25
 443 307 l 25
 357 307 l 25
357 207 m 25
 357 293 l 25
 443 293 l 25
 443 207 l 25
 357 207 l 25
57 107 m 25
 57 193 l 25
 143 193 l 25
 143 107 l 25
 57 107 l 25
357 107 m 25
 357 193 l 25
 443 193 l 25
 443 107 l 25
 357 107 l 25
157 7 m 25
 157 93 l 25
 243 93 l 25
 243 7 l 25
 157 7 l 25
257 7 m 25
 257 93 l 25
 343 93 l 25
 343 7 l 25
 257 7 l 25
EndSplineSet
EndChar

StartChar: K
Encoding: 75 75 43
Width: 600
Flags: HMW
AnchorPoint: "marks_below" 300 0 basechar 0
AnchorPoint: "marks_above" 300 800 basechar 0
LayerCount: 2
Fore
SplineSet
57 607 m 25
 57 693 l 25
 143 693 l 25
 143 607 l 25
 57 607 l 25
457 607 m 25
 457 693 l 25
 543 693 l 25
 543 607 l 25
 457 607 l 25
57 507 m 25
 57 593 l 25
 143 593 l 25
 143 507 l 25
 57 507 l 25
357 507 m 25
 357 593 l 25
 443 593 l 25
 443 507 l 25
 357 507 l 25
57 407 m 25
 57 493 l 25
 143 493 l 25
 143 407 l 25
 57 407 l 25
257 407 m 25
 257 493 l 25
 343 493 l 25
 343 407 l 25
 257 407 l 25
57 307 m 25
 57 393 l 25
 143 393 l 25
 143 307 l 25
 57 307 l 25
157 307 m 25
 157 393 l 25
 243 393 l 25
 243 307 l 25
 157 307 l 25
57 207 m 25
 57 293 l 25
 143 293 l 25
 143 207 l 25
 57 207 l 25
257 207 m 25
 257 293 l 25
 343 293 l 25
 343 207 l 25
 257 207 l 25
57 107 m 25
 57 193 l 25
 143 193 l 25
 143 107 l 25
 57 107 l 25
357 107 m 25
 357 193 l 25
 443 193 l 25
 443 107 l 25
 357 107 l 25
57 7 m 25
 57 93 l 25
 143 93 l 25
 143 7 l 25
 57 7 l 25
457 7 m 25
 457 93 l 25
 543 93 l 25
 543 7 l 25
 457 7 l 25
EndSplineSet
EndChar

StartChar: L
Encoding: 76 76 44
Width: 600
Flags: HMW
AnchorPoint: "marks_aboveright" 250 500 basechar 0
AnchorPoint: "marks_below" 300 0 basechar 0
AnchorPoint: "marks_above" 300 800 basechar 0
LayerCount: 2
Fore
SplineSet
57 607 m 25
 57 693 l 25
 143 693 l 25
 143 607 l 25
 57 607 l 25
57 507 m 25
 57 593 l 25
 143 593 l 25
 143 507 l 25
 57 507 l 25
57 407 m 25
 57 493 l 25
 143 493 l 25
 143 407 l 25
 57 407 l 25
57 307 m 25
 57 393 l 25
 143 393 l 25
 143 307 l 25
 57 307 l 25
57 207 m 25
 57 293 l 25
 143 293 l 25
 143 207 l 25
 57 207 l 25
57 107 m 25
 57 193 l 25
 143 193 l 25
 143 107 l 25
 57 107 l 25
57 7 m 25
 57 93 l 25
 143 93 l 25
 143 7 l 25
 57 7 l 25
157 7 m 25
 157 93 l 25
 243 93 l 25
 243 7 l 25
 157 7 l 25
257 7 m 25
 257 93 l 25
 343 93 l 25
 343 7 l 25
 257 7 l 25
357 7 m 25
 357 93 l 25
 443 93 l 25
 443 7 l 25
 357 7 l 25
457 7 m 25
 457 93 l 25
 543 93 l 25
 543 7 l 25
 457 7 l 25
EndSplineSet
EndChar

StartChar: M
Encoding: 77 77 45
Width: 600
Flags: HMW
AnchorPoint: "marks_below" 300 0 basechar 0
AnchorPoint: "marks_above" 300 800 basechar 0
LayerCount: 2
Fore
SplineSet
57 607 m 25
 57 693 l 25
 143 693 l 25
 143 607 l 25
 57 607 l 25
457 607 m 25
 457 693 l 25
 543 693 l 25
 543 607 l 25
 457 607 l 25
57 507 m 25
 57 593 l 25
 143 593 l 25
 143 507 l 25
 57 507 l 25
157 507 m 25
 157 593 l 25
 243 593 l 25
 243 507 l 25
 157 507 l 25
357 507 m 25
 357 593 l 25
 443 593 l 25
 443 507 l 25
 357 507 l 25
457 507 m 25
 457 593 l 25
 543 593 l 25
 543 507 l 25
 457 507 l 25
57 407 m 25
 57 493 l 25
 143 493 l 25
 143 407 l 25
 57 407 l 25
257 407 m 25
 257 493 l 25
 343 493 l 25
 343 407 l 25
 257 407 l 25
457 407 m 25
 457 493 l 25
 543 493 l 25
 543 407 l 25
 457 407 l 25
57 307 m 25
 57 393 l 25
 143 393 l 25
 143 307 l 25
 57 307 l 25
257 307 m 25
 257 393 l 25
 343 393 l 25
 343 307 l 25
 257 307 l 25
457 307 m 25
 457 393 l 25
 543 393 l 25
 543 307 l 25
 457 307 l 25
57 207 m 25
 57 293 l 25
 143 293 l 25
 143 207 l 25
 57 207 l 25
457 207 m 25
 457 293 l 25
 543 293 l 25
 543 207 l 25
 457 207 l 25
57 107 m 25
 57 193 l 25
 143 193 l 25
 143 107 l 25
 57 107 l 25
457 107 m 25
 457 193 l 25
 543 193 l 25
 543 107 l 25
 457 107 l 25
57 7 m 25
 57 93 l 25
 143 93 l 25
 143 7 l 25
 57 7 l 25
457 7 m 25
 457 93 l 25
 543 93 l 25
 543 7 l 25
 457 7 l 25
EndSplineSet
EndChar

StartChar: N
Encoding: 78 78 46
Width: 600
Flags: HMW
AnchorPoint: "marks_below" 300 0 basechar 0
AnchorPoint: "marks_above" 300 800 basechar 0
LayerCount: 2
Fore
SplineSet
57 607 m 25
 57 693 l 25
 143 693 l 25
 143 607 l 25
 57 607 l 25
457 607 m 25
 457 693 l 25
 543 693 l 25
 543 607 l 25
 457 607 l 25
57 507 m 25
 57 593 l 25
 143 593 l 25
 143 507 l 25
 57 507 l 25
457 507 m 25
 457 593 l 25
 543 593 l 25
 543 507 l 25
 457 507 l 25
57 407 m 25
 57 493 l 25
 143 493 l 25
 143 407 l 25
 57 407 l 25
157 407 m 25
 157 493 l 25
 243 493 l 25
 243 407 l 25
 157 407 l 25
457 407 m 25
 457 493 l 25
 543 493 l 25
 543 407 l 25
 457 407 l 25
57 307 m 25
 57 393 l 25
 143 393 l 25
 143 307 l 25
 57 307 l 25
257 307 m 25
 257 393 l 25
 343 393 l 25
 343 307 l 25
 257 307 l 25
457 307 m 25
 457 393 l 25
 543 393 l 25
 543 307 l 25
 457 307 l 25
57 207 m 25
 57 293 l 25
 143 293 l 25
 143 207 l 25
 57 207 l 25
357 207 m 25
 357 293 l 25
 443 293 l 25
 443 207 l 25
 357 207 l 25
457 207 m 25
 457 293 l 25
 543 293 l 25
 543 207 l 25
 457 207 l 25
57 107 m 25
 57 193 l 25
 143 193 l 25
 143 107 l 25
 57 107 l 25
457 107 m 25
 457 193 l 25
 543 193 l 25
 543 107 l 25
 457 107 l 25
57 7 m 25
 57 93 l 25
 143 93 l 25
 143 7 l 25
 57 7 l 25
457 7 m 25
 457 93 l 25
 543 93 l 25
 543 7 l 25
 457 7 l 25
EndSplineSet
EndChar

StartChar: O
Encoding: 79 79 47
Width: 600
Flags: HMW
AnchorPoint: "marks_below" 300 0 basechar 0
AnchorPoint: "marks_above" 300 800 basechar 0
LayerCount: 2
Fore
SplineSet
157 607 m 25
 157 693 l 25
 243 693 l 25
 243 607 l 25
 157 607 l 25
257 607 m 25
 257 693 l 25
 343 693 l 25
 343 607 l 25
 257 607 l 25
357 607 m 25
 357 693 l 25
 443 693 l 25
 443 607 l 25
 357 607 l 25
57 507 m 25
 57 593 l 25
 143 593 l 25
 143 507 l 25
 57 507 l 25
457 507 m 25
 457 593 l 25
 543 593 l 25
 543 507 l 25
 457 507 l 25
57 407 m 25
 57 493 l 25
 143 493 l 25
 143 407 l 25
 57 407 l 25
457 407 m 25
 457 493 l 25
 543 493 l 25
 543 407 l 25
 457 407 l 25
57 307 m 25
 57 393 l 25
 143 393 l 25
 143 307 l 25
 57 307 l 25
457 307 m 25
 457 393 l 25
 543 393 l 25
 543 307 l 25
 457 307 l 25
57 207 m 25
 57 293 l 25
 143 293 l 25
 143 207 l 25
 57 207 l 25
457 207 m 25
 457 293 l 25
 543 293 l 25
 543 207 l 25
 457 207 l 25
57 107 m 25
 57 193 l 25
 143 193 l 25
 143 107 l 25
 57 107 l 25
457 107 m 25
 457 193 l 25
 543 193 l 25
 543 107 l 25
 457 107 l 25
157 7 m 25
 157 93 l 25
 243 93 l 25
 243 7 l 25
 157 7 l 25
257 7 m 25
 257 93 l 25
 343 93 l 25
 343 7 l 25
 257 7 l 25
357 7 m 25
 357 93 l 25
 443 93 l 25
 443 7 l 25
 357 7 l 25
EndSplineSet
EndChar

StartChar: P
Encoding: 80 80 48
Width: 600
Flags: HMW
AnchorPoint: "marks_below" 300 0 basechar 0
AnchorPoint: "marks_above" 300 800 basechar 0
LayerCount: 2
Fore
SplineSet
57 607 m 25
 57 693 l 25
 143 693 l 25
 143 607 l 25
 57 607 l 25
157 607 m 25
 157 693 l 25
 243 693 l 25
 243 607 l 25
 157 607 l 25
257 607 m 25
 257 693 l 25
 343 693 l 25
 343 607 l 25
 257 607 l 25
357 607 m 25
 357 693 l 25
 443 693 l 25
 443 607 l 25
 357 607 l 25
57 507 m 25
 57 593 l 25
 143 593 l 25
 143 507 l 25
 57 507 l 25
457 507 m 25
 457 593 l 25
 543 593 l 25
 543 507 l 25
 457 507 l 25
57 407 m 25
 57 493 l 25
 143 493 l 25
 143 407 l 25
 57 407 l 25
457 407 m 25
 457 493 l 25
 543 493 l 25
 543 407 l 25
 457 407 l 25
57 307 m 25
 57 393 l 25
 143 393 l 25
 143 307 l 25
 57 307 l 25
157 307 m 25
 157 393 l 25
 243 393 l 25
 243 307 l 25
 157 307 l 25
257 307 m 25
 257 393 l 25
 343 393 l 25
 343 307 l 25
 257 307 l 25
357 307 m 25
 357 393 l 25
 443 393 l 25
 443 307 l 25
 357 307 l 25
57 207 m 25
 57 293 l 25
 143 293 l 25
 143 207 l 25
 57 207 l 25
57 107 m 25
 57 193 l 25
 143 193 l 25
 143 107 l 25
 57 107 l 25
57 7 m 25
 57 93 l 25
 143 93 l 25
 143 7 l 25
 57 7 l 25
EndSplineSet
EndChar

StartChar: Q
Encoding: 81 81 49
Width: 600
Flags: HMW
AnchorPoint: "marks_below" 300 0 basechar 0
AnchorPoint: "marks_above" 300 800 basechar 0
LayerCount: 2
Fore
SplineSet
157 607 m 25
 157 693 l 25
 243 693 l 25
 243 607 l 25
 157 607 l 25
257 607 m 25
 257 693 l 25
 343 693 l 25
 343 607 l 25
 257 607 l 25
357 607 m 25
 357 693 l 25
 443 693 l 25
 443 607 l 25
 357 607 l 25
57 507 m 25
 57 593 l 25
 143 593 l 25
 143 507 l 25
 57 507 l 25
457 507 m 25
 457 593 l 25
 543 593 l 25
 543 507 l 25
 457 507 l 25
57 407 m 25
 57 493 l 25
 143 493 l 25
 143 407 l 25
 57 407 l 25
457 407 m 25
 457 493 l 25
 543 493 l 25
 543 407 l 25
 457 407 l 25
57 307 m 25
 57 393 l 25
 143 393 l 25
 143 307 l 25
 57 307 l 25
457 307 m 25
 457 393 l 25
 543 393 l 25
 543 307 l 25
 457 307 l 25
57 207 m 25
 57 293 l 25
 143 293 l 25
 143 207 l 25
 57 207 l 25
257 207 m 25
 257 293 l 25
 343 293 l 25
 343 207 l 25
 257 207 l 25
457 207 m 25
 457 293 l 25
 543 293 l 25
 543 207 l 25
 457 207 l 25
57 107 m 25
 57 193 l 25
 143 193 l 25
 143 107 l 25
 57 107 l 25
357 107 m 25
 357 193 l 25
 443 193 l 25
 443 107 l 25
 357 107 l 25
157 7 m 25
 157 93 l 25
 243 93 l 25
 243 7 l 25
 157 7 l 25
257 7 m 25
 257 93 l 25
 343 93 l 25
 343 7 l 25
 257 7 l 25
457 7 m 25
 457 93 l 25
 543 93 l 25
 543 7 l 25
 457 7 l 25
EndSplineSet
EndChar

StartChar: R
Encoding: 82 82 50
Width: 600
Flags: HMW
AnchorPoint: "marks_below" 300 0 basechar 0
AnchorPoint: "marks_above" 300 800 basechar 0
LayerCount: 2
Fore
SplineSet
57 607 m 25
 57 693 l 25
 143 693 l 25
 143 607 l 25
 57 607 l 25
157 607 m 25
 157 693 l 25
 243 693 l 25
 243 607 l 25
 157 607 l 25
257 607 m 25
 257 693 l 25
 343 693 l 25
 343 607 l 25
 257 607 l 25
357 607 m 25
 357 693 l 25
 443 693 l 25
 443 607 l 25
 357 607 l 25
57 507 m 25
 57 593 l 25
 143 593 l 25
 143 507 l 25
 57 507 l 25
457 507 m 25
 457 593 l 25
 543 593 l 25
 543 507 l 25
 457 507 l 25
57 407 m 25
 57 493 l 25
 143 493 l 25
 143 407 l 25
 57 407 l 25
457 407 m 25
 457 493 l 25
 543 493 l 25
 543 407 l 25
 457 407 l 25
57 307 m 25
 57 393 l 25
 143 393 l 25
 143 307 l 25
 57 307 l 25
157 307 m 25
 157 393 l 25
 243 393 l 25
 243 307 l 25
 157 307 l 25
257 307 m 25
 257 393 l 25
 343 393 l 25
 343 307 l 25
 257 307 l 25
357 307 m 25
 357 393 l 25
 443 393 l 25
 443 307 l 25
 357 307 l 25
57 207 m 25
 57 293 l 25
 143 293 l 25
 143 207 l 25
 57 207 l 25
257 207 m 25
 257 293 l 25
 343 293 l 25
 343 207 l 25
 257 207 l 25
57 107 m 25
 57 193 l 25
 143 193 l 25
 143 107 l 25
 57 107 l 25
357 107 m 25
 357 193 l 25
 443 193 l 25
 443 107 l 25
 357 107 l 25
57 7 m 25
 57 93 l 25
 143 93 l 25
 143 7 l 25
 57 7 l 25
457 7 m 25
 457 93 l 25
 543 93 l 25
 543 7 l 25
 457 7 l 25
EndSplineSet
EndChar

StartChar: S
Encoding: 83 83 51
Width: 600
Flags: HMW
AnchorPoint: "marks_below" 300 0 basechar 0
AnchorPoint: "marks_above" 300 800 basechar 0
LayerCount: 2
Fore
SplineSet
157 607 m 25
 157 693 l 25
 243 693 l 25
 243 607 l 25
 157 607 l 25
257 607 m 25
 257 693 l 25
 343 693 l 25
 343 607 l 25
 257 607 l 25
357 607 m 25
 357 693 l 25
 443 693 l 25
 443 607 l 25
 357 607 l 25
57 507 m 25
 57 593 l 25
 143 593 l 25
 143 507 l 25
 57 507 l 25
457 507 m 25
 457 593 l 25
 543 593 l 25
 543 507 l 25
 457 507 l 25
57 407 m 25
 57 493 l 25
 143 493 l 25
 143 407 l 25
 57 407 l 25
157 307 m 25
 157 393 l 25
 243 393 l 25
 243 307 l 25
 157 307 l 25
257 307 m 25
 257 393 l 25
 343 393 l 25
 343 307 l 25
 257 307 l 25
357 307 m 25
 357 393 l 25
 443 393 l 25
 443 307 l 25
 357 307 l 25
457 207 m 25
 457 293 l 25
 543 293 l 25
 543 207 l 25
 457 207 l 25
57 107 m 25
 57 193 l 25
 143 193 l 25
 143 107 l 25
 57 107 l 25
457 107 m 25
 457 193 l 25
 543 193 l 25
 543 107 l 25
 457 107 l 25
157 7 m 25
 157 93 l 25
 243 93 l 25
 243 7 l 25
 157 7 l 25
257 7 m 25
 257 93 l 25
 343 93 l 25
 343 7 l 25
 257 7 l 25
357 7 m 25
 357 93 l 25
 443 93 l 25
 443 7 l 25
 357 7 l 25
EndSplineSet
EndChar

StartChar: T
Encoding: 84 84 52
Width: 600
Flags: HMW
AnchorPoint: "marks_below" 300 0 basechar 0
AnchorPoint: "marks_above" 300 800 basechar 0
LayerCount: 2
Fore
SplineSet
57 607 m 25
 57 693 l 25
 143 693 l 25
 143 607 l 25
 57 607 l 25
157 607 m 25
 157 693 l 25
 243 693 l 25
 243 607 l 25
 157 607 l 25
257 607 m 25
 257 693 l 25
 343 693 l 25
 343 607 l 25
 257 607 l 25
357 607 m 25
 357 693 l 25
 443 693 l 25
 443 607 l 25
 357 607 l 25
457 607 m 25
 457 693 l 25
 543 693 l 25
 543 607 l 25
 457 607 l 25
257 507 m 25
 257 593 l 25
 343 593 l 25
 343 507 l 25
 257 507 l 25
257 407 m 25
 257 493 l 25
 343 493 l 25
 343 407 l 25
 257 407 l 25
257 307 m 25
 257 393 l 25
 343 393 l 25
 343 307 l 25
 257 307 l 25
257 207 m 25
 257 293 l 25
 343 293 l 25
 343 207 l 25
 257 207 l 25
257 107 m 25
 257 193 l 25
 343 193 l 25
 343 107 l 25
 257 107 l 25
257 7 m 25
 257 93 l 25
 343 93 l 25
 343 7 l 25
 257 7 l 25
EndSplineSet
EndChar

StartChar: U
Encoding: 85 85 53
Width: 600
Flags: HMW
AnchorPoint: "ogonek" 300 0 basechar 0
AnchorPoint: "marks_below" 300 0 basechar 0
AnchorPoint: "marks_above" 300 800 basechar 0
LayerCount: 2
Fore
SplineSet
57 607 m 25
 57 693 l 25
 143 693 l 25
 143 607 l 25
 57 607 l 25
457 607 m 25
 457 693 l 25
 543 693 l 25
 543 607 l 25
 457 607 l 25
57 507 m 25
 57 593 l 25
 143 593 l 25
 143 507 l 25
 57 507 l 25
457 507 m 25
 457 593 l 25
 543 593 l 25
 543 507 l 25
 457 507 l 25
57 407 m 25
 57 493 l 25
 143 493 l 25
 143 407 l 25
 57 407 l 25
457 407 m 25
 457 493 l 25
 543 493 l 25
 543 407 l 25
 457 407 l 25
57 307 m 25
 57 393 l 25
 143 393 l 25
 143 307 l 25
 57 307 l 25
457 307 m 25
 457 393 l 25
 543 393 l 25
 543 307 l 25
 457 307 l 25
57 207 m 25
 57 293 l 25
 143 293 l 25
 143 207 l 25
 57 207 l 25
457 207 m 25
 457 293 l 25
 543 293 l 25
 543 207 l 25
 457 207 l 25
57 107 m 25
 57 193 l 25
 143 193 l 25
 143 107 l 25
 57 107 l 25
457 107 m 25
 457 193 l 25
 543 193 l 25
 543 107 l 25
 457 107 l 25
157 7 m 25
 157 93 l 25
 243 93 l 25
 243 7 l 25
 157 7 l 25
257 7 m 25
 257 93 l 25
 343 93 l 25
 343 7 l 25
 257 7 l 25
357 7 m 25
 357 93 l 25
 443 93 l 25
 443 7 l 25
 357 7 l 25
EndSplineSet
EndChar

StartChar: V
Encoding: 86 86 54
Width: 600
Flags: HMW
AnchorPoint: "marks_below" 300 0 basechar 0
AnchorPoint: "marks_above" 300 800 basechar 0
LayerCount: 2
Fore
SplineSet
57 607 m 25
 57 693 l 25
 143 693 l 25
 143 607 l 25
 57 607 l 25
457 607 m 25
 457 693 l 25
 543 693 l 25
 543 607 l 25
 457 607 l 25
57 507 m 25
 57 593 l 25
 143 593 l 25
 143 507 l 25
 57 507 l 25
457 507 m 25
 457 593 l 25
 543 593 l 25
 543 507 l 25
 457 507 l 25
57 407 m 25
 57 493 l 25
 143 493 l 25
 143 407 l 25
 57 407 l 25
457 407 m 25
 457 493 l 25
 543 493 l 25
 543 407 l 25
 457 407 l 25
57 307 m 25
 57 393 l 25
 143 393 l 25
 143 307 l 25
 57 307 l 25
457 307 m 25
 457 393 l 25
 543 393 l 25
 543 307 l 25
 457 307 l 25
57 207 m 25
 57 293 l 25
 143 293 l 25
 143 207 l 25
 57 207 l 25
457 207 m 25
 457 293 l 25
 543 293 l 25
 543 207 l 25
 457 207 l 25
157 107 m 25
 157 193 l 25
 243 193 l 25
 243 107 l 25
 157 107 l 25
357 107 m 25
 357 193 l 25
 443 193 l 25
 443 107 l 25
 357 107 l 25
257 7 m 25
 257 93 l 25
 343 93 l 25
 343 7 l 25
 257 7 l 25
EndSplineSet
EndChar

StartChar: W
Encoding: 87 87 55
Width: 600
Flags: HMW
AnchorPoint: "marks_below" 300 0 basechar 0
AnchorPoint: "marks_above" 300 800 basechar 0
LayerCount: 2
Fore
SplineSet
57 607 m 25
 57 693 l 25
 143 693 l 25
 143 607 l 25
 57 607 l 25
457 607 m 25
 457 693 l 25
 543 693 l 25
 543 607 l 25
 457 607 l 25
57 507 m 25
 57 593 l 25
 143 593 l 25
 143 507 l 25
 57 507 l 25
457 507 m 25
 457 593 l 25
 543 593 l 25
 543 507 l 25
 457 507 l 25
57 407 m 25
 57 493 l 25
 143 493 l 25
 143 407 l 25
 57 407 l 25
457 407 m 25
 457 493 l 25
 543 493 l 25
 543 407 l 25
 457 407 l 25
57 307 m 25
 57 393 l 25
 143 393 l 25
 143 307 l 25
 57 307 l 25
257 307 m 25
 257 393 l 25
 343 393 l 25
 343 307 l 25
 257 307 l 25
457 307 m 25
 457 393 l 25
 543 393 l 25
 543 307 l 25
 457 307 l 25
57 207 m 25
 57 293 l 25
 143 293 l 25
 143 207 l 25
 57 207 l 25
257 207 m 25
 257 293 l 25
 343 293 l 25
 343 207 l 25
 257 207 l 25
457 207 m 25
 457 293 l 25
 543 293 l 25
 543 207 l 25
 457 207 l 25
57 107 m 25
 57 193 l 25
 143 193 l 25
 143 107 l 25
 57 107 l 25
257 107 m 25
 257 193 l 25
 343 193 l 25
 343 107 l 25
 257 107 l 25
457 107 m 25
 457 193 l 25
 543 193 l 25
 543 107 l 25
 457 107 l 25
157 7 m 25
 157 93 l 25
 243 93 l 25
 243 7 l 25
 157 7 l 25
357 7 m 25
 357 93 l 25
 443 93 l 25
 443 7 l 25
 357 7 l 25
EndSplineSet
EndChar

StartChar: X
Encoding: 88 88 56
Width: 600
Flags: HMW
AnchorPoint: "marks_below" 300 0 basechar 0
AnchorPoint: "marks_above" 300 800 basechar 0
LayerCount: 2
Fore
SplineSet
57 607 m 25
 57 693 l 25
 143 693 l 25
 143 607 l 25
 57 607 l 25
457 607 m 25
 457 693 l 25
 543 693 l 25
 543 607 l 25
 457 607 l 25
57 507 m 25
 57 593 l 25
 143 593 l 25
 143 507 l 25
 57 507 l 25
457 507 m 25
 457 593 l 25
 543 593 l 25
 543 507 l 25
 457 507 l 25
157 407 m 25
 157 493 l 25
 243 493 l 25
 243 407 l 25
 157 407 l 25
357 407 m 25
 357 493 l 25
 443 493 l 25
 443 407 l 25
 357 407 l 25
257 307 m 25
 257 393 l 25
 343 393 l 25
 343 307 l 25
 257 307 l 25
157 207 m 25
 157 293 l 25
 243 293 l 25
 243 207 l 25
 157 207 l 25
357 207 m 25
 357 293 l 25
 443 293 l 25
 443 207 l 25
 357 207 l 25
57 107 m 25
 57 193 l 25
 143 193 l 25
 143 107 l 25
 57 107 l 25
457 107 m 25
 457 193 l 25
 543 193 l 25
 543 107 l 25
 457 107 l 25
57 7 m 25
 57 93 l 25
 143 93 l 25
 143 7 l 25
 57 7 l 25
457 7 m 25
 457 93 l 25
 543 93 l 25
 543 7 l 25
 457 7 l 25
EndSplineSet
EndChar

StartChar: Y
Encoding: 89 89 57
Width: 600
Flags: HMW
AnchorPoint: "marks_below" 300 0 basechar 0
AnchorPoint: "marks_above" 300 800 basechar 0
LayerCount: 2
Fore
SplineSet
57 607 m 25
 57 693 l 25
 143 693 l 25
 143 607 l 25
 57 607 l 25
457 607 m 25
 457 693 l 25
 543 693 l 25
 543 607 l 25
 457 607 l 25
57 507 m 25
 57 593 l 25
 143 593 l 25
 143 507 l 25
 57 507 l 25
457 507 m 25
 457 593 l 25
 543 593 l 25
 543 507 l 25
 457 507 l 25
157 407 m 25
 157 493 l 25
 243 493 l 25
 243 407 l 25
 157 407 l 25
357 407 m 25
 357 493 l 25
 443 493 l 25
 443 407 l 25
 357 407 l 25
257 307 m 25
 257 393 l 25
 343 393 l 25
 343 307 l 25
 257 307 l 25
257 207 m 25
 257 293 l 25
 343 293 l 25
 343 207 l 25
 257 207 l 25
257 107 m 25
 257 193 l 25
 343 193 l 25
 343 107 l 25
 257 107 l 25
257 7 m 25
 257 93 l 25
 343 93 l 25
 343 7 l 25
 257 7 l 25
EndSplineSet
EndChar

StartChar: Z
Encoding: 90 90 58
Width: 600
Flags: HMW
AnchorPoint: "marks_below" 300 0 basechar 0
AnchorPoint: "marks_above" 300 800 basechar 0
LayerCount: 2
Fore
SplineSet
57 607 m 25
 57 693 l 25
 143 693 l 25
 143 607 l 25
 57 607 l 25
157 607 m 25
 157 693 l 25
 243 693 l 25
 243 607 l 25
 157 607 l 25
257 607 m 25
 257 693 l 25
 343 693 l 25
 343 607 l 25
 257 607 l 25
357 607 m 25
 357 693 l 25
 443 693 l 25
 443 607 l 25
 357 607 l 25
457 607 m 25
 457 693 l 25
 543 693 l 25
 543 607 l 25
 457 607 l 25
457 507 m 25
 457 593 l 25
 543 593 l 25
 543 507 l 25
 457 507 l 25
357 407 m 25
 357 493 l 25
 443 493 l 25
 443 407 l 25
 357 407 l 25
257 307 m 25
 257 393 l 25
 343 393 l 25
 343 307 l 25
 257 307 l 25
157 207 m 25
 157 293 l 25
 243 293 l 25
 243 207 l 25
 157 207 l 25
57 107 m 25
 57 193 l 25
 143 193 l 25
 143 107 l 25
 57 107 l 25
57 7 m 25
 57 93 l 25
 143 93 l 25
 143 7 l 25
 57 7 l 25
157 7 m 25
 157 93 l 25
 243 93 l 25
 243 7 l 25
 157 7 l 25
257 7 m 25
 257 93 l 25
 343 93 l 25
 343 7 l 25
 257 7 l 25
357 7 m 25
 357 93 l 25
 443 93 l 25
 443 7 l 25
 357 7 l 25
457 7 m 25
 457 93 l 25
 543 93 l 25
 543 7 l 25
 457 7 l 25
EndSplineSet
EndChar

StartChar: bracketleft
Encoding: 91 91 59
Width: 400
Flags: HMW
LayerCount: 2
Fore
SplineSet
57 607 m 25
 57 693 l 25
 143 693 l 25
 143 607 l 25
 57 607 l 25
157 607 m 25
 157 693 l 25
 243 693 l 25
 243 607 l 25
 157 607 l 25
257 607 m 25
 257 693 l 25
 343 693 l 25
 343 607 l 25
 257 607 l 25
57 507 m 25
 57 593 l 25
 143 593 l 25
 143 507 l 25
 57 507 l 25
57 407 m 25
 57 493 l 25
 143 493 l 25
 143 407 l 25
 57 407 l 25
57 307 m 25
 57 393 l 25
 143 393 l 25
 143 307 l 25
 57 307 l 25
57 207 m 25
 57 293 l 25
 143 293 l 25
 143 207 l 25
 57 207 l 25
57 107 m 25
 57 193 l 25
 143 193 l 25
 143 107 l 25
 57 107 l 25
57 7 m 25
 57 93 l 25
 143 93 l 25
 143 7 l 25
 57 7 l 25
157 7 m 25
 157 93 l 25
 243 93 l 25
 243 7 l 25
 157 7 l 25
257 7 m 25
 257 93 l 25
 343 93 l 25
 343 7 l 25
 257 7 l 25
EndSplineSet
EndChar

StartChar: backslash
Encoding: 92 92 60
Width: 600
Flags: HMW
LayerCount: 2
Fore
SplineSet
57 507 m 25
 57 593 l 25
 143 593 l 25
 143 507 l 25
 57 507 l 25
157 407 m 25
 157 493 l 25
 243 493 l 25
 243 407 l 25
 157 407 l 25
257 307 m 25
 257 393 l 25
 343 393 l 25
 343 307 l 25
 257 307 l 25
357 207 m 25
 357 293 l 25
 443 293 l 25
 443 207 l 25
 357 207 l 25
457 107 m 25
 457 193 l 25
 543 193 l 25
 543 107 l 25
 457 107 l 25
EndSplineSet
EndChar

StartChar: bracketright
Encoding: 93 93 61
Width: 400
Flags: HMW
LayerCount: 2
Fore
SplineSet
57 607 m 25
 57 693 l 25
 143 693 l 25
 143 607 l 25
 57 607 l 25
157 607 m 25
 157 693 l 25
 243 693 l 25
 243 607 l 25
 157 607 l 25
257 607 m 25
 257 693 l 25
 343 693 l 25
 343 607 l 25
 257 607 l 25
257 507 m 25
 257 593 l 25
 343 593 l 25
 343 507 l 25
 257 507 l 25
257 407 m 25
 257 493 l 25
 343 493 l 25
 343 407 l 25
 257 407 l 25
257 307 m 25
 257 393 l 25
 343 393 l 25
 343 307 l 25
 257 307 l 25
257 207 m 25
 257 293 l 25
 343 293 l 25
 343 207 l 25
 257 207 l 25
257 107 m 25
 257 193 l 25
 343 193 l 25
 343 107 l 25
 257 107 l 25
57 7 m 25
 57 93 l 25
 143 93 l 25
 143 7 l 25
 57 7 l 25
157 7 m 25
 157 93 l 25
 243 93 l 25
 243 7 l 25
 157 7 l 25
257 7 m 25
 257 93 l 25
 343 93 l 25
 343 7 l 25
 257 7 l 25
EndSplineSet
EndChar

StartChar: asciicircum
Encoding: 94 94 62
Width: 600
Flags: HMW
LayerCount: 2
Fore
SplineSet
257 607 m 25
 257 693 l 25
 343 693 l 25
 343 607 l 25
 257 607 l 25
157 507 m 25
 157 593 l 25
 243 593 l 25
 243 507 l 25
 157 507 l 25
357 507 m 25
 357 593 l 25
 443 593 l 25
 443 507 l 25
 357 507 l 25
57 407 m 25
 57 493 l 25
 143 493 l 25
 143 407 l 25
 57 407 l 25
457 407 m 25
 457 493 l 25
 543 493 l 25
 543 407 l 25
 457 407 l 25
EndSplineSet
EndChar

StartChar: underscore
Encoding: 95 95 63
Width: 600
Flags: HMW
LayerCount: 2
Fore
SplineSet
7 -93 m 25
 7 -7 l 25
 93 -7 l 25
 93 -93 l 25
 7 -93 l 25
107 -93 m 25
 107 -7 l 25
 193 -7 l 25
 193 -93 l 25
 107 -93 l 25
207 -93 m 25
 207 -7 l 25
 293 -7 l 25
 293 -93 l 25
 207 -93 l 25
307 -93 m 25
 307 -7 l 25
 393 -7 l 25
 393 -93 l 25
 307 -93 l 25
407 -93 m 25
 407 -7 l 25
 493 -7 l 25
 493 -93 l 25
 407 -93 l 25
507 -93 m 25
 507 -7 l 25
 593 -7 l 25
 593 -93 l 25
 507 -93 l 25
EndSplineSet
EndChar

StartChar: grave
Encoding: 96 96 64
Width: 300
Flags: HMW
LayerCount: 2
Fore
SplineSet
57 607 m 25
 57 693 l 25
 143 693 l 25
 143 607 l 25
 57 607 l 25
157 507 m 25
 157 593 l 25
 243 593 l 25
 243 507 l 25
 157 507 l 25
EndSplineSet
EndChar

StartChar: a
Encoding: 97 97 65
Width: 600
Flags: HMW
AnchorPoint: "ogonek" 400 0 basechar 0
AnchorPoint: "marks_below" 300 0 basechar 0
AnchorPoint: "marks_above" 300 600 basechar 0
LayerCount: 2
Fore
SplineSet
157 407 m 25
 157 493 l 25
 243 493 l 25
 243 407 l 25
 157 407 l 25
257 407 m 25
 257 493 l 25
 343 493 l 25
 343 407 l 25
 257 407 l 25
357 407 m 25
 357 493 l 25
 443 493 l 25
 443 407 l 25
 357 407 l 25
457 307 m 25
 457 393 l 25
 543 393 l 25
 543 307 l 25
 457 307 l 25
157 207 m 25
 157 293 l 25
 243 293 l 25
 243 207 l 25
 157 207 l 25
257 207 m 25
 257 293 l 25
 343 293 l 25
 343 207 l 25
 257 207 l 25
357 207 m 25
 357 293 l 25
 443 293 l 25
 443 207 l 25
 357 207 l 25
457 207 m 25
 457 293 l 25
 543 293 l 25
 543 207 l 25
 457 207 l 25
57 107 m 25
 57 193 l 25
 143 193 l 25
 143 107 l 25
 57 107 l 25
457 107 m 25
 457 193 l 25
 543 193 l 25
 543 107 l 25
 457 107 l 25
157 7 m 25
 157 93 l 25
 243 93 l 25
 243 7 l 25
 157 7 l 25
257 7 m 25
 257 93 l 25
 343 93 l 25
 343 7 l 25
 257 7 l 25
357 7 m 25
 357 93 l 25
 443 93 l 25
 443 7 l 25
 357 7 l 25
457 7 m 25
 457 93 l 25
 543 93 l 25
 543 7 l 25
 457 7 l 25
EndSplineSet
EndChar

StartChar: b
Encoding: 98 98 66
Width: 600
Flags: HMW
AnchorPoint: "marks_below" 300 0 basechar 0
AnchorPoint: "marks_above" 300 800 basechar 0
LayerCount: 2
Fore
SplineSet
57 607 m 25
 57 693 l 25
 143 693 l 25
 143 607 l 25
 57 607 l 25
57 507 m 25
 57 593 l 25
 143 593 l 25
 143 507 l 25
 57 507 l 25
57 407 m 25
 57 493 l 25
 143 493 l 25
 143 407 l 25
 57 407 l 25
257 407 m 25
 257 493 l 25
 343 493 l 25
 343 407 l 25
 257 407 l 25
357 407 m 25
 357 493 l 25
 443 493 l 25
 443 407 l 25
 357 407 l 25
57 307 m 25
 57 393 l 25
 143 393 l 25
 143 307 l 25
 57 307 l 25
157 307 m 25
 157 393 l 25
 243 393 l 25
 243 307 l 25
 157 307 l 25
457 307 m 25
 457 393 l 25
 543 393 l 25
 543 307 l 25
 457 307 l 25
57 207 m 25
 57 293 l 25
 143 293 l 25
 143 207 l 25
 57 207 l 25
457 207 m 25
 457 293 l 25
 543 293 l 25
 543 207 l 25
 457 207 l 25
57 107 m 25
 57 193 l 25
 143 193 l 25
 143 107 l 25
 57 107 l 25
157 107 m 25
 157 193 l 25
 243 193 l 25
 243 107 l 25
 157 107 l 25
457 107 m 25
 457 193 l 25
 543 193 l 25
 543 107 l 25
 457 107 l 25
57 7 m 25
 57 93 l 25
 143 93 l 25
 143 7 l 25
 57 7 l 25
257 7 m 25
 257 93 l 25
 343 93 l 25
 343 7 l 25
 257 7 l 25
357 7 m 25
 357 93 l 25
 443 93 l 25
 443 7 l 25
 357 7 l 25
EndSplineSet
EndChar

StartChar: c
Encoding: 99 99 67
Width: 600
Flags: HMW
AnchorPoint: "marks_below" 300 0 basechar 0
AnchorPoint: "marks_above" 300 600 basechar 0
LayerCount: 2
Fore
SplineSet
157 407 m 25
 157 493 l 25
 243 493 l 25
 243 407 l 25
 157 407 l 25
257 407 m 25
 257 493 l 25
 343 493 l 25
 343 407 l 25
 257 407 l 25
357 407 m 25
 357 493 l 25
 443 493 l 25
 443 407 l 25
 357 407 l 25
57 307 m 25
 57 393 l 25
 143 393 l 25
 143 307 l 25
 57 307 l 25
457 307 m 25
 457 393 l 25
 543 393 l 25
 543 307 l 25
 457 307 l 25
57 207 m 25
 57 293 l 25
 143 293 l 25
 143 207 l 25
 57 207 l 25
57 107 m 25
 57 193 l 25
 143 193 l 25
 143 107 l 25
 57 107 l 25
457 107 m 25
 457 193 l 25
 543 193 l 25
 543 107 l 25
 457 107 l 25
157 7 m 25
 157 93 l 25
 243 93 l 25
 243 7 l 25
 157 7 l 25
257 7 m 25
 257 93 l 25
 343 93 l 25
 343 7 l 25
 257 7 l 25
357 7 m 25
 357 93 l 25
 443 93 l 25
 443 7 l 25
 357 7 l 25
EndSplineSet
EndChar

StartChar: d
Encoding: 100 100 68
Width: 600
Flags: HMW
AnchorPoint: "marks_aboveright" 650 500 basechar 0
AnchorPoint: "marks_below" 300 0 basechar 0
AnchorPoint: "marks_above" 300 800 basechar 0
LayerCount: 2
Fore
SplineSet
457 607 m 25
 457 693 l 25
 543 693 l 25
 543 607 l 25
 457 607 l 25
457 507 m 25
 457 593 l 25
 543 593 l 25
 543 507 l 25
 457 507 l 25
157 407 m 25
 157 493 l 25
 243 493 l 25
 243 407 l 25
 157 407 l 25
257 407 m 25
 257 493 l 25
 343 493 l 25
 343 407 l 25
 257 407 l 25
457 407 m 25
 457 493 l 25
 543 493 l 25
 543 407 l 25
 457 407 l 25
57 307 m 25
 57 393 l 25
 143 393 l 25
 143 307 l 25
 57 307 l 25
357 307 m 25
 357 393 l 25
 443 393 l 25
 443 307 l 25
 357 307 l 25
457 307 m 25
 457 393 l 25
 543 393 l 25
 543 307 l 25
 457 307 l 25
57 207 m 25
 57 293 l 25
 143 293 l 25
 143 207 l 25
 57 207 l 25
457 207 m 25
 457 293 l 25
 543 293 l 25
 543 207 l 25
 457 207 l 25
57 107 m 25
 57 193 l 25
 143 193 l 25
 143 107 l 25
 57 107 l 25
357 107 m 25
 357 193 l 25
 443 193 l 25
 443 107 l 25
 357 107 l 25
457 107 m 25
 457 193 l 25
 543 193 l 25
 543 107 l 25
 457 107 l 25
157 7 m 25
 157 93 l 25
 243 93 l 25
 243 7 l 25
 157 7 l 25
257 7 m 25
 257 93 l 25
 343 93 l 25
 343 7 l 25
 257 7 l 25
457 7 m 25
 457 93 l 25
 543 93 l 25
 543 7 l 25
 457 7 l 25
EndSplineSet
EndChar

StartChar: e
Encoding: 101 101 69
Width: 600
Flags: HMW
AnchorPoint: "ogonek" 400 0 basechar 0
AnchorPoint: "marks_below" 300 0 basechar 0
AnchorPoint: "marks_above" 300 600 basechar 0
LayerCount: 2
Fore
SplineSet
157 407 m 25
 157 493 l 25
 243 493 l 25
 243 407 l 25
 157 407 l 25
257 407 m 25
 257 493 l 25
 343 493 l 25
 343 407 l 25
 257 407 l 25
357 407 m 25
 357 493 l 25
 443 493 l 25
 443 407 l 25
 357 407 l 25
57 307 m 25
 57 393 l 25
 143 393 l 25
 143 307 l 25
 57 307 l 25
457 307 m 25
 457 393 l 25
 543 393 l 25
 543 307 l 25
 457 307 l 25
57 207 m 25
 57 293 l 25
 143 293 l 25
 143 207 l 25
 57 207 l 25
157 207 m 25
 157 293 l 25
 243 293 l 25
 243 207 l 25
 157 207 l 25
257 207 m 25
 257 293 l 25
 343 293 l 25
 343 207 l 25
 257 207 l 25
357 207 m 25
 357 293 l 25
 443 293 l 25
 443 207 l 25
 357 207 l 25
457 207 m 25
 457 293 l 25
 543 293 l 25
 543 207 l 25
 457 207 l 25
57 107 m 25
 57 193 l 25
 143 193 l 25
 143 107 l 25
 57 107 l 25
157 7 m 25
 157 93 l 25
 243 93 l 25
 243 7 l 25
 157 7 l 25
257 7 m 25
 257 93 l 25
 343 93 l 25
 343 7 l 25
 257 7 l 25
357 7 m 25
 357 93 l 25
 443 93 l 25
 443 7 l 25
 357 7 l 25
EndSplineSet
EndChar

StartChar: f
Encoding: 102 102 70
Width: 600
Flags: HMW
AnchorPoint: "marks_below" 300 0 basechar 0
AnchorPoint: "marks_above" 300 800 basechar 0
LayerCount: 2
Fore
SplineSet
257 607 m 25
 257 693 l 25
 343 693 l 25
 343 607 l 25
 257 607 l 25
357 607 m 25
 357 693 l 25
 443 693 l 25
 443 607 l 25
 357 607 l 25
157 507 m 25
 157 593 l 25
 243 593 l 25
 243 507 l 25
 157 507 l 25
457 507 m 25
 457 593 l 25
 543 593 l 25
 543 507 l 25
 457 507 l 25
157 407 m 25
 157 493 l 25
 243 493 l 25
 243 407 l 25
 157 407 l 25
57 307 m 25
 57 393 l 25
 143 393 l 25
 143 307 l 25
 57 307 l 25
157 307 m 25
 157 393 l 25
 243 393 l 25
 243 307 l 25
 157 307 l 25
257 307 m 25
 257 393 l 25
 343 393 l 25
 343 307 l 25
 257 307 l 25
357 307 m 25
 357 393 l 25
 443 393 l 25
 443 307 l 25
 357 307 l 25
157 207 m 25
 157 293 l 25
 243 293 l 25
 243 207 l 25
 157 207 l 25
157 107 m 25
 157 193 l 25
 243 193 l 25
 243 107 l 25
 157 107 l 25
157 7 m 25
 157 93 l 25
 243 93 l 25
 243 7 l 25
 157 7 l 25
EndSplineSet
EndChar

StartChar: g
Encoding: 103 103 71
Width: 600
Flags: HMW
AnchorPoint: "marks_above" 300 600 basechar 0
LayerCount: 2
Fore
SplineSet
157 407 m 25
 157 493 l 25
 243 493 l 25
 243 407 l 25
 157 407 l 25
257 407 m 25
 257 493 l 25
 343 493 l 25
 343 407 l 25
 257 407 l 25
457 407 m 25
 457 493 l 25
 543 493 l 25
 543 407 l 25
 457 407 l 25
57 307 m 25
 57 393 l 25
 143 393 l 25
 143 307 l 25
 57 307 l 25
357 307 m 25
 357 393 l 25
 443 393 l 25
 443 307 l 25
 357 307 l 25
457 307 m 25
 457 393 l 25
 543 393 l 25
 543 307 l 25
 457 307 l 25
57 207 m 25
 57 293 l 25
 143 293 l 25
 143 207 l 25
 57 207 l 25
457 207 m 25
 457 293 l 25
 543 293 l 25
 543 207 l 25
 457 207 l 25
57 107 m 25
 57 193 l 25
 143 193 l 25
 143 107 l 25
 57 107 l 25
357 107 m 25
 357 193 l 25
 443 193 l 25
 443 107 l 25
 357 107 l 25
457 107 m 25
 457 193 l 25
 543 193 l 25
 543 107 l 25
 457 107 l 25
157 7 m 25
 157 93 l 25
 243 93 l 25
 243 7 l 25
 157 7 l 25
257 7 m 25
 257 93 l 25
 343 93 l 25
 343 7 l 25
 257 7 l 25
457 7 m 25
 457 93 l 25
 543 93 l 25
 543 7 l 25
 457 7 l 25
457 -93 m 25
 457 -7 l 25
 543 -7 l 25
 543 -93 l 25
 457 -93 l 25
157 -193 m 25
 157 -107 l 25
 243 -107 l 25
 243 -193 l 25
 157 -193 l 25
257 -193 m 25
 257 -107 l 25
 343 -107 l 25
 343 -193 l 25
 257 -193 l 25
357 -193 m 25
 357 -107 l 25
 443 -107 l 25
 443 -193 l 25
 357 -193 l 25
EndSplineSet
EndChar

StartChar: h
Encoding: 104 104 72
Width: 600
Flags: HMW
AnchorPoint: "marks_below" 300 0 basechar 0
AnchorPoint: "marks_above" 300 800 basechar 0
LayerCount: 2
Fore
SplineSet
57 607 m 25
 57 693 l 25
 143 693 l 25
 143 607 l 25
 57 607 l 25
57 507 m 25
 57 593 l 25
 143 593 l 25
 143 507 l 25
 57 507 l 25
57 407 m 25
 57 493 l 25
 143 493 l 25
 143 407 l 25
 57 407 l 25
257 407 m 25
 257 493 l 25
 343 493 l 25
 343 407 l 25
 257 407 l 25
357 407 m 25
 357 493 l 25
 443 493 l 25
 443 407 l 25
 357 407 l 25
57 307 m 25
 57 393 l 25
 143 393 l 25
 143 307 l 25
 57 307 l 25
157 307 m 25
 157 393 l 25
 243 393 l 25
 243 307 l 25
 157 307 l 25
457 307 m 25
 457 393 l 25
 543 393 l 25
 543 307 l 25
 457 307 l 25
57 207 m 25
 57 293 l 25
 143 293 l 25
 143 207 l 25
 57 207 l 25
457 207 m 25
 457 293 l 25
 543 293 l 25
 543 207 l 25
 457 207 l 25
57 107 m 25
 57 193 l 25
 143 193 l 25
 143 107 l 25
 57 107 l 25
457 107 m 25
 457 193 l 25
 543 193 l 25
 543 107 l 25
 457 107 l 25
57 7 m 25
 57 93 l 25
 143 93 l 25
 143 7 l 25
 57 7 l 25
457 7 m 25
 457 93 l 25
 543 93 l 25
 543 7 l 25
 457 7 l 25
EndSplineSet
EndChar

StartChar: i
Encoding: 105 105 73
Width: 400
Flags: HMW
AnchorPoint: "marks_below" 200 0 basechar 0
AnchorPoint: "ogonek" 200 0 basechar 0
AnchorPoint: "marks_above" 200 800 basechar 0
LayerCount: 2
Fore
SplineSet
157 607 m 25
 157 693 l 25
 243 693 l 25
 243 607 l 25
 157 607 l 25
57 407 m 25
 57 493 l 25
 143 493 l 25
 143 407 l 25
 57 407 l 25
157 407 m 25
 157 493 l 25
 243 493 l 25
 243 407 l 25
 157 407 l 25
157 307 m 25
 157 393 l 25
 243 393 l 25
 243 307 l 25
 157 307 l 25
157 207 m 25
 157 293 l 25
 243 293 l 25
 243 207 l 25
 157 207 l 25
157 107 m 25
 157 193 l 25
 243 193 l 25
 243 107 l 25
 157 107 l 25
57 7 m 25
 57 93 l 25
 143 93 l 25
 143 7 l 25
 57 7 l 25
157 7 m 25
 157 93 l 25
 243 93 l 25
 243 7 l 25
 157 7 l 25
257 7 m 25
 257 93 l 25
 343 93 l 25
 343 7 l 25
 257 7 l 25
EndSplineSet
EndChar

StartChar: j
Encoding: 106 106 74
Width: 500
Flags: HMW
LayerCount: 2
Fore
SplineSet
357 607 m 25
 357 693 l 25
 443 693 l 25
 443 607 l 25
 357 607 l 25
257 407 m 25
 257 493 l 25
 343 493 l 25
 343 407 l 25
 257 407 l 25
357 407 m 25
 357 493 l 25
 443 493 l 25
 443 407 l 25
 357 407 l 25
357 307 m 25
 357 393 l 25
 443 393 l 25
 443 307 l 25
 357 307 l 25
357 207 m 25
 357 293 l 25
 443 293 l 25
 443 207 l 25
 357 207 l 25
357 107 m 25
 357 193 l 25
 443 193 l 25
 443 107 l 25
 357 107 l 25
357 7 m 25
 357 93 l 25
 443 93 l 25
 443 7 l 25
 357 7 l 25
57 -93 m 25
 57 -7 l 25
 143 -7 l 25
 143 -93 l 25
 57 -93 l 25
357 -93 m 25
 357 -7 l 25
 443 -7 l 25
 443 -93 l 25
 357 -93 l 25
157 -193 m 25
 157 -107 l 25
 243 -107 l 25
 243 -193 l 25
 157 -193 l 25
257 -193 m 25
 257 -107 l 25
 343 -107 l 25
 343 -193 l 25
 257 -193 l 25
EndSplineSet
EndChar

StartChar: k
Encoding: 107 107 75
Width: 600
Flags: HMW
AnchorPoint: "marks_below" 300 0 basechar 0
AnchorPoint: "marks_above" 300 800 basechar 0
LayerCount: 2
Fore
SplineSet
57 607 m 25
 57 693 l 25
 143 693 l 25
 143 607 l 25
 57 607 l 25
57 507 m 25
 57 593 l 25
 143 593 l 25
 143 507 l 25
 57 507 l 25
57 407 m 25
 57 493 l 25
 143 493 l 25
 143 407 l 25
 57 407 l 25
457 407 m 25
 457 493 l 25
 543 493 l 25
 543 407 l 25
 457 407 l 25
57 307 m 25
 57 393 l 25
 143 393 l 25
 143 307 l 25
 57 307 l 25
357 307 m 25
 357 393 l 25
 443 393 l 25
 443 307 l 25
 357 307 l 25
57 207 m 25
 57 293 l 25
 143 293 l 25
 143 207 l 25
 57 207 l 25
157 207 m 25
 157 293 l 25
 243 293 l 25
 243 207 l 25
 157 207 l 25
257 207 m 25
 257 293 l 25
 343 293 l 25
 343 207 l 25
 257 207 l 25
57 107 m 25
 57 193 l 25
 143 193 l 25
 143 107 l 25
 57 107 l 25
357 107 m 25
 357 193 l 25
 443 193 l 25
 443 107 l 25
 357 107 l 25
57 7 m 25
 57 93 l 25
 143 93 l 25
 143 7 l 25
 57 7 l 25
457 7 m 25
 457 93 l 25
 543 93 l 25
 543 7 l 25
 457 7 l 25
EndSplineSet
EndChar

StartChar: l
Encoding: 108 108 76
Width: 400
Flags: HMW
AnchorPoint: "marks_aboveright" 350 500 basechar 0
AnchorPoint: "marks_below" 200 0 basechar 0
AnchorPoint: "ogonek" 200 0 basechar 0
AnchorPoint: "marks_above" 200 800 basechar 0
LayerCount: 2
Fore
SplineSet
57 607 m 25
 57 693 l 25
 143 693 l 25
 143 607 l 25
 57 607 l 25
157 607 m 25
 157 693 l 25
 243 693 l 25
 243 607 l 25
 157 607 l 25
157 507 m 25
 157 593 l 25
 243 593 l 25
 243 507 l 25
 157 507 l 25
157 407 m 25
 157 493 l 25
 243 493 l 25
 243 407 l 25
 157 407 l 25
157 307 m 25
 157 393 l 25
 243 393 l 25
 243 307 l 25
 157 307 l 25
157 207 m 25
 157 293 l 25
 243 293 l 25
 243 207 l 25
 157 207 l 25
157 107 m 25
 157 193 l 25
 243 193 l 25
 243 107 l 25
 157 107 l 25
57 7 m 25
 57 93 l 25
 143 93 l 25
 143 7 l 25
 57 7 l 25
157 7 m 25
 157 93 l 25
 243 93 l 25
 243 7 l 25
 157 7 l 25
257 7 m 25
 257 93 l 25
 343 93 l 25
 343 7 l 25
 257 7 l 25
EndSplineSet
EndChar

StartChar: m
Encoding: 109 109 77
Width: 600
Flags: HMW
AnchorPoint: "marks_below" 300 0 basechar 0
AnchorPoint: "marks_above" 300 600 basechar 0
LayerCount: 2
Fore
SplineSet
57 407 m 25
 57 493 l 25
 143 493 l 25
 143 407 l 25
 57 407 l 25
157 407 m 25
 157 493 l 25
 243 493 l 25
 243 407 l 25
 157 407 l 25
357 407 m 25
 357 493 l 25
 443 493 l 25
 443 407 l 25
 357 407 l 25
57 307 m 25
 57 393 l 25
 143 393 l 25
 143 307 l 25
 57 307 l 25
257 307 m 25
 257 393 l 25
 343 393 l 25
 343 307 l 25
 257 307 l 25
457 307 m 25
 457 393 l 25
 543 393 l 25
 543 307 l 25
 457 307 l 25
57 207 m 25
 57 293 l 25
 143 293 l 25
 143 207 l 25
 57 207 l 25
257 207 m 25
 257 293 l 25
 343 293 l 25
 343 207 l 25
 257 207 l 25
457 207 m 25
 457 293 l 25
 543 293 l 25
 543 207 l 25
 457 207 l 25
57 107 m 25
 57 193 l 25
 143 193 l 25
 143 107 l 25
 57 107 l 25
257 107 m 25
 257 193 l 25
 343 193 l 25
 343 107 l 25
 257 107 l 25
457 107 m 25
 457 193 l 25
 543 193 l 25
 543 107 l 25
 457 107 l 25
57 7 m 25
 57 93 l 25
 143 93 l 25
 143 7 l 25
 57 7 l 25
457 7 m 25
 457 93 l 25
 543 93 l 25
 543 7 l 25
 457 7 l 25
EndSplineSet
EndChar

StartChar: n
Encoding: 110 110 78
Width: 600
Flags: HMW
AnchorPoint: "marks_below" 300 0 basechar 0
AnchorPoint: "marks_above" 300 600 basechar 0
LayerCount: 2
Fore
SplineSet
57 407 m 25
 57 493 l 25
 143 493 l 25
 143 407 l 25
 57 407 l 25
257 407 m 25
 257 493 l 25
 343 493 l 25
 343 407 l 25
 257 407 l 25
357 407 m 25
 357 493 l 25
 443 493 l 25
 443 407 l 25
 357 407 l 25
57 307 m 25
 57 393 l 25
 143 393 l 25
 143 307 l 25
 57 307 l 25
157 307 m 25
 157 393 l 25
 243 393 l 25
 243 307 l 25
 157 307 l 25
457 307 m 25
 457 393 l 25
 543 393 l 25
 543 307 l 25
 457 307 l 25
57 207 m 25
 57 293 l 25
 143 293 l 25
 143 207 l 25
 57 207 l 25
457 207 m 25
 457 293 l 25
 543 293 l 25
 543 207 l 25
 457 207 l 25
57 107 m 25
 57 193 l 25
 143 193 l 25
 143 107 l 25
 57 107 l 25
457 107 m 25
 457 193 l 25
 543 193 l 25
 543 107 l 25
 457 107 l 25
57 7 m 25
 57 93 l 25
 143 93 l 25
 143 7 l 25
 57 7 l 25
457 7 m 25
 457 93 l 25
 543 93 l 25
 543 7 l 25
 457 7 l 25
EndSplineSet
EndChar

StartChar: o
Encoding: 111 111 79
Width: 600
Flags: HMW
AnchorPoint: "marks_below" 300 0 basechar 0
AnchorPoint: "marks_above" 300 600 basechar 0
LayerCount: 2
Fore
SplineSet
157 407 m 25
 157 493 l 25
 243 493 l 25
 243 407 l 25
 157 407 l 25
257 407 m 25
 257 493 l 25
 343 493 l 25
 343 407 l 25
 257 407 l 25
357 407 m 25
 357 493 l 25
 443 493 l 25
 443 407 l 25
 357 407 l 25
57 307 m 25
 57 393 l 25
 143 393 l 25
 143 307 l 25
 57 307 l 25
457 307 m 25
 457 393 l 25
 543 393 l 25
 543 307 l 25
 457 307 l 25
57 207 m 25
 57 293 l 25
 143 293 l 25
 143 207 l 25
 57 207 l 25
457 207 m 25
 457 293 l 25
 543 293 l 25
 543 207 l 25
 457 207 l 25
57 107 m 25
 57 193 l 25
 143 193 l 25
 143 107 l 25
 57 107 l 25
457 107 m 25
 457 193 l 25
 543 193 l 25
 543 107 l 25
 457 107 l 25
157 7 m 25
 157 93 l 25
 243 93 l 25
 243 7 l 25
 157 7 l 25
257 7 m 25
 257 93 l 25
 343 93 l 25
 343 7 l 25
 257 7 l 25
357 7 m 25
 357 93 l 25
 443 93 l 25
 443 7 l 25
 357 7 l 25
EndSplineSet
EndChar

StartChar: p
Encoding: 112 112 80
Width: 600
Flags: HMW
AnchorPoint: "marks_above" 300 600 basechar 0
LayerCount: 2
Fore
SplineSet
57 407 m 25
 57 493 l 25
 143 493 l 25
 143 407 l 25
 57 407 l 25
257 407 m 25
 257 493 l 25
 343 493 l 25
 343 407 l 25
 257 407 l 25
357 407 m 25
 357 493 l 25
 443 493 l 25
 443 407 l 25
 357 407 l 25
57 307 m 25
 57 393 l 25
 143 393 l 25
 143 307 l 25
 57 307 l 25
157 307 m 25
 157 393 l 25
 243 393 l 25
 243 307 l 25
 157 307 l 25
457 307 m 25
 457 393 l 25
 543 393 l 25
 543 307 l 25
 457 307 l 25
57 207 m 25
 57 293 l 25
 143 293 l 25
 143 207 l 25
 57 207 l 25
457 207 m 25
 457 293 l 25
 543 293 l 25
 543 207 l 25
 457 207 l 25
57 107 m 25
 57 193 l 25
 143 193 l 25
 143 107 l 25
 57 107 l 25
157 107 m 25
 157 193 l 25
 243 193 l 25
 243 107 l 25
 157 107 l 25
457 107 m 25
 457 193 l 25
 543 193 l 25
 543 107 l 25
 457 107 l 25
57 7 m 25
 57 93 l 25
 143 93 l 25
 143 7 l 25
 57 7 l 25
257 7 m 25
 257 93 l 25
 343 93 l 25
 343 7 l 25
 257 7 l 25
357 7 m 25
 357 93 l 25
 443 93 l 25
 443 7 l 25
 357 7 l 25
57 -93 m 25
 57 -7 l 25
 143 -7 l 25
 143 -93 l 25
 57 -93 l 25
57 -193 m 25
 57 -107 l 25
 143 -107 l 25
 143 -193 l 25
 57 -193 l 25
EndSplineSet
EndChar

StartChar: q
Encoding: 113 113 81
Width: 600
Flags: HMW
AnchorPoint: "marks_above" 300 600 basechar 0
LayerCount: 2
Fore
SplineSet
157 407 m 25
 157 493 l 25
 243 493 l 25
 243 407 l 25
 157 407 l 25
257 407 m 25
 257 493 l 25
 343 493 l 25
 343 407 l 25
 257 407 l 25
457 407 m 25
 457 493 l 25
 543 493 l 25
 543 407 l 25
 457 407 l 25
57 307 m 25
 57 393 l 25
 143 393 l 25
 143 307 l 25
 57 307 l 25
357 307 m 25
 357 393 l 25
 443 393 l 25
 443 307 l 25
 357 307 l 25
457 307 m 25
 457 393 l 25
 543 393 l 25
 543 307 l 25
 457 307 l 25
57 207 m 25
 57 293 l 25
 143 293 l 25
 143 207 l 25
 57 207 l 25
457 207 m 25
 457 293 l 25
 543 293 l 25
 543 207 l 25
 457 207 l 25
57 107 m 25
 57 193 l 25
 143 193 l 25
 143 107 l 25
 57 107 l 25
357 107 m 25
 357 193 l 25
 443 193 l 25
 443 107 l 25
 357 107 l 25
457 107 m 25
 457 193 l 25
 543 193 l 25
 543 107 l 25
 457 107 l 25
157 7 m 25
 157 93 l 25
 243 93 l 25
 243 7 l 25
 157 7 l 25
257 7 m 25
 257 93 l 25
 343 93 l 25
 343 7 l 25
 257 7 l 25
457 7 m 25
 457 93 l 25
 543 93 l 25
 543 7 l 25
 457 7 l 25
457 -93 m 25
 457 -7 l 25
 543 -7 l 25
 543 -93 l 25
 457 -93 l 25
457 -193 m 25
 457 -107 l 25
 543 -107 l 25
 543 -193 l 25
 457 -193 l 25
EndSplineSet
EndChar

StartChar: r
Encoding: 114 114 82
Width: 600
Flags: HMW
AnchorPoint: "marks_below" 300 0 basechar 0
AnchorPoint: "marks_above" 300 600 basechar 0
LayerCount: 2
Fore
SplineSet
57 407 m 25
 57 493 l 25
 143 493 l 25
 143 407 l 25
 57 407 l 25
257 407 m 25
 257 493 l 25
 343 493 l 25
 343 407 l 25
 257 407 l 25
357 407 m 25
 357 493 l 25
 443 493 l 25
 443 407 l 25
 357 407 l 25
57 307 m 25
 57 393 l 25
 143 393 l 25
 143 307 l 25
 57 307 l 25
157 307 m 25
 157 393 l 25
 243 393 l 25
 243 307 l 25
 157 307 l 25
457 307 m 25
 457 393 l 25
 543 393 l 25
 543 307 l 25
 457 307 l 25
57 207 m 25
 57 293 l 25
 143 293 l 25
 143 207 l 25
 57 207 l 25
57 107 m 25
 57 193 l 25
 143 193 l 25
 143 107 l 25
 57 107 l 25
57 7 m 25
 57 93 l 25
 143 93 l 25
 143 7 l 25
 57 7 l 25
EndSplineSet
EndChar

StartChar: s
Encoding: 115 115 83
Width: 600
Flags: HMW
AnchorPoint: "marks_below" 300 0 basechar 0
AnchorPoint: "marks_above" 300 600 basechar 0
LayerCount: 2
Fore
SplineSet
157 407 m 25
 157 493 l 25
 243 493 l 25
 243 407 l 25
 157 407 l 25
257 407 m 25
 257 493 l 25
 343 493 l 25
 343 407 l 25
 257 407 l 25
357 407 m 25
 357 493 l 25
 443 493 l 25
 443 407 l 25
 357 407 l 25
457 407 m 25
 457 493 l 25
 543 493 l 25
 543 407 l 25
 457 407 l 25
57 307 m 25
 57 393 l 25
 143 393 l 25
 143 307 l 25
 57 307 l 25
157 207 m 25
 157 293 l 25
 243 293 l 25
 243 207 l 25
 157 207 l 25
257 207 m 25
 257 293 l 25
 343 293 l 25
 343 207 l 25
 257 207 l 25
357 207 m 25
 357 293 l 25
 443 293 l 25
 443 207 l 25
 357 207 l 25
457 107 m 25
 457 193 l 25
 543 193 l 25
 543 107 l 25
 457 107 l 25
57 7 m 25
 57 93 l 25
 143 93 l 25
 143 7 l 25
 57 7 l 25
157 7 m 25
 157 93 l 25
 243 93 l 25
 243 7 l 25
 157 7 l 25
257 7 m 25
 257 93 l 25
 343 93 l 25
 343 7 l 25
 257 7 l 25
357 7 m 25
 357 93 l 25
 443 93 l 25
 443 7 l 25
 357 7 l 25
EndSplineSet
EndChar

StartChar: t
Encoding: 116 116 84
Width: 600
Flags: HMW
AnchorPoint: "marks_aboveright" 350 600 basechar 0
AnchorPoint: "marks_below" 300 0 basechar 0
AnchorPoint: "marks_above" 300 800 basechar 0
LayerCount: 2
Fore
SplineSet
157 607 m 25
 157 693 l 25
 243 693 l 25
 243 607 l 25
 157 607 l 25
157 507 m 25
 157 593 l 25
 243 593 l 25
 243 507 l 25
 157 507 l 25
57 407 m 25
 57 493 l 25
 143 493 l 25
 143 407 l 25
 57 407 l 25
157 407 m 25
 157 493 l 25
 243 493 l 25
 243 407 l 25
 157 407 l 25
257 407 m 25
 257 493 l 25
 343 493 l 25
 343 407 l 25
 257 407 l 25
357 407 m 25
 357 493 l 25
 443 493 l 25
 443 407 l 25
 357 407 l 25
157 307 m 25
 157 393 l 25
 243 393 l 25
 243 307 l 25
 157 307 l 25
157 207 m 25
 157 293 l 25
 243 293 l 25
 243 207 l 25
 157 207 l 25
157 107 m 25
 157 193 l 25
 243 193 l 25
 243 107 l 25
 157 107 l 25
457 107 m 25
 457 193 l 25
 543 193 l 25
 543 107 l 25
 457 107 l 25
257 7 m 25
 257 93 l 25
 343 93 l 25
 343 7 l 25
 257 7 l 25
357 7 m 25
 357 93 l 25
 443 93 l 25
 443 7 l 25
 357 7 l 25
EndSplineSet
EndChar

StartChar: u
Encoding: 117 117 85
Width: 600
Flags: HMW
AnchorPoint: "ogonek" 400 0 basechar 0
AnchorPoint: "marks_below" 300 0 basechar 0
AnchorPoint: "marks_above" 300 600 basechar 0
LayerCount: 2
Fore
SplineSet
57 407 m 25
 57 493 l 25
 143 493 l 25
 143 407 l 25
 57 407 l 25
457 407 m 25
 457 493 l 25
 543 493 l 25
 543 407 l 25
 457 407 l 25
57 307 m 25
 57 393 l 25
 143 393 l 25
 143 307 l 25
 57 307 l 25
457 307 m 25
 457 393 l 25
 543 393 l 25
 543 307 l 25
 457 307 l 25
57 207 m 25
 57 293 l 25
 143 293 l 25
 143 207 l 25
 57 207 l 25
457 207 m 25
 457 293 l 25
 543 293 l 25
 543 207 l 25
 457 207 l 25
57 107 m 25
 57 193 l 25
 143 193 l 25
 143 107 l 25
 57 107 l 25
357 107 m 25
 357 193 l 25
 443 193 l 25
 443 107 l 25
 357 107 l 25
457 107 m 25
 457 193 l 25
 543 193 l 25
 543 107 l 25
 457 107 l 25
157 7 m 25
 157 93 l 25
 243 93 l 25
 243 7 l 25
 157 7 l 25
257 7 m 25
 257 93 l 25
 343 93 l 25
 343 7 l 25
 257 7 l 25
457 7 m 25
 457 93 l 25
 543 93 l 25
 543 7 l 25
 457 7 l 25
EndSplineSet
EndChar

StartChar: v
Encoding: 118 118 86
Width: 600
Flags: HMW
AnchorPoint: "marks_below" 300 0 basechar 0
AnchorPoint: "marks_above" 300 600 basechar 0
LayerCount: 2
Fore
SplineSet
57 407 m 25
 57 493 l 25
 143 493 l 25
 143 407 l 25
 57 407 l 25
457 407 m 25
 457 493 l 25
 543 493 l 25
 543 407 l 25
 457 407 l 25
57 307 m 25
 57 393 l 25
 143 393 l 25
 143 307 l 25
 57 307 l 25
457 307 m 25
 457 393 l 25
 543 393 l 25
 543 307 l 25
 457 307 l 25
57 207 m 25
 57 293 l 25
 143 293 l 25
 143 207 l 25
 57 207 l 25
457 207 m 25
 457 293 l 25
 543 293 l 25
 543 207 l 25
 457 207 l 25
157 107 m 25
 157 193 l 25
 243 193 l 25
 243 107 l 25
 157 107 l 25
357 107 m 25
 357 193 l 25
 443 193 l 25
 443 107 l 25
 357 107 l 25
257 7 m 25
 257 93 l 25
 343 93 l 25
 343 7 l 25
 257 7 l 25
EndSplineSet
EndChar

StartChar: w
Encoding: 119 119 87
Width: 600
Flags: HMW
AnchorPoint: "marks_below" 300 0 basechar 0
AnchorPoint: "marks_above" 300 600 basechar 0
LayerCount: 2
Fore
SplineSet
57 407 m 25
 57 493 l 25
 143 493 l 25
 143 407 l 25
 57 407 l 25
457 407 m 25
 457 493 l 25
 543 493 l 25
 543 407 l 25
 457 407 l 25
57 307 m 25
 57 393 l 25
 143 393 l 25
 143 307 l 25
 57 307 l 25
257 307 m 25
 257 393 l 25
 343 393 l 25
 343 307 l 25
 257 307 l 25
457 307 m 25
 457 393 l 25
 543 393 l 25
 543 307 l 25
 457 307 l 25
57 207 m 25
 57 293 l 25
 143 293 l 25
 143 207 l 25
 57 207 l 25
257 207 m 25
 257 293 l 25
 343 293 l 25
 343 207 l 25
 257 207 l 25
457 207 m 25
 457 293 l 25
 543 293 l 25
 543 207 l 25
 457 207 l 25
57 107 m 25
 57 193 l 25
 143 193 l 25
 143 107 l 25
 57 107 l 25
257 107 m 25
 257 193 l 25
 343 193 l 25
 343 107 l 25
 257 107 l 25
457 107 m 25
 457 193 l 25
 543 193 l 25
 543 107 l 25
 457 107 l 25
157 7 m 25
 157 93 l 25
 243 93 l 25
 243 7 l 25
 157 7 l 25
357 7 m 25
 357 93 l 25
 443 93 l 25
 443 7 l 25
 357 7 l 25
EndSplineSet
EndChar

StartChar: x
Encoding: 120 120 88
Width: 600
Flags: HMW
AnchorPoint: "marks_below" 300 0 basechar 0
AnchorPoint: "marks_above" 300 600 basechar 0
LayerCount: 2
Fore
SplineSet
57 407 m 25
 57 493 l 25
 143 493 l 25
 143 407 l 25
 57 407 l 25
457 407 m 25
 457 493 l 25
 543 493 l 25
 543 407 l 25
 457 407 l 25
157 307 m 25
 157 393 l 25
 243 393 l 25
 243 307 l 25
 157 307 l 25
357 307 m 25
 357 393 l 25
 443 393 l 25
 443 307 l 25
 357 307 l 25
257 207 m 25
 257 293 l 25
 343 293 l 25
 343 207 l 25
 257 207 l 25
157 107 m 25
 157 193 l 25
 243 193 l 25
 243 107 l 25
 157 107 l 25
357 107 m 25
 357 193 l 25
 443 193 l 25
 443 107 l 25
 357 107 l 25
57 7 m 25
 57 93 l 25
 143 93 l 25
 143 7 l 25
 57 7 l 25
457 7 m 25
 457 93 l 25
 543 93 l 25
 543 7 l 25
 457 7 l 25
EndSplineSet
EndChar

StartChar: y
Encoding: 121 121 89
Width: 600
Flags: HMW
AnchorPoint: "marks_above" 300 600 basechar 0
LayerCount: 2
Fore
SplineSet
57 407 m 25
 57 493 l 25
 143 493 l 25
 143 407 l 25
 57 407 l 25
457 407 m 25
 457 493 l 25
 543 493 l 25
 543 407 l 25
 457 407 l 25
57 307 m 25
 57 393 l 25
 143 393 l 25
 143 307 l 25
 57 307 l 25
457 307 m 25
 457 393 l 25
 543 393 l 25
 543 307 l 25
 457 307 l 25
57 207 m 25
 57 293 l 25
 143 293 l 25
 143 207 l 25
 57 207 l 25
457 207 m 25
 457 293 l 25
 543 293 l 25
 543 207 l 25
 457 207 l 25
57 107 m 25
 57 193 l 25
 143 193 l 25
 143 107 l 25
 57 107 l 25
357 107 m 25
 357 193 l 25
 443 193 l 25
 443 107 l 25
 357 107 l 25
457 107 m 25
 457 193 l 25
 543 193 l 25
 543 107 l 25
 457 107 l 25
157 7 m 25
 157 93 l 25
 243 93 l 25
 243 7 l 25
 157 7 l 25
257 7 m 25
 257 93 l 25
 343 93 l 25
 343 7 l 25
 257 7 l 25
457 7 m 25
 457 93 l 25
 543 93 l 25
 543 7 l 25
 457 7 l 25
457 -93 m 25
 457 -7 l 25
 543 -7 l 25
 543 -93 l 25
 457 -93 l 25
157 -193 m 25
 157 -107 l 25
 243 -107 l 25
 243 -193 l 25
 157 -193 l 25
257 -193 m 25
 257 -107 l 25
 343 -107 l 25
 343 -193 l 25
 257 -193 l 25
357 -193 m 25
 357 -107 l 25
 443 -107 l 25
 443 -193 l 25
 357 -193 l 25
EndSplineSet
EndChar

StartChar: z
Encoding: 122 122 90
Width: 600
Flags: HMW
AnchorPoint: "marks_below" 300 0 basechar 0
AnchorPoint: "marks_above" 300 600 basechar 0
LayerCount: 2
Fore
SplineSet
57 407 m 25
 57 493 l 25
 143 493 l 25
 143 407 l 25
 57 407 l 25
157 407 m 25
 157 493 l 25
 243 493 l 25
 243 407 l 25
 157 407 l 25
257 407 m 25
 257 493 l 25
 343 493 l 25
 343 407 l 25
 257 407 l 25
357 407 m 25
 357 493 l 25
 443 493 l 25
 443 407 l 25
 357 407 l 25
457 407 m 25
 457 493 l 25
 543 493 l 25
 543 407 l 25
 457 407 l 25
357 307 m 25
 357 393 l 25
 443 393 l 25
 443 307 l 25
 357 307 l 25
257 207 m 25
 257 293 l 25
 343 293 l 25
 343 207 l 25
 257 207 l 25
157 107 m 25
 157 193 l 25
 243 193 l 25
 243 107 l 25
 157 107 l 25
57 7 m 25
 57 93 l 25
 143 93 l 25
 143 7 l 25
 57 7 l 25
157 7 m 25
 157 93 l 25
 243 93 l 25
 243 7 l 25
 157 7 l 25
257 7 m 25
 257 93 l 25
 343 93 l 25
 343 7 l 25
 257 7 l 25
357 7 m 25
 357 93 l 25
 443 93 l 25
 443 7 l 25
 357 7 l 25
457 7 m 25
 457 93 l 25
 543 93 l 25
 543 7 l 25
 457 7 l 25
EndSplineSet
EndChar

StartChar: braceleft
Encoding: 123 123 91
Width: 500
Flags: HMW
LayerCount: 2
Fore
SplineSet
257 607 m 25
 257 693 l 25
 343 693 l 25
 343 607 l 25
 257 607 l 25
357 607 m 25
 357 693 l 25
 443 693 l 25
 443 607 l 25
 357 607 l 25
157 507 m 25
 157 593 l 25
 243 593 l 25
 243 507 l 25
 157 507 l 25
257 407 m 25
 257 493 l 25
 343 493 l 25
 343 407 l 25
 257 407 l 25
57 307 m 25
 57 393 l 25
 143 393 l 25
 143 307 l 25
 57 307 l 25
157 307 m 25
 157 393 l 25
 243 393 l 25
 243 307 l 25
 157 307 l 25
257 207 m 25
 257 293 l 25
 343 293 l 25
 343 207 l 25
 257 207 l 25
157 107 m 25
 157 193 l 25
 243 193 l 25
 243 107 l 25
 157 107 l 25
257 7 m 25
 257 93 l 25
 343 93 l 25
 343 7 l 25
 257 7 l 25
357 7 m 25
 357 93 l 25
 443 93 l 25
 443 7 l 25
 357 7 l 25
EndSplineSet
EndChar

StartChar: bar
Encoding: 124 124 92
Width: 200
Flags: HMW
LayerCount: 2
Fore
SplineSet
57 607 m 25
 57 693 l 25
 143 693 l 25
 143 607 l 25
 57 607 l 25
57 507 m 25
 57 593 l 25
 143 593 l 25
 143 507 l 25
 57 507 l 25
57 407 m 25
 57 493 l 25
 143 493 l 25
 143 407 l 25
 57 407 l 25
57 307 m 25
 57 393 l 25
 143 393 l 25
 143 307 l 25
 57 307 l 25
57 207 m 25
 57 293 l 25
 143 293 l 25
 143 207 l 25
 57 207 l 25
57 107 m 25
 57 193 l 25
 143 193 l 25
 143 107 l 25
 57 107 l 25
57 7 m 25
 57 93 l 25
 143 93 l 25
 143 7 l 25
 57 7 l 25
EndSplineSet
EndChar

StartChar: braceright
Encoding: 125 125 93
Width: 500
Flags: HMW
LayerCount: 2
Fore
SplineSet
57 607 m 25
 57 693 l 25
 143 693 l 25
 143 607 l 25
 57 607 l 25
157 607 m 25
 157 693 l 25
 243 693 l 25
 243 607 l 25
 157 607 l 25
257 507 m 25
 257 593 l 25
 343 593 l 25
 343 507 l 25
 257 507 l 25
157 407 m 25
 157 493 l 25
 243 493 l 25
 243 407 l 25
 157 407 l 25
257 307 m 25
 257 393 l 25
 343 393 l 25
 343 307 l 25
 257 307 l 25
357 307 m 25
 357 393 l 25
 443 393 l 25
 443 307 l 25
 357 307 l 25
157 207 m 25
 157 293 l 25
 243 293 l 25
 243 207 l 25
 157 207 l 25
257 107 m 25
 257 193 l 25
 343 193 l 25
 343 107 l 25
 257 107 l 25
57 7 m 25
 57 93 l 25
 143 93 l 25
 143 7 l 25
 57 7 l 25
157 7 m 25
 157 93 l 25
 243 93 l 25
 243 7 l 25
 157 7 l 25
EndSplineSet
EndChar

StartChar: asciitilde
Encoding: 126 126 94
Width: 600
Flags: HMW
LayerCount: 2
Fore
SplineSet
157 407 m 25
 157 493 l 25
 243 493 l 25
 243 407 l 25
 157 407 l 25
457 407 m 25
 457 493 l 25
 543 493 l 25
 543 407 l 25
 457 407 l 25
57 307 m 25
 57 393 l 25
 143 393 l 25
 143 307 l 25
 57 307 l 25
257 307 m 25
 257 393 l 25
 343 393 l 25
 343 307 l 25
 257 307 l 25
457 307 m 25
 457 393 l 25
 543 393 l 25
 543 307 l 25
 457 307 l 25
57 207 m 25
 57 293 l 25
 143 293 l 25
 143 207 l 25
 57 207 l 25
357 207 m 25
 357 293 l 25
 443 293 l 25
 443 207 l 25
 357 207 l 25
EndSplineSet
EndChar

StartChar: .notdef
Encoding: 1114113 -1 95
Width: 601
VWidth: 0
Flags: HMW
LayerCount: 2
Fore
SplineSet
550 0 m 1
 50 0 l 1
 50 700 l 1
 550 700 l 1
 550 0 l 1
130 70 m 1
 470 70 l 1
 470 630 l 1
 130 630 l 1
 130 70 l 1
EndSplineSet
EndChar

StartChar: exclamdown
Encoding: 161 161 96
Width: 200
Flags: HMW
LayerCount: 2
Fore
SplineSet
57 407 m 25
 57 493 l 25
 143 493 l 25
 143 407 l 25
 57 407 l 25
57 207 m 25
 57 293 l 25
 143 293 l 25
 143 207 l 25
 57 207 l 25
57 107 m 25
 57 193 l 25
 143 193 l 25
 143 107 l 25
 57 107 l 25
57 7 m 25
 57 93 l 25
 143 93 l 25
 143 7 l 25
 57 7 l 25
57 -93 m 25
 57 -7 l 25
 143 -7 l 25
 143 -93 l 25
 57 -93 l 25
57 -193 m 25
 57 -107 l 25
 143 -107 l 25
 143 -193 l 25
 57 -193 l 25
EndSplineSet
EndChar

StartChar: cent
Encoding: 162 162 97
Width: 600
Flags: HMW
LayerCount: 2
Fore
SplineSet
257 607 m 25
 257 693 l 25
 343 693 l 25
 343 607 l 25
 257 607 l 25
157 507 m 25
 157 593 l 25
 243 593 l 25
 243 507 l 25
 157 507 l 25
257 507 m 25
 257 593 l 25
 343 593 l 25
 343 507 l 25
 257 507 l 25
357 507 m 25
 357 593 l 25
 443 593 l 25
 443 507 l 25
 357 507 l 25
57 407 m 25
 57 493 l 25
 143 493 l 25
 143 407 l 25
 57 407 l 25
257 407 m 25
 257 493 l 25
 343 493 l 25
 343 407 l 25
 257 407 l 25
457 407 m 25
 457 493 l 25
 543 493 l 25
 543 407 l 25
 457 407 l 25
57 307 m 25
 57 393 l 25
 143 393 l 25
 143 307 l 25
 57 307 l 25
257 307 m 25
 257 393 l 25
 343 393 l 25
 343 307 l 25
 257 307 l 25
57 207 m 25
 57 293 l 25
 143 293 l 25
 143 207 l 25
 57 207 l 25
257 207 m 25
 257 293 l 25
 343 293 l 25
 343 207 l 25
 257 207 l 25
457 207 m 25
 457 293 l 25
 543 293 l 25
 543 207 l 25
 457 207 l 25
157 107 m 25
 157 193 l 25
 243 193 l 25
 243 107 l 25
 157 107 l 25
257 107 m 25
 257 193 l 25
 343 193 l 25
 343 107 l 25
 257 107 l 25
357 107 m 25
 357 193 l 25
 443 193 l 25
 443 107 l 25
 357 107 l 25
257 7 m 25
 257 93 l 25
 343 93 l 25
 343 7 l 25
 257 7 l 25
EndSplineSet
EndChar

StartChar: sterling
Encoding: 163 163 98
Width: 600
Flags: HMW
LayerCount: 2
Fore
SplineSet
257 607 m 25
 257 693 l 25
 343 693 l 25
 343 607 l 25
 257 607 l 25
357 607 m 25
 357 693 l 25
 443 693 l 25
 443 607 l 25
 357 607 l 25
157 507 m 25
 157 593 l 25
 243 593 l 25
 243 507 l 25
 157 507 l 25
457 507 m 25
 457 593 l 25
 543 593 l 25
 543 507 l 25
 457 507 l 25
157 407 m 25
 157 493 l 25
 243 493 l 25
 243 407 l 25
 157 407 l 25
57 307 m 25
 57 393 l 25
 143 393 l 25
 143 307 l 25
 57 307 l 25
157 307 m 25
 157 393 l 25
 243 393 l 25
 243 307 l 25
 157 307 l 25
257 307 m 25
 257 393 l 25
 343 393 l 25
 343 307 l 25
 257 307 l 25
157 207 m 25
 157 293 l 25
 243 293 l 25
 243 207 l 25
 157 207 l 25
157 107 m 25
 157 193 l 25
 243 193 l 25
 243 107 l 25
 157 107 l 25
57 7 m 25
 57 93 l 25
 143 93 l 25
 143 7 l 25
 57 7 l 25
157 7 m 25
 157 93 l 25
 243 93 l 25
 243 7 l 25
 157 7 l 25
257 7 m 25
 257 93 l 25
 343 93 l 25
 343 7 l 25
 257 7 l 25
357 7 m 25
 357 93 l 25
 443 93 l 25
 443 7 l 25
 357 7 l 25
457 7 m 25
 457 93 l 25
 543 93 l 25
 543 7 l 25
 457 7 l 25
EndSplineSet
EndChar

StartChar: currency
Encoding: 164 164 99
Width: 600
Flags: HMW
LayerCount: 2
Fore
SplineSet
57 507 m 25
 57 593 l 25
 143 593 l 25
 143 507 l 25
 57 507 l 25
457 507 m 25
 457 593 l 25
 543 593 l 25
 543 507 l 25
 457 507 l 25
157 407 m 25
 157 493 l 25
 243 493 l 25
 243 407 l 25
 157 407 l 25
257 407 m 25
 257 493 l 25
 343 493 l 25
 343 407 l 25
 257 407 l 25
357 407 m 25
 357 493 l 25
 443 493 l 25
 443 407 l 25
 357 407 l 25
157 307 m 25
 157 393 l 25
 243 393 l 25
 243 307 l 25
 157 307 l 25
357 307 m 25
 357 393 l 25
 443 393 l 25
 443 307 l 25
 357 307 l 25
157 207 m 25
 157 293 l 25
 243 293 l 25
 243 207 l 25
 157 207 l 25
257 207 m 25
 257 293 l 25
 343 293 l 25
 343 207 l 25
 257 207 l 25
357 207 m 25
 357 293 l 25
 443 293 l 25
 443 207 l 25
 357 207 l 25
57 107 m 25
 57 193 l 25
 143 193 l 25
 143 107 l 25
 57 107 l 25
457 107 m 25
 457 193 l 25
 543 193 l 25
 543 107 l 25
 457 107 l 25
EndSplineSet
EndChar

StartChar: yen
Encoding: 165 165 100
Width: 600
Flags: HMW
LayerCount: 2
Fore
SplineSet
57 607 m 25
 57 693 l 25
 143 693 l 25
 143 607 l 25
 57 607 l 25
457 607 m 25
 457 693 l 25
 543 693 l 25
 543 607 l 25
 457 607 l 25
157 507 m 25
 157 593 l 25
 243 593 l 25
 243 507 l 25
 157 507 l 25
357 507 m 25
 357 593 l 25
 443 593 l 25
 443 507 l 25
 357 507 l 25
257 407 m 25
 257 493 l 25
 343 493 l 25
 343 407 l 25
 257 407 l 25
157 307 m 25
 157 393 l 25
 243 393 l 25
 243 307 l 25
 157 307 l 25
257 307 m 25
 257 393 l 25
 343 393 l 25
 343 307 l 25
 257 307 l 25
357 307 m 25
 357 393 l 25
 443 393 l 25
 443 307 l 25
 357 307 l 25
255 209 m 25
 255 295 l 25
 341 295 l 25
 341 209 l 25
 255 209 l 25
157 107 m 25
 157 193 l 25
 243 193 l 25
 243 107 l 25
 157 107 l 25
257 107 m 25
 257 193 l 25
 343 193 l 25
 343 107 l 25
 257 107 l 25
357 107 m 25
 357 193 l 25
 443 193 l 25
 443 107 l 25
 357 107 l 25
257 7 m 25
 257 93 l 25
 343 93 l 25
 343 7 l 25
 257 7 l 25
EndSplineSet
EndChar

StartChar: brokenbar
Encoding: 166 166 101
Width: 200
Flags: HMW
LayerCount: 2
Fore
SplineSet
57 607 m 25
 57 693 l 25
 143 693 l 25
 143 607 l 25
 57 607 l 25
57 507 m 25
 57 593 l 25
 143 593 l 25
 143 507 l 25
 57 507 l 25
57 407 m 25
 57 493 l 25
 143 493 l 25
 143 407 l 25
 57 407 l 25
57 207 m 25
 57 293 l 25
 143 293 l 25
 143 207 l 25
 57 207 l 25
57 107 m 25
 57 193 l 25
 143 193 l 25
 143 107 l 25
 57 107 l 25
57 7 m 25
 57 93 l 25
 143 93 l 25
 143 7 l 25
 57 7 l 25
EndSplineSet
EndChar

StartChar: section
Encoding: 167 167 102
Width: 600
Flags: HMW
LayerCount: 2
Fore
SplineSet
157 607 m 25
 157 693 l 25
 243 693 l 25
 243 607 l 25
 157 607 l 25
257 607 m 25
 257 693 l 25
 343 693 l 25
 343 607 l 25
 257 607 l 25
357 607 m 25
 357 693 l 25
 443 693 l 25
 443 607 l 25
 357 607 l 25
57 507 m 25
 57 593 l 25
 143 593 l 25
 143 507 l 25
 57 507 l 25
457 507 m 25
 457 593 l 25
 543 593 l 25
 543 507 l 25
 457 507 l 25
57 407 m 25
 57 493 l 25
 143 493 l 25
 143 407 l 25
 57 407 l 25
157 307 m 25
 157 393 l 25
 243 393 l 25
 243 307 l 25
 157 307 l 25
257 307 m 25
 257 393 l 25
 343 393 l 25
 343 307 l 25
 257 307 l 25
357 307 m 25
 357 393 l 25
 443 393 l 25
 443 307 l 25
 357 307 l 25
57 207 m 25
 57 293 l 25
 143 293 l 25
 143 207 l 25
 57 207 l 25
457 207 m 25
 457 293 l 25
 543 293 l 25
 543 207 l 25
 457 207 l 25
157 107 m 25
 157 193 l 25
 243 193 l 25
 243 107 l 25
 157 107 l 25
257 107 m 25
 257 193 l 25
 343 193 l 25
 343 107 l 25
 257 107 l 25
357 107 m 25
 357 193 l 25
 443 193 l 25
 443 107 l 25
 357 107 l 25
457 7 m 25
 457 93 l 25
 543 93 l 25
 543 7 l 25
 457 7 l 25
57 -93 m 25
 57 -7 l 25
 143 -7 l 25
 143 -93 l 25
 57 -93 l 25
457 -93 m 25
 457 -7 l 25
 543 -7 l 25
 543 -93 l 25
 457 -93 l 25
157 -193 m 25
 157 -107 l 25
 243 -107 l 25
 243 -193 l 25
 157 -193 l 25
257 -193 m 25
 257 -107 l 25
 343 -107 l 25
 343 -193 l 25
 257 -193 l 25
357 -193 m 25
 357 -107 l 25
 443 -107 l 25
 443 -193 l 25
 357 -193 l 25
EndSplineSet
EndChar

StartChar: dieresis
Encoding: 168 168 103
Width: 400
Flags: HMW
LayerCount: 2
Fore
SplineSet
57 607 m 25
 57 693 l 25
 143 693 l 25
 143 607 l 25
 57 607 l 25
257 607 m 25
 257 693 l 25
 343 693 l 25
 343 607 l 25
 257 607 l 25
EndSplineSet
EndChar

StartChar: copyright
Encoding: 169 169 104
Width: 900
Flags: HMW
LayerCount: 2
Fore
SplineSet
257 607 m 25
 257 693 l 25
 343 693 l 25
 343 607 l 25
 257 607 l 25
357 607 m 25
 357 693 l 25
 443 693 l 25
 443 607 l 25
 357 607 l 25
457 607 m 25
 457 693 l 25
 543 693 l 25
 543 607 l 25
 457 607 l 25
557 607 m 25
 557 693 l 25
 643 693 l 25
 643 607 l 25
 557 607 l 25
157 507 m 25
 157 593 l 25
 243 593 l 25
 243 507 l 25
 157 507 l 25
657 507 m 25
 657 593 l 25
 743 593 l 25
 743 507 l 25
 657 507 l 25
57 407 m 25
 57 493 l 25
 143 493 l 25
 143 407 l 25
 57 407 l 25
357 407 m 25
 357 493 l 25
 443 493 l 25
 443 407 l 25
 357 407 l 25
457 407 m 25
 457 493 l 25
 543 493 l 25
 543 407 l 25
 457 407 l 25
757 407 m 25
 757 493 l 25
 843 493 l 25
 843 407 l 25
 757 407 l 25
57 307 m 25
 57 393 l 25
 143 393 l 25
 143 307 l 25
 57 307 l 25
257 307 m 25
 257 393 l 25
 343 393 l 25
 343 307 l 25
 257 307 l 25
757 307 m 25
 757 393 l 25
 843 393 l 25
 843 307 l 25
 757 307 l 25
57 207 m 25
 57 293 l 25
 143 293 l 25
 143 207 l 25
 57 207 l 25
257 207 m 25
 257 293 l 25
 343 293 l 25
 343 207 l 25
 257 207 l 25
757 207 m 25
 757 293 l 25
 843 293 l 25
 843 207 l 25
 757 207 l 25
57 107 m 25
 57 193 l 25
 143 193 l 25
 143 107 l 25
 57 107 l 25
357 107 m 25
 357 193 l 25
 443 193 l 25
 443 107 l 25
 357 107 l 25
457 107 m 25
 457 193 l 25
 543 193 l 25
 543 107 l 25
 457 107 l 25
757 107 m 25
 757 193 l 25
 843 193 l 25
 843 107 l 25
 757 107 l 25
157 7 m 25
 157 93 l 25
 243 93 l 25
 243 7 l 25
 157 7 l 25
657 7 m 25
 657 93 l 25
 743 93 l 25
 743 7 l 25
 657 7 l 25
257 -93 m 25
 257 -7 l 25
 343 -7 l 25
 343 -93 l 25
 257 -93 l 25
357 -93 m 25
 357 -7 l 25
 443 -7 l 25
 443 -93 l 25
 357 -93 l 25
457 -93 m 25
 457 -7 l 25
 543 -7 l 25
 543 -93 l 25
 457 -93 l 25
557 -93 m 25
 557 -7 l 25
 643 -7 l 25
 643 -93 l 25
 557 -93 l 25
EndSplineSet
EndChar

StartChar: ordfeminine
Encoding: 170 170 105
Width: 500
Flags: HMW
LayerCount: 2
Fore
SplineSet
157 607 m 25
 157 693 l 25
 243 693 l 25
 243 607 l 25
 157 607 l 25
257 607 m 25
 257 693 l 25
 343 693 l 25
 343 607 l 25
 257 607 l 25
357 607 m 25
 357 693 l 25
 443 693 l 25
 443 607 l 25
 357 607 l 25
57 507 m 25
 57 593 l 25
 143 593 l 25
 143 507 l 25
 57 507 l 25
357 507 m 25
 357 593 l 25
 443 593 l 25
 443 507 l 25
 357 507 l 25
57 407 m 25
 57 493 l 25
 143 493 l 25
 143 407 l 25
 57 407 l 25
357 407 m 25
 357 493 l 25
 443 493 l 25
 443 407 l 25
 357 407 l 25
157 307 m 25
 157 393 l 25
 243 393 l 25
 243 307 l 25
 157 307 l 25
257 307 m 25
 257 393 l 25
 343 393 l 25
 343 307 l 25
 257 307 l 25
357 307 m 25
 357 393 l 25
 443 393 l 25
 443 307 l 25
 357 307 l 25
57 107 m 25
 57 193 l 25
 143 193 l 25
 143 107 l 25
 57 107 l 25
157 107 m 25
 157 193 l 25
 243 193 l 25
 243 107 l 25
 157 107 l 25
257 107 m 25
 257 193 l 25
 343 193 l 25
 343 107 l 25
 257 107 l 25
357 107 m 25
 357 193 l 25
 443 193 l 25
 443 107 l 25
 357 107 l 25
EndSplineSet
EndChar

StartChar: logicalnot
Encoding: 172 172 106
Width: 600
Flags: HMW
LayerCount: 2
Fore
SplineSet
57 307 m 25
 57 393 l 25
 143 393 l 25
 143 307 l 25
 57 307 l 25
157 307 m 25
 157 393 l 25
 243 393 l 25
 243 307 l 25
 157 307 l 25
257 307 m 25
 257 393 l 25
 343 393 l 25
 343 307 l 25
 257 307 l 25
357 307 m 25
 357 393 l 25
 443 393 l 25
 443 307 l 25
 357 307 l 25
457 307 m 25
 457 393 l 25
 543 393 l 25
 543 307 l 25
 457 307 l 25
457 207 m 25
 457 293 l 25
 543 293 l 25
 543 207 l 25
 457 207 l 25
457 107 m 25
 457 193 l 25
 543 193 l 25
 543 107 l 25
 457 107 l 25
EndSplineSet
EndChar

StartChar: registered
Encoding: 174 174 107
Width: 900
Flags: HMW
LayerCount: 2
Fore
SplineSet
257 607 m 25
 257 693 l 25
 343 693 l 25
 343 607 l 25
 257 607 l 25
357 607 m 25
 357 693 l 25
 443 693 l 25
 443 607 l 25
 357 607 l 25
457 607 m 25
 457 693 l 25
 543 693 l 25
 543 607 l 25
 457 607 l 25
557 607 m 25
 557 693 l 25
 643 693 l 25
 643 607 l 25
 557 607 l 25
157 507 m 25
 157 593 l 25
 243 593 l 25
 243 507 l 25
 157 507 l 25
657 507 m 25
 657 593 l 25
 743 593 l 25
 743 507 l 25
 657 507 l 25
57 407 m 25
 57 493 l 25
 143 493 l 25
 143 407 l 25
 57 407 l 25
257 407 m 25
 257 493 l 25
 343 493 l 25
 343 407 l 25
 257 407 l 25
357 407 m 25
 357 493 l 25
 443 493 l 25
 443 407 l 25
 357 407 l 25
457 407 m 25
 457 493 l 25
 543 493 l 25
 543 407 l 25
 457 407 l 25
757 407 m 25
 757 493 l 25
 843 493 l 25
 843 407 l 25
 757 407 l 25
57 307 m 25
 57 393 l 25
 143 393 l 25
 143 307 l 25
 57 307 l 25
257 307 m 25
 257 393 l 25
 343 393 l 25
 343 307 l 25
 257 307 l 25
557 307 m 25
 557 393 l 25
 643 393 l 25
 643 307 l 25
 557 307 l 25
757 307 m 25
 757 393 l 25
 843 393 l 25
 843 307 l 25
 757 307 l 25
57 207 m 25
 57 293 l 25
 143 293 l 25
 143 207 l 25
 57 207 l 25
257 207 m 25
 257 293 l 25
 343 293 l 25
 343 207 l 25
 257 207 l 25
357 207 m 25
 357 293 l 25
 443 293 l 25
 443 207 l 25
 357 207 l 25
457 207 m 25
 457 293 l 25
 543 293 l 25
 543 207 l 25
 457 207 l 25
757 207 m 25
 757 293 l 25
 843 293 l 25
 843 207 l 25
 757 207 l 25
57 107 m 25
 57 193 l 25
 143 193 l 25
 143 107 l 25
 57 107 l 25
257 107 m 25
 257 193 l 25
 343 193 l 25
 343 107 l 25
 257 107 l 25
557 107 m 25
 557 193 l 25
 643 193 l 25
 643 107 l 25
 557 107 l 25
757 107 m 25
 757 193 l 25
 843 193 l 25
 843 107 l 25
 757 107 l 25
157 7 m 25
 157 93 l 25
 243 93 l 25
 243 7 l 25
 157 7 l 25
657 7 m 25
 657 93 l 25
 743 93 l 25
 743 7 l 25
 657 7 l 25
257 -93 m 25
 257 -7 l 25
 343 -7 l 25
 343 -93 l 25
 257 -93 l 25
357 -93 m 25
 357 -7 l 25
 443 -7 l 25
 443 -93 l 25
 357 -93 l 25
457 -93 m 25
 457 -7 l 25
 543 -7 l 25
 543 -93 l 25
 457 -93 l 25
557 -93 m 25
 557 -7 l 25
 643 -7 l 25
 643 -93 l 25
 557 -93 l 25
EndSplineSet
EndChar

StartChar: macron
Encoding: 175 175 108
Width: 400
Flags: HMW
LayerCount: 2
Fore
SplineSet
57 607 m 25
 57 693 l 25
 143 693 l 25
 143 607 l 25
 57 607 l 25
157 607 m 25
 157 693 l 25
 243 693 l 25
 243 607 l 25
 157 607 l 25
257 607 m 25
 257 693 l 25
 343 693 l 25
 343 607 l 25
 257 607 l 25
EndSplineSet
EndChar

StartChar: degree
Encoding: 176 176 109
Width: 500
Flags: HMW
LayerCount: 2
Fore
SplineSet
157 607 m 25
 157 693 l 25
 243 693 l 25
 243 607 l 25
 157 607 l 25
257 607 m 25
 257 693 l 25
 343 693 l 25
 343 607 l 25
 257 607 l 25
57 507 m 25
 57 593 l 25
 143 593 l 25
 143 507 l 25
 57 507 l 25
357 507 m 25
 357 593 l 25
 443 593 l 25
 443 507 l 25
 357 507 l 25
57 407 m 25
 57 493 l 25
 143 493 l 25
 143 407 l 25
 57 407 l 25
357 407 m 25
 357 493 l 25
 443 493 l 25
 443 407 l 25
 357 407 l 25
157 307 m 25
 157 393 l 25
 243 393 l 25
 243 307 l 25
 157 307 l 25
257 307 m 25
 257 393 l 25
 343 393 l 25
 343 307 l 25
 257 307 l 25
EndSplineSet
EndChar

StartChar: uni00B2
Encoding: 178 178 110
Width: 400
Flags: HMW
LayerCount: 2
Fore
SplineSet
57 607 m 25
 57 693 l 25
 143 693 l 25
 143 607 l 25
 57 607 l 25
157 607 m 25
 157 693 l 25
 243 693 l 25
 243 607 l 25
 157 607 l 25
257 507 m 25
 257 593 l 25
 343 593 l 25
 343 507 l 25
 257 507 l 25
157 407 m 25
 157 493 l 25
 243 493 l 25
 243 407 l 25
 157 407 l 25
57 307 m 25
 57 393 l 25
 143 393 l 25
 143 307 l 25
 57 307 l 25
57 207 m 25
 57 293 l 25
 143 293 l 25
 143 207 l 25
 57 207 l 25
157 207 m 25
 157 293 l 25
 243 293 l 25
 243 207 l 25
 157 207 l 25
257 207 m 25
 257 293 l 25
 343 293 l 25
 343 207 l 25
 257 207 l 25
EndSplineSet
EndChar

StartChar: uni00B3
Encoding: 179 179 111
Width: 400
Flags: HMW
LayerCount: 2
Fore
SplineSet
57 607 m 25
 57 693 l 25
 143 693 l 25
 143 607 l 25
 57 607 l 25
157 607 m 25
 157 693 l 25
 243 693 l 25
 243 607 l 25
 157 607 l 25
257 507 m 25
 257 593 l 25
 343 593 l 25
 343 507 l 25
 257 507 l 25
57 407 m 25
 57 493 l 25
 143 493 l 25
 143 407 l 25
 57 407 l 25
157 407 m 25
 157 493 l 25
 243 493 l 25
 243 407 l 25
 157 407 l 25
257 307 m 25
 257 393 l 25
 343 393 l 25
 343 307 l 25
 257 307 l 25
57 207 m 25
 57 293 l 25
 143 293 l 25
 143 207 l 25
 57 207 l 25
157 207 m 25
 157 293 l 25
 243 293 l 25
 243 207 l 25
 157 207 l 25
EndSplineSet
EndChar

StartChar: acute
Encoding: 180 180 112
Width: 300
Flags: HMW
LayerCount: 2
Fore
SplineSet
157 607 m 25
 157 693 l 25
 243 693 l 25
 243 607 l 25
 157 607 l 25
57 507 m 25
 57 593 l 25
 143 593 l 25
 143 507 l 25
 57 507 l 25
EndSplineSet
EndChar

StartChar: mu
Encoding: 181 181 113
Width: 600
Flags: HMW
LayerCount: 2
Fore
SplineSet
57 407 m 25
 57 493 l 25
 143 493 l 25
 143 407 l 25
 57 407 l 25
357 407 m 25
 357 493 l 25
 443 493 l 25
 443 407 l 25
 357 407 l 25
57 307 m 25
 57 393 l 25
 143 393 l 25
 143 307 l 25
 57 307 l 25
357 307 m 25
 357 393 l 25
 443 393 l 25
 443 307 l 25
 357 307 l 25
57 207 m 25
 57 293 l 25
 143 293 l 25
 143 207 l 25
 57 207 l 25
357 207 m 25
 357 293 l 25
 443 293 l 25
 443 207 l 25
 357 207 l 25
57 107 m 25
 57 193 l 25
 143 193 l 25
 143 107 l 25
 57 107 l 25
357 107 m 25
 357 193 l 25
 443 193 l 25
 443 107 l 25
 357 107 l 25
57 7 m 25
 57 93 l 25
 143 93 l 25
 143 7 l 25
 57 7 l 25
157 7 m 25
 157 93 l 25
 243 93 l 25
 243 7 l 25
 157 7 l 25
257 7 m 25
 257 93 l 25
 343 93 l 25
 343 7 l 25
 257 7 l 25
457 7 m 25
 457 93 l 25
 543 93 l 25
 543 7 l 25
 457 7 l 25
57 -93 m 25
 57 -7 l 25
 143 -7 l 25
 143 -93 l 25
 57 -93 l 25
57 -193 m 25
 57 -107 l 25
 143 -107 l 25
 143 -193 l 25
 57 -193 l 25
EndSplineSet
EndChar

StartChar: paragraph
Encoding: 182 182 114
Width: 600
Flags: HMW
LayerCount: 2
Fore
SplineSet
157 607 m 25
 157 693 l 25
 243 693 l 25
 243 607 l 25
 157 607 l 25
257 607 m 25
 257 693 l 25
 343 693 l 25
 343 607 l 25
 257 607 l 25
357 607 m 25
 357 693 l 25
 443 693 l 25
 443 607 l 25
 357 607 l 25
457 607 m 25
 457 693 l 25
 543 693 l 25
 543 607 l 25
 457 607 l 25
57 507 m 25
 57 593 l 25
 143 593 l 25
 143 507 l 25
 57 507 l 25
157 507 m 25
 157 593 l 25
 243 593 l 25
 243 507 l 25
 157 507 l 25
257 507 m 25
 257 593 l 25
 343 593 l 25
 343 507 l 25
 257 507 l 25
457 507 m 25
 457 593 l 25
 543 593 l 25
 543 507 l 25
 457 507 l 25
57 407 m 25
 57 493 l 25
 143 493 l 25
 143 407 l 25
 57 407 l 25
157 407 m 25
 157 493 l 25
 243 493 l 25
 243 407 l 25
 157 407 l 25
257 407 m 25
 257 493 l 25
 343 493 l 25
 343 407 l 25
 257 407 l 25
457 407 m 25
 457 493 l 25
 543 493 l 25
 543 407 l 25
 457 407 l 25
157 307 m 25
 157 393 l 25
 243 393 l 25
 243 307 l 25
 157 307 l 25
257 307 m 25
 257 393 l 25
 343 393 l 25
 343 307 l 25
 257 307 l 25
457 307 m 25
 457 393 l 25
 543 393 l 25
 543 307 l 25
 457 307 l 25
257 207 m 25
 257 293 l 25
 343 293 l 25
 343 207 l 25
 257 207 l 25
457 207 m 25
 457 293 l 25
 543 293 l 25
 543 207 l 25
 457 207 l 25
257 107 m 25
 257 193 l 25
 343 193 l 25
 343 107 l 25
 257 107 l 25
457 107 m 25
 457 193 l 25
 543 193 l 25
 543 107 l 25
 457 107 l 25
257 7 m 25
 257 93 l 25
 343 93 l 25
 343 7 l 25
 257 7 l 25
457 7 m 25
 457 93 l 25
 543 93 l 25
 543 7 l 25
 457 7 l 25
257 -93 m 25
 257 -7 l 25
 343 -7 l 25
 343 -93 l 25
 257 -93 l 25
457 -93 m 25
 457 -7 l 25
 543 -7 l 25
 543 -93 l 25
 457 -93 l 25
257 -193 m 25
 257 -107 l 25
 343 -107 l 25
 343 -193 l 25
 257 -193 l 25
457 -193 m 25
 457 -107 l 25
 543 -107 l 25
 543 -193 l 25
 457 -193 l 25
EndSplineSet
EndChar

StartChar: periodcentered
Encoding: 183 183 115
Width: 200
VWidth: 0
Flags: HMW
LayerCount: 2
Fore
SplineSet
57 307 m 25
 57 393 l 25
 143 393 l 25
 143 307 l 25
 57 307 l 25
EndSplineSet
EndChar

StartChar: cedilla
Encoding: 184 184 116
Width: 300
Flags: HMW
LayerCount: 2
Fore
SplineSet
157 -93 m 25
 157 -7 l 25
 243 -7 l 25
 243 -93 l 25
 157 -93 l 25
57 -193 m 25
 57 -107 l 25
 143 -107 l 25
 143 -193 l 25
 57 -193 l 25
157 -193 m 25
 157 -107 l 25
 243 -107 l 25
 243 -193 l 25
 157 -193 l 25
EndSplineSet
EndChar

StartChar: uni00B9
Encoding: 185 185 117
Width: 400
Flags: HMW
LayerCount: 2
Fore
SplineSet
157 607 m 25
 157 693 l 25
 243 693 l 25
 243 607 l 25
 157 607 l 25
57 507 m 25
 57 593 l 25
 143 593 l 25
 143 507 l 25
 57 507 l 25
157 507 m 25
 157 593 l 25
 243 593 l 25
 243 507 l 25
 157 507 l 25
157 407 m 25
 157 493 l 25
 243 493 l 25
 243 407 l 25
 157 407 l 25
157 307 m 25
 157 393 l 25
 243 393 l 25
 243 307 l 25
 157 307 l 25
57 207 m 25
 57 293 l 25
 143 293 l 25
 143 207 l 25
 57 207 l 25
157 207 m 25
 157 293 l 25
 243 293 l 25
 243 207 l 25
 157 207 l 25
257 207 m 25
 257 293 l 25
 343 293 l 25
 343 207 l 25
 257 207 l 25
EndSplineSet
EndChar

StartChar: ordmasculine
Encoding: 186 186 118
Width: 500
Flags: HMW
LayerCount: 2
Fore
SplineSet
157 607 m 25
 157 693 l 25
 243 693 l 25
 243 607 l 25
 157 607 l 25
257 607 m 25
 257 693 l 25
 343 693 l 25
 343 607 l 25
 257 607 l 25
57 507 m 25
 57 593 l 25
 143 593 l 25
 143 507 l 25
 57 507 l 25
357 507 m 25
 357 593 l 25
 443 593 l 25
 443 507 l 25
 357 507 l 25
57 407 m 25
 57 493 l 25
 143 493 l 25
 143 407 l 25
 57 407 l 25
357 407 m 25
 357 493 l 25
 443 493 l 25
 443 407 l 25
 357 407 l 25
157 307 m 25
 157 393 l 25
 243 393 l 25
 243 307 l 25
 157 307 l 25
257 307 m 25
 257 393 l 25
 343 393 l 25
 343 307 l 25
 257 307 l 25
57 107 m 25
 57 193 l 25
 143 193 l 25
 143 107 l 25
 57 107 l 25
157 107 m 25
 157 193 l 25
 243 193 l 25
 243 107 l 25
 157 107 l 25
257 107 m 25
 257 193 l 25
 343 193 l 25
 343 107 l 25
 257 107 l 25
357 107 m 25
 357 193 l 25
 443 193 l 25
 443 107 l 25
 357 107 l 25
EndSplineSet
EndChar

StartChar: questiondown
Encoding: 191 191 123
Width: 600
Flags: HMW
LayerCount: 2
Fore
SplineSet
257 407 m 25
 257 493 l 25
 343 493 l 25
 343 407 l 25
 257 407 l 25
257 207 m 25
 257 293 l 25
 343 293 l 25
 343 207 l 25
 257 207 l 25
157 107 m 25
 157 193 l 25
 243 193 l 25
 243 107 l 25
 157 107 l 25
257 107 m 25
 257 193 l 25
 343 193 l 25
 343 107 l 25
 257 107 l 25
57 7 m 25
 57 93 l 25
 143 93 l 25
 143 7 l 25
 57 7 l 25
57 -93 m 25
 57 -7 l 25
 143 -7 l 25
 143 -93 l 25
 57 -93 l 25
457 -93 m 25
 457 -7 l 25
 543 -7 l 25
 543 -93 l 25
 457 -93 l 25
157 -193 m 25
 157 -107 l 25
 243 -107 l 25
 243 -193 l 25
 157 -193 l 25
257 -193 m 25
 257 -107 l 25
 343 -107 l 25
 343 -193 l 25
 257 -193 l 25
357 -193 m 25
 357 -107 l 25
 443 -107 l 25
 443 -193 l 25
 357 -193 l 25
EndSplineSet
EndChar

StartChar: AE
Encoding: 198 198 124
Width: 800
Flags: HMW
AnchorPoint: "marks_below" 400 0 basechar 0
AnchorPoint: "marks_above" 400 800 basechar 0
LayerCount: 2
Fore
SplineSet
657 7 m 25
 657 93 l 25
 743 93 l 25
 743 7 l 25
 657 7 l 25
557 7 m 25
 557 93 l 25
 643 93 l 25
 643 7 l 25
 557 7 l 25
457 7 m 25
 457 93 l 25
 543 93 l 25
 543 7 l 25
 457 7 l 25
357 7 m 25
 357 93 l 25
 443 93 l 25
 443 7 l 25
 357 7 l 25
57 7 m 25
 57 93 l 25
 143 93 l 25
 143 7 l 25
 57 7 l 25
357 107 m 25
 357 193 l 25
 443 193 l 25
 443 107 l 25
 357 107 l 25
57 107 m 25
 57 193 l 25
 143 193 l 25
 143 107 l 25
 57 107 l 25
357 207 m 25
 357 293 l 25
 443 293 l 25
 443 207 l 25
 357 207 l 25
257 207 m 25
 257 293 l 25
 343 293 l 25
 343 207 l 25
 257 207 l 25
157 207 m 25
 157 293 l 25
 243 293 l 25
 243 207 l 25
 157 207 l 25
57 207 m 25
 57 293 l 25
 143 293 l 25
 143 207 l 25
 57 207 l 25
557 307 m 25
 557 393 l 25
 643 393 l 25
 643 307 l 25
 557 307 l 25
457 307 m 25
 457 393 l 25
 543 393 l 25
 543 307 l 25
 457 307 l 25
357 307 m 25
 357 393 l 25
 443 393 l 25
 443 307 l 25
 357 307 l 25
57 307 m 25
 57 393 l 25
 143 393 l 25
 143 307 l 25
 57 307 l 25
357 407 m 25
 357 493 l 25
 443 493 l 25
 443 407 l 25
 357 407 l 25
57 407 m 25
 57 493 l 25
 143 493 l 25
 143 407 l 25
 57 407 l 25
357 507 m 25
 357 593 l 25
 443 593 l 25
 443 507 l 25
 357 507 l 25
157 507 m 25
 157 593 l 25
 243 593 l 25
 243 507 l 25
 157 507 l 25
657 607 m 25
 657 693 l 25
 743 693 l 25
 743 607 l 25
 657 607 l 25
557 607 m 25
 557 693 l 25
 643 693 l 25
 643 607 l 25
 557 607 l 25
457 607 m 25
 457 693 l 25
 543 693 l 25
 543 607 l 25
 457 607 l 25
357 607 m 25
 357 693 l 25
 443 693 l 25
 443 607 l 25
 357 607 l 25
257 607 m 25
 257 693 l 25
 343 693 l 25
 343 607 l 25
 257 607 l 25
EndSplineSet
EndChar

StartChar: Eth
Encoding: 208 208 134
Width: 700
Flags: HMW
AnchorPoint: "marks_below" 400 0 basechar 0
AnchorPoint: "marks_above" 400 800 basechar 0
LayerCount: 2
Fore
SplineSet
357 7 m 25
 357 93 l 25
 443 93 l 25
 443 7 l 25
 357 7 l 25
257 7 m 25
 257 93 l 25
 343 93 l 25
 343 7 l 25
 257 7 l 25
157 7 m 25
 157 93 l 25
 243 93 l 25
 243 7 l 25
 157 7 l 25
457 107 m 25
 457 193 l 25
 543 193 l 25
 543 107 l 25
 457 107 l 25
157 107 m 25
 157 193 l 25
 243 193 l 25
 243 107 l 25
 157 107 l 25
557 207 m 25
 557 293 l 25
 643 293 l 25
 643 207 l 25
 557 207 l 25
157 207 m 25
 157 293 l 25
 243 293 l 25
 243 207 l 25
 157 207 l 25
557 307 m 25
 557 393 l 25
 643 393 l 25
 643 307 l 25
 557 307 l 25
257 307 m 25
 257 393 l 25
 343 393 l 25
 343 307 l 25
 257 307 l 25
157 307 m 25
 157 393 l 25
 243 393 l 25
 243 307 l 25
 157 307 l 25
57 307 m 25
 57 393 l 25
 143 393 l 25
 143 307 l 25
 57 307 l 25
557 407 m 25
 557 493 l 25
 643 493 l 25
 643 407 l 25
 557 407 l 25
157 407 m 25
 157 493 l 25
 243 493 l 25
 243 407 l 25
 157 407 l 25
457 507 m 25
 457 593 l 25
 543 593 l 25
 543 507 l 25
 457 507 l 25
157 507 m 25
 157 593 l 25
 243 593 l 25
 243 507 l 25
 157 507 l 25
357 607 m 25
 357 693 l 25
 443 693 l 25
 443 607 l 25
 357 607 l 25
257 607 m 25
 257 693 l 25
 343 693 l 25
 343 607 l 25
 257 607 l 25
157 607 m 25
 157 693 l 25
 243 693 l 25
 243 607 l 25
 157 607 l 25
357 307 m 25
 357 393 l 25
 443 393 l 25
 443 307 l 25
 357 307 l 25
EndSplineSet
EndChar

StartChar: Oslash
Encoding: 216 216 142
Width: 600
Flags: HMW
AnchorPoint: "marks_below" 300 0 basechar 0
AnchorPoint: "marks_above" 300 800 basechar 0
LayerCount: 2
Fore
SplineSet
157 607 m 25
 157 693 l 25
 243 693 l 25
 243 607 l 25
 157 607 l 25
257 607 m 25
 257 693 l 25
 343 693 l 25
 343 607 l 25
 257 607 l 25
357 607 m 25
 357 693 l 25
 443 693 l 25
 443 607 l 25
 357 607 l 25
57 507 m 25
 57 593 l 25
 143 593 l 25
 143 507 l 25
 57 507 l 25
457 507 m 25
 457 593 l 25
 543 593 l 25
 543 507 l 25
 457 507 l 25
57 407 m 25
 57 493 l 25
 143 493 l 25
 143 407 l 25
 57 407 l 25
357 407 m 25
 357 493 l 25
 443 493 l 25
 443 407 l 25
 357 407 l 25
57 307 m 25
 57 393 l 25
 143 393 l 25
 143 307 l 25
 57 307 l 25
257 307 m 25
 257 393 l 25
 343 393 l 25
 343 307 l 25
 257 307 l 25
457 307 m 25
 457 393 l 25
 543 393 l 25
 543 307 l 25
 457 307 l 25
157 207 m 25
 157 293 l 25
 243 293 l 25
 243 207 l 25
 157 207 l 25
457 207 m 25
 457 293 l 25
 543 293 l 25
 543 207 l 25
 457 207 l 25
57 107 m 25
 57 193 l 25
 143 193 l 25
 143 107 l 25
 57 107 l 25
457 107 m 25
 457 193 l 25
 543 193 l 25
 543 107 l 25
 457 107 l 25
157 7 m 25
 157 93 l 25
 243 93 l 25
 243 7 l 25
 157 7 l 25
257 7 m 25
 257 93 l 25
 343 93 l 25
 343 7 l 25
 257 7 l 25
357 7 m 25
 357 93 l 25
 443 93 l 25
 443 7 l 25
 357 7 l 25
EndSplineSet
EndChar

StartChar: Thorn
Encoding: 222 222 148
Width: 600
Flags: HMW
AnchorPoint: "marks_below" 300 0 basechar 0
AnchorPoint: "marks_above" 300 800 basechar 0
LayerCount: 2
Fore
SplineSet
57 607 m 25
 57 693 l 25
 143 693 l 25
 143 607 l 25
 57 607 l 25
57 507 m 25
 57 593 l 25
 143 593 l 25
 143 507 l 25
 57 507 l 25
157 507 m 25
 157 593 l 25
 243 593 l 25
 243 507 l 25
 157 507 l 25
257 507 m 25
 257 593 l 25
 343 593 l 25
 343 507 l 25
 257 507 l 25
357 507 m 25
 357 593 l 25
 443 593 l 25
 443 507 l 25
 357 507 l 25
57 407 m 25
 57 493 l 25
 143 493 l 25
 143 407 l 25
 57 407 l 25
457 407 m 25
 457 493 l 25
 543 493 l 25
 543 407 l 25
 457 407 l 25
57 307 m 25
 57 393 l 25
 143 393 l 25
 143 307 l 25
 57 307 l 25
457 307 m 25
 457 393 l 25
 543 393 l 25
 543 307 l 25
 457 307 l 25
57 207 m 25
 57 293 l 25
 143 293 l 25
 143 207 l 25
 57 207 l 25
457 207 m 25
 457 293 l 25
 543 293 l 25
 543 207 l 25
 457 207 l 25
57 107 m 25
 57 193 l 25
 143 193 l 25
 143 107 l 25
 57 107 l 25
157 107 m 25
 157 193 l 25
 243 193 l 25
 243 107 l 25
 157 107 l 25
257 107 m 25
 257 193 l 25
 343 193 l 25
 343 107 l 25
 257 107 l 25
357 107 m 25
 357 193 l 25
 443 193 l 25
 443 107 l 25
 357 107 l 25
57 7 m 25
 57 93 l 25
 143 93 l 25
 143 7 l 25
 57 7 l 25
EndSplineSet
EndChar

StartChar: germandbls
Encoding: 223 223 149
Width: 600
Flags: HMW
AnchorPoint: "marks_below" 300 0 basechar 0
AnchorPoint: "marks_above" 300 800 basechar 0
LayerCount: 2
Fore
SplineSet
157 607 m 25
 157 693 l 25
 243 693 l 25
 243 607 l 25
 157 607 l 25
257 607 m 25
 257 693 l 25
 343 693 l 25
 343 607 l 25
 257 607 l 25
57 507 m 25
 57 593 l 25
 143 593 l 25
 143 507 l 25
 57 507 l 25
357 507 m 25
 357 593 l 25
 443 593 l 25
 443 507 l 25
 357 507 l 25
57 407 m 25
 57 493 l 25
 143 493 l 25
 143 407 l 25
 57 407 l 25
357 407 m 25
 357 493 l 25
 443 493 l 25
 443 407 l 25
 357 407 l 25
57 307 m 25
 57 393 l 25
 143 393 l 25
 143 307 l 25
 57 307 l 25
257 307 m 25
 257 393 l 25
 343 393 l 25
 343 307 l 25
 257 307 l 25
357 307 m 25
 357 393 l 25
 443 393 l 25
 443 307 l 25
 357 307 l 25
57 207 m 25
 57 293 l 25
 143 293 l 25
 143 207 l 25
 57 207 l 25
457 207 m 25
 457 293 l 25
 543 293 l 25
 543 207 l 25
 457 207 l 25
57 107 m 25
 57 193 l 25
 143 193 l 25
 143 107 l 25
 57 107 l 25
457 107 m 25
 457 193 l 25
 543 193 l 25
 543 107 l 25
 457 107 l 25
57 7 m 25
 57 93 l 25
 143 93 l 25
 143 7 l 25
 57 7 l 25
257 7 m 25
 257 93 l 25
 343 93 l 25
 343 7 l 25
 257 7 l 25
357 7 m 25
 357 93 l 25
 443 93 l 25
 443 7 l 25
 357 7 l 25
EndSplineSet
EndChar

StartChar: ae
Encoding: 230 230 156
Width: 800
Flags: HMW
AnchorPoint: "marks_below" 400 0 basechar 0
AnchorPoint: "marks_above" 400 600 basechar 0
LayerCount: 2
Fore
SplineSet
557 7 m 25
 557 93 l 25
 643 93 l 25
 643 7 l 25
 557 7 l 25
457 7 m 25
 457 93 l 25
 543 93 l 25
 543 7 l 25
 457 7 l 25
257 7 m 25
 257 93 l 25
 343 93 l 25
 343 7 l 25
 257 7 l 25
157 7 m 25
 157 93 l 25
 243 93 l 25
 243 7 l 25
 157 7 l 25
357 107 m 25
 357 193 l 25
 443 193 l 25
 443 107 l 25
 357 107 l 25
57 107 m 25
 57 193 l 25
 143 193 l 25
 143 107 l 25
 57 107 l 25
657 207 m 25
 657 293 l 25
 743 293 l 25
 743 207 l 25
 657 207 l 25
557 207 m 25
 557 293 l 25
 643 293 l 25
 643 207 l 25
 557 207 l 25
457 207 m 25
 457 293 l 25
 543 293 l 25
 543 207 l 25
 457 207 l 25
357 207 m 25
 357 293 l 25
 443 293 l 25
 443 207 l 25
 357 207 l 25
257 207 m 25
 257 293 l 25
 343 293 l 25
 343 207 l 25
 257 207 l 25
157 207 m 25
 157 293 l 25
 243 293 l 25
 243 207 l 25
 157 207 l 25
657 307 m 25
 657 393 l 25
 743 393 l 25
 743 307 l 25
 657 307 l 25
357 307 m 25
 357 393 l 25
 443 393 l 25
 443 307 l 25
 357 307 l 25
557 407 m 25
 557 493 l 25
 643 493 l 25
 643 407 l 25
 557 407 l 25
457 407 m 25
 457 493 l 25
 543 493 l 25
 543 407 l 25
 457 407 l 25
257 407 m 25
 257 493 l 25
 343 493 l 25
 343 407 l 25
 257 407 l 25
157 407 m 25
 157 493 l 25
 243 493 l 25
 243 407 l 25
 157 407 l 25
EndSplineSet
EndChar

StartChar: eth
Encoding: 240 240 166
Width: 600
Flags: HMW
AnchorPoint: "marks_below" 300 0 basechar 0
AnchorPoint: "marks_above" 300 800 basechar 0
LayerCount: 2
Fore
SplineSet
157 607 m 25
 157 693 l 25
 243 693 l 25
 243 607 l 25
 157 607 l 25
257 607 m 25
 257 693 l 25
 343 693 l 25
 343 607 l 25
 257 607 l 25
457 607 m 25
 457 693 l 25
 543 693 l 25
 543 607 l 25
 457 607 l 25
357 507 m 25
 357 593 l 25
 443 593 l 25
 443 507 l 25
 357 507 l 25
257 407 m 25
 257 493 l 25
 343 493 l 25
 343 407 l 25
 257 407 l 25
457 407 m 25
 457 493 l 25
 543 493 l 25
 543 407 l 25
 457 407 l 25
457 307 m 25
 457 393 l 25
 543 393 l 25
 543 307 l 25
 457 307 l 25
157 207 m 25
 157 293 l 25
 243 293 l 25
 243 207 l 25
 157 207 l 25
257 207 m 25
 257 293 l 25
 343 293 l 25
 343 207 l 25
 257 207 l 25
357 207 m 25
 357 293 l 25
 443 293 l 25
 443 207 l 25
 357 207 l 25
457 207 m 25
 457 293 l 25
 543 293 l 25
 543 207 l 25
 457 207 l 25
57 107 m 25
 57 193 l 25
 143 193 l 25
 143 107 l 25
 57 107 l 25
457 107 m 25
 457 193 l 25
 543 193 l 25
 543 107 l 25
 457 107 l 25
157 7 m 25
 157 93 l 25
 243 93 l 25
 243 7 l 25
 157 7 l 25
257 7 m 25
 257 93 l 25
 343 93 l 25
 343 7 l 25
 257 7 l 25
357 7 m 25
 357 93 l 25
 443 93 l 25
 443 7 l 25
 357 7 l 25
EndSplineSet
EndChar

StartChar: oslash
Encoding: 248 248 174
Width: 600
Flags: HMW
AnchorPoint: "marks_below" 300 0 basechar 0
AnchorPoint: "marks_above" 300 600 basechar 0
LayerCount: 2
Fore
SplineSet
157 407 m 25
 157 493 l 25
 243 493 l 25
 243 407 l 25
 157 407 l 25
257 407 m 25
 257 493 l 25
 343 493 l 25
 343 407 l 25
 257 407 l 25
457 407 m 25
 457 493 l 25
 543 493 l 25
 543 407 l 25
 457 407 l 25
57 307 m 25
 57 393 l 25
 143 393 l 25
 143 307 l 25
 57 307 l 25
357 307 m 25
 357 393 l 25
 443 393 l 25
 443 307 l 25
 357 307 l 25
57 207 m 25
 57 293 l 25
 143 293 l 25
 143 207 l 25
 57 207 l 25
257 207 m 25
 257 293 l 25
 343 293 l 25
 343 207 l 25
 257 207 l 25
457 207 m 25
 457 293 l 25
 543 293 l 25
 543 207 l 25
 457 207 l 25
157 107 m 25
 157 193 l 25
 243 193 l 25
 243 107 l 25
 157 107 l 25
457 107 m 25
 457 193 l 25
 543 193 l 25
 543 107 l 25
 457 107 l 25
57 7 m 25
 57 93 l 25
 143 93 l 25
 143 7 l 25
 57 7 l 25
257 7 m 25
 257 93 l 25
 343 93 l 25
 343 7 l 25
 257 7 l 25
357 7 m 25
 357 93 l 25
 443 93 l 25
 443 7 l 25
 357 7 l 25
EndSplineSet
EndChar

StartChar: thorn
Encoding: 254 254 180
Width: 600
Flags: HMW
LayerCount: 2
Fore
SplineSet
57 607 m 25
 57 693 l 25
 143 693 l 25
 143 607 l 25
 57 607 l 25
57 507 m 25
 57 593 l 25
 143 593 l 25
 143 507 l 25
 57 507 l 25
57 407 m 25
 57 493 l 25
 143 493 l 25
 143 407 l 25
 57 407 l 25
257 407 m 25
 257 493 l 25
 343 493 l 25
 343 407 l 25
 257 407 l 25
357 407 m 25
 357 493 l 25
 443 493 l 25
 443 407 l 25
 357 407 l 25
57 307 m 25
 57 393 l 25
 143 393 l 25
 143 307 l 25
 57 307 l 25
157 307 m 25
 157 393 l 25
 243 393 l 25
 243 307 l 25
 157 307 l 25
457 307 m 25
 457 393 l 25
 543 393 l 25
 543 307 l 25
 457 307 l 25
57 207 m 25
 57 293 l 25
 143 293 l 25
 143 207 l 25
 57 207 l 25
457 207 m 25
 457 293 l 25
 543 293 l 25
 543 207 l 25
 457 207 l 25
57 107 m 25
 57 193 l 25
 143 193 l 25
 143 107 l 25
 57 107 l 25
157 107 m 25
 157 193 l 25
 243 193 l 25
 243 107 l 25
 157 107 l 25
457 107 m 25
 457 193 l 25
 543 193 l 25
 543 107 l 25
 457 107 l 25
57 7 m 25
 57 93 l 25
 143 93 l 25
 143 7 l 25
 57 7 l 25
257 7 m 25
 257 93 l 25
 343 93 l 25
 343 7 l 25
 257 7 l 25
357 7 m 25
 357 93 l 25
 443 93 l 25
 443 7 l 25
 357 7 l 25
57 -93 m 25
 57 -7 l 25
 143 -7 l 25
 143 -93 l 25
 57 -93 l 25
57 -193 m 25
 57 -107 l 25
 143 -107 l 25
 143 -193 l 25
 57 -193 l 25
EndSplineSet
EndChar

StartChar: dotlessi
Encoding: 305 305 182
Width: 400
Flags: HMW
AnchorPoint: "marks_above" 200 600 basechar 0
LayerCount: 2
Fore
SplineSet
57 407 m 25
 57 493 l 25
 143 493 l 25
 143 407 l 25
 57 407 l 25
157 407 m 25
 157 493 l 25
 243 493 l 25
 243 407 l 25
 157 407 l 25
157 307 m 25
 157 393 l 25
 243 393 l 25
 243 307 l 25
 157 307 l 25
157 207 m 25
 157 293 l 25
 243 293 l 25
 243 207 l 25
 157 207 l 25
157 107 m 25
 157 193 l 25
 243 193 l 25
 243 107 l 25
 157 107 l 25
57 7 m 25
 57 93 l 25
 143 93 l 25
 143 7 l 25
 57 7 l 25
157 7 m 25
 157 93 l 25
 243 93 l 25
 243 7 l 25
 157 7 l 25
257 7 m 25
 257 93 l 25
 343 93 l 25
 343 7 l 25
 257 7 l 25
EndSplineSet
EndChar

StartChar: Lslash
Encoding: 321 321 183
Width: 600
Flags: HMW
AnchorPoint: "marks_below" 300 0 basechar 0
AnchorPoint: "marks_above" 300 800 basechar 0
LayerCount: 2
Fore
SplineSet
157 607 m 25
 157 693 l 25
 243 693 l 25
 243 607 l 25
 157 607 l 25
157 507 m 25
 157 593 l 25
 243 593 l 25
 243 507 l 25
 157 507 l 25
357 507 m 25
 357 593 l 25
 443 593 l 25
 443 507 l 25
 357 507 l 25
157 407 m 25
 157 493 l 25
 243 493 l 25
 243 407 l 25
 157 407 l 25
257 407 m 25
 257 493 l 25
 343 493 l 25
 343 407 l 25
 257 407 l 25
157 307 m 25
 157 393 l 25
 243 393 l 25
 243 307 l 25
 157 307 l 25
57 207 m 25
 57 293 l 25
 143 293 l 25
 143 207 l 25
 57 207 l 25
157 207 m 25
 157 293 l 25
 243 293 l 25
 243 207 l 25
 157 207 l 25
157 107 m 25
 157 193 l 25
 243 193 l 25
 243 107 l 25
 157 107 l 25
157 7 m 25
 157 93 l 25
 243 93 l 25
 243 7 l 25
 157 7 l 25
257 7 m 25
 257 93 l 25
 343 93 l 25
 343 7 l 25
 257 7 l 25
357 7 m 25
 357 93 l 25
 443 93 l 25
 443 7 l 25
 357 7 l 25
457 7 m 25
 457 93 l 25
 543 93 l 25
 543 7 l 25
 457 7 l 25
EndSplineSet
EndChar

StartChar: lslash
Encoding: 322 322 184
Width: 400
Flags: HMW
AnchorPoint: "marks_below" 200 0 basechar 0
AnchorPoint: "ogonek" 200 0 basechar 0
AnchorPoint: "marks_above" 200 800 basechar 0
LayerCount: 2
Fore
SplineSet
57 607 m 25
 57 693 l 25
 143 693 l 25
 143 607 l 25
 57 607 l 25
157 607 m 25
 157 693 l 25
 243 693 l 25
 243 607 l 25
 157 607 l 25
157 507 m 25
 157 593 l 25
 243 593 l 25
 243 507 l 25
 157 507 l 25
157 407 m 25
 157 493 l 25
 243 493 l 25
 243 407 l 25
 157 407 l 25
257 407 m 25
 257 493 l 25
 343 493 l 25
 343 407 l 25
 257 407 l 25
157 307 m 25
 157 393 l 25
 243 393 l 25
 243 307 l 25
 157 307 l 25
57 207 m 25
 57 293 l 25
 143 293 l 25
 143 207 l 25
 57 207 l 25
157 207 m 25
 157 293 l 25
 243 293 l 25
 243 207 l 25
 157 207 l 25
157 107 m 25
 157 193 l 25
 243 193 l 25
 243 107 l 25
 157 107 l 25
57 7 m 25
 57 93 l 25
 143 93 l 25
 143 7 l 25
 57 7 l 25
157 7 m 25
 157 93 l 25
 243 93 l 25
 243 7 l 25
 157 7 l 25
257 7 m 25
 257 93 l 25
 343 93 l 25
 343 7 l 25
 257 7 l 25
EndSplineSet
EndChar

StartChar: OE
Encoding: 338 338 185
Width: 800
Flags: HMW
AnchorPoint: "marks_below" 400 0 basechar 0
AnchorPoint: "marks_above" 400 800 basechar 0
LayerCount: 2
Fore
SplineSet
657 7 m 25
 657 93 l 25
 743 93 l 25
 743 7 l 25
 657 7 l 25
557 7 m 25
 557 93 l 25
 643 93 l 25
 643 7 l 25
 557 7 l 25
457 7 m 25
 457 93 l 25
 543 93 l 25
 543 7 l 25
 457 7 l 25
357 7 m 25
 357 93 l 25
 443 93 l 25
 443 7 l 25
 357 7 l 25
257 7 m 25
 257 93 l 25
 343 93 l 25
 343 7 l 25
 257 7 l 25
157 7 m 25
 157 93 l 25
 243 93 l 25
 243 7 l 25
 157 7 l 25
357 107 m 25
 357 193 l 25
 443 193 l 25
 443 107 l 25
 357 107 l 25
57 107 m 25
 57 193 l 25
 143 193 l 25
 143 107 l 25
 57 107 l 25
357 207 m 25
 357 293 l 25
 443 293 l 25
 443 207 l 25
 357 207 l 25
57 207 m 25
 57 293 l 25
 143 293 l 25
 143 207 l 25
 57 207 l 25
557 307 m 25
 557 393 l 25
 643 393 l 25
 643 307 l 25
 557 307 l 25
457 307 m 25
 457 393 l 25
 543 393 l 25
 543 307 l 25
 457 307 l 25
357 307 m 25
 357 393 l 25
 443 393 l 25
 443 307 l 25
 357 307 l 25
57 307 m 25
 57 393 l 25
 143 393 l 25
 143 307 l 25
 57 307 l 25
357 407 m 25
 357 493 l 25
 443 493 l 25
 443 407 l 25
 357 407 l 25
57 407 m 25
 57 493 l 25
 143 493 l 25
 143 407 l 25
 57 407 l 25
357 507 m 25
 357 593 l 25
 443 593 l 25
 443 507 l 25
 357 507 l 25
57 507 m 25
 57 593 l 25
 143 593 l 25
 143 507 l 25
 57 507 l 25
657 607 m 25
 657 693 l 25
 743 693 l 25
 743 607 l 25
 657 607 l 25
557 607 m 25
 557 693 l 25
 643 693 l 25
 643 607 l 25
 557 607 l 25
457 607 m 25
 457 693 l 25
 543 693 l 25
 543 607 l 25
 457 607 l 25
357 607 m 25
 357 693 l 25
 443 693 l 25
 443 607 l 25
 357 607 l 25
257 607 m 25
 257 693 l 25
 343 693 l 25
 343 607 l 25
 257 607 l 25
157 607 m 25
 157 693 l 25
 243 693 l 25
 243 607 l 25
 157 607 l 25
EndSplineSet
EndChar

StartChar: oe
Encoding: 339 339 186
Width: 800
Flags: HMW
AnchorPoint: "marks_below" 400 0 basechar 0
AnchorPoint: "marks_above" 400 600 basechar 0
LayerCount: 2
Fore
SplineSet
557 7 m 25
 557 93 l 25
 643 93 l 25
 643 7 l 25
 557 7 l 25
457 7 m 25
 457 93 l 25
 543 93 l 25
 543 7 l 25
 457 7 l 25
257 7 m 25
 257 93 l 25
 343 93 l 25
 343 7 l 25
 257 7 l 25
157 7 m 25
 157 93 l 25
 243 93 l 25
 243 7 l 25
 157 7 l 25
357 107 m 25
 357 193 l 25
 443 193 l 25
 443 107 l 25
 357 107 l 25
57 107 m 25
 57 193 l 25
 143 193 l 25
 143 107 l 25
 57 107 l 25
657 207 m 25
 657 293 l 25
 743 293 l 25
 743 207 l 25
 657 207 l 25
557 207 m 25
 557 293 l 25
 643 293 l 25
 643 207 l 25
 557 207 l 25
457 207 m 25
 457 293 l 25
 543 293 l 25
 543 207 l 25
 457 207 l 25
357 207 m 25
 357 293 l 25
 443 293 l 25
 443 207 l 25
 357 207 l 25
57 207 m 25
 57 293 l 25
 143 293 l 25
 143 207 l 25
 57 207 l 25
657 307 m 25
 657 393 l 25
 743 393 l 25
 743 307 l 25
 657 307 l 25
357 307 m 25
 357 393 l 25
 443 393 l 25
 443 307 l 25
 357 307 l 25
57 307 m 25
 57 393 l 25
 143 393 l 25
 143 307 l 25
 57 307 l 25
557 407 m 25
 557 493 l 25
 643 493 l 25
 643 407 l 25
 557 407 l 25
457 407 m 25
 457 493 l 25
 543 493 l 25
 543 407 l 25
 457 407 l 25
257 407 m 25
 257 493 l 25
 343 493 l 25
 343 407 l 25
 257 407 l 25
157 407 m 25
 157 493 l 25
 243 493 l 25
 243 407 l 25
 157 407 l 25
EndSplineSet
EndChar

StartChar: florin
Encoding: 402 402 187
Width: 600
Flags: HMW
LayerCount: 2
Fore
SplineSet
357 607 m 25
 357 693 l 25
 443 693 l 25
 443 607 l 25
 357 607 l 25
457 607 m 25
 457 693 l 25
 543 693 l 25
 543 607 l 25
 457 607 l 25
257 507 m 25
 257 593 l 25
 343 593 l 25
 343 507 l 25
 257 507 l 25
257 407 m 25
 257 493 l 25
 343 493 l 25
 343 407 l 25
 257 407 l 25
157 307 m 25
 157 393 l 25
 243 393 l 25
 243 307 l 25
 157 307 l 25
257 307 m 25
 257 393 l 25
 343 393 l 25
 343 307 l 25
 257 307 l 25
357 307 m 25
 357 393 l 25
 443 393 l 25
 443 307 l 25
 357 307 l 25
457 307 m 25
 457 393 l 25
 543 393 l 25
 543 307 l 25
 457 307 l 25
257 207 m 25
 257 293 l 25
 343 293 l 25
 343 207 l 25
 257 207 l 25
257 107 m 25
 257 193 l 25
 343 193 l 25
 343 107 l 25
 257 107 l 25
257 7 m 25
 257 93 l 25
 343 93 l 25
 343 7 l 25
 257 7 l 25
257 -93 m 25
 257 -7 l 25
 343 -7 l 25
 343 -93 l 25
 257 -93 l 25
57 -193 m 25
 57 -107 l 25
 143 -107 l 25
 143 -193 l 25
 57 -193 l 25
157 -193 m 25
 157 -107 l 25
 243 -107 l 25
 243 -193 l 25
 157 -193 l 25
EndSplineSet
EndChar

StartChar: circumflex
Encoding: 710 710 188
Width: 400
Flags: HMW
LayerCount: 2
Fore
SplineSet
157 707 m 25
 157 793 l 25
 243 793 l 25
 243 707 l 25
 157 707 l 25
57 607 m 25
 57 693 l 25
 143 693 l 25
 143 607 l 25
 57 607 l 25
257 607 m 25
 257 693 l 25
 343 693 l 25
 343 607 l 25
 257 607 l 25
EndSplineSet
EndChar

StartChar: caron
Encoding: 711 711 189
Width: 400
Flags: HMW
LayerCount: 2
Fore
SplineSet
57 707 m 25
 57 793 l 25
 143 793 l 25
 143 707 l 25
 57 707 l 25
257 707 m 25
 257 793 l 25
 343 793 l 25
 343 707 l 25
 257 707 l 25
157 607 m 25
 157 693 l 25
 243 693 l 25
 243 607 l 25
 157 607 l 25
EndSplineSet
EndChar

StartChar: breve
Encoding: 728 728 190
Width: 600
Flags: HMW
LayerCount: 2
Fore
SplineSet
57 707 m 25
 57 793 l 25
 143 793 l 25
 143 707 l 25
 57 707 l 25
457 707 m 25
 457 793 l 25
 543 793 l 25
 543 707 l 25
 457 707 l 25
157 607 m 25
 157 693 l 25
 243 693 l 25
 243 607 l 25
 157 607 l 25
257 607 m 25
 257 693 l 25
 343 693 l 25
 343 607 l 25
 257 607 l 25
357 607 m 25
 357 693 l 25
 443 693 l 25
 443 607 l 25
 357 607 l 25
EndSplineSet
EndChar

StartChar: ring
Encoding: 730 730 191
Width: 400
Flags: HMW
LayerCount: 2
Fore
SplineSet
157 707 m 25
 157 793 l 25
 243 793 l 25
 243 707 l 25
 157 707 l 25
57 607 m 25
 57 693 l 25
 143 693 l 25
 143 607 l 25
 57 607 l 25
257 607 m 25
 257 693 l 25
 343 693 l 25
 343 607 l 25
 257 607 l 25
157 507 m 25
 157 593 l 25
 243 593 l 25
 243 507 l 25
 157 507 l 25
EndSplineSet
EndChar

StartChar: ogonek
Encoding: 731 731 192
Width: 300
Flags: HMW
LayerCount: 2
Fore
SplineSet
57 -93 m 25
 57 -7 l 25
 143 -7 l 25
 143 -93 l 25
 57 -93 l 25
57 -193 m 25
 57 -107 l 25
 143 -107 l 25
 143 -193 l 25
 57 -193 l 25
157 -193 m 25
 157 -107 l 25
 243 -107 l 25
 243 -193 l 25
 157 -193 l 25
EndSplineSet
EndChar

StartChar: tilde
Encoding: 732 732 193
Width: 600
Flags: HMW
LayerCount: 2
Fore
SplineSet
157 707 m 25
 157 793 l 25
 243 793 l 25
 243 707 l 25
 157 707 l 25
257 707 m 25
 257 793 l 25
 343 793 l 25
 343 707 l 25
 257 707 l 25
457 707 m 25
 457 793 l 25
 543 793 l 25
 543 707 l 25
 457 707 l 25
57 607 m 25
 57 693 l 25
 143 693 l 25
 143 607 l 25
 57 607 l 25
257 607 m 25
 257 693 l 25
 343 693 l 25
 343 607 l 25
 257 607 l 25
357 607 m 25
 357 693 l 25
 443 693 l 25
 443 607 l 25
 357 607 l 25
EndSplineSet
EndChar

StartChar: pi
Encoding: 960 960 195
Width: 600
Flags: HMW
LayerCount: 2
Fore
SplineSet
57 407 m 25
 57 493 l 25
 143 493 l 25
 143 407 l 25
 57 407 l 25
157 407 m 25
 157 493 l 25
 243 493 l 25
 243 407 l 25
 157 407 l 25
257 407 m 25
 257 493 l 25
 343 493 l 25
 343 407 l 25
 257 407 l 25
357 407 m 25
 357 493 l 25
 443 493 l 25
 443 407 l 25
 357 407 l 25
457 407 m 25
 457 493 l 25
 543 493 l 25
 543 407 l 25
 457 407 l 25
157 307 m 25
 157 393 l 25
 243 393 l 25
 243 307 l 25
 157 307 l 25
357 307 m 25
 357 393 l 25
 443 393 l 25
 443 307 l 25
 357 307 l 25
157 207 m 25
 157 293 l 25
 243 293 l 25
 243 207 l 25
 157 207 l 25
357 207 m 25
 357 293 l 25
 443 293 l 25
 443 207 l 25
 357 207 l 25
157 107 m 25
 157 193 l 25
 243 193 l 25
 243 107 l 25
 157 107 l 25
357 107 m 25
 357 193 l 25
 443 193 l 25
 443 107 l 25
 357 107 l 25
157 7 m 25
 157 93 l 25
 243 93 l 25
 243 7 l 25
 157 7 l 25
457 7 m 25
 457 93 l 25
 543 93 l 25
 543 7 l 25
 457 7 l 25
EndSplineSet
EndChar

StartChar: emdash
Encoding: 8212 8212 196
Width: 600
Flags: HMW
LayerCount: 2
Fore
SplineSet
7 307 m 25
 7 393 l 25
 93 393 l 25
 93 307 l 25
 7 307 l 25
107 307 m 25
 107 393 l 25
 193 393 l 25
 193 307 l 25
 107 307 l 25
207 307 m 25
 207 393 l 25
 293 393 l 25
 293 307 l 25
 207 307 l 25
307 307 m 25
 307 393 l 25
 393 393 l 25
 393 307 l 25
 307 307 l 25
407 307 m 25
 407 393 l 25
 493 393 l 25
 493 307 l 25
 407 307 l 25
507 307 m 25
 507 393 l 25
 593 393 l 25
 593 307 l 25
 507 307 l 25
EndSplineSet
EndChar

StartChar: quoteleft
Encoding: 8216 8216 197
Width: 300
Flags: HMW
LayerCount: 2
Fore
SplineSet
157 607 m 25
 157 693 l 25
 243 693 l 25
 243 607 l 25
 157 607 l 25
57 507 m 25
 57 593 l 25
 143 593 l 25
 143 507 l 25
 57 507 l 25
57 407 m 25
 57 493 l 25
 143 493 l 25
 143 407 l 25
 57 407 l 25
EndSplineSet
EndChar

StartChar: dagger
Encoding: 8224 8224 198
Width: 600
Flags: HMW
LayerCount: 2
Fore
SplineSet
257 607 m 25
 257 693 l 25
 343 693 l 25
 343 607 l 25
 257 607 l 25
257 507 m 25
 257 593 l 25
 343 593 l 25
 343 507 l 25
 257 507 l 25
57 407 m 25
 57 493 l 25
 143 493 l 25
 143 407 l 25
 57 407 l 25
157 407 m 25
 157 493 l 25
 243 493 l 25
 243 407 l 25
 157 407 l 25
257 407 m 25
 257 493 l 25
 343 493 l 25
 343 407 l 25
 257 407 l 25
357 407 m 25
 357 493 l 25
 443 493 l 25
 443 407 l 25
 357 407 l 25
457 407 m 25
 457 493 l 25
 543 493 l 25
 543 407 l 25
 457 407 l 25
257 307 m 25
 257 393 l 25
 343 393 l 25
 343 307 l 25
 257 307 l 25
257 207 m 25
 257 293 l 25
 343 293 l 25
 343 207 l 25
 257 207 l 25
257 107 m 25
 257 193 l 25
 343 193 l 25
 343 107 l 25
 257 107 l 25
257 7 m 25
 257 93 l 25
 343 93 l 25
 343 7 l 25
 257 7 l 25
257 -93 m 25
 257 -7 l 25
 343 -7 l 25
 343 -93 l 25
 257 -93 l 25
257 -193 m 25
 257 -107 l 25
 343 -107 l 25
 343 -193 l 25
 257 -193 l 25
EndSplineSet
EndChar

StartChar: daggerdbl
Encoding: 8225 8225 199
Width: 600
Flags: HMW
LayerCount: 2
Fore
SplineSet
257 607 m 25
 257 693 l 25
 343 693 l 25
 343 607 l 25
 257 607 l 25
257 507 m 25
 257 593 l 25
 343 593 l 25
 343 507 l 25
 257 507 l 25
57 407 m 25
 57 493 l 25
 143 493 l 25
 143 407 l 25
 57 407 l 25
157 407 m 25
 157 493 l 25
 243 493 l 25
 243 407 l 25
 157 407 l 25
257 407 m 25
 257 493 l 25
 343 493 l 25
 343 407 l 25
 257 407 l 25
357 407 m 25
 357 493 l 25
 443 493 l 25
 443 407 l 25
 357 407 l 25
457 407 m 25
 457 493 l 25
 543 493 l 25
 543 407 l 25
 457 407 l 25
257 307 m 25
 257 393 l 25
 343 393 l 25
 343 307 l 25
 257 307 l 25
57 7 m 25
 57 93 l 25
 143 93 l 25
 143 7 l 25
 57 7 l 25
157 7 m 25
 157 93 l 25
 243 93 l 25
 243 7 l 25
 157 7 l 25
257 7 m 25
 257 93 l 25
 343 93 l 25
 343 7 l 25
 257 7 l 25
357 7 m 25
 357 93 l 25
 443 93 l 25
 443 7 l 25
 357 7 l 25
457 7 m 25
 457 93 l 25
 543 93 l 25
 543 7 l 25
 457 7 l 25
257 -93 m 25
 257 -7 l 25
 343 -7 l 25
 343 -93 l 25
 257 -93 l 25
257 -193 m 25
 257 -107 l 25
 343 -107 l 25
 343 -193 l 25
 257 -193 l 25
257 207 m 25
 257 293 l 25
 343 293 l 25
 343 207 l 25
 257 207 l 25
257 107 m 25
 257 193 l 25
 343 193 l 25
 343 107 l 25
 257 107 l 25
EndSplineSet
EndChar

StartChar: bullet
Encoding: 8226 8226 200
Width: 300
Flags: HMW
LayerCount: 2
Fore
SplineSet
57 407 m 25
 57 493 l 25
 143 493 l 25
 143 407 l 25
 57 407 l 25
157 407 m 25
 157 493 l 25
 243 493 l 25
 243 407 l 25
 157 407 l 25
57 307 m 25
 57 393 l 25
 143 393 l 25
 143 307 l 25
 57 307 l 25
157 307 m 25
 157 393 l 25
 243 393 l 25
 243 307 l 25
 157 307 l 25
EndSplineSet
EndChar

StartChar: guilsinglleft
Encoding: 8249 8249 201
Width: 300
Flags: HMW
LayerCount: 2
Fore
SplineSet
157 407 m 25
 157 493 l 25
 243 493 l 25
 243 407 l 25
 157 407 l 25
57 307 m 25
 57 393 l 25
 143 393 l 25
 143 307 l 25
 57 307 l 25
157 207 m 25
 157 293 l 25
 243 293 l 25
 243 207 l 25
 157 207 l 25
EndSplineSet
EndChar

StartChar: guilsinglright
Encoding: 8250 8250 202
Width: 300
Flags: HMW
LayerCount: 2
Fore
SplineSet
57 407 m 25
 57 493 l 25
 143 493 l 25
 143 407 l 25
 57 407 l 25
157 307 m 25
 157 393 l 25
 243 393 l 25
 243 307 l 25
 157 307 l 25
57 207 m 25
 57 293 l 25
 143 293 l 25
 143 207 l 25
 57 207 l 25
EndSplineSet
EndChar

StartChar: uni2074
Encoding: 8308 8308 203
Width: 400
Flags: HMW
LayerCount: 2
Fore
SplineSet
257 607 m 25
 257 693 l 25
 343 693 l 25
 343 607 l 25
 257 607 l 25
157 507 m 25
 157 593 l 25
 243 593 l 25
 243 507 l 25
 157 507 l 25
257 507 m 25
 257 593 l 25
 343 593 l 25
 343 507 l 25
 257 507 l 25
57 407 m 25
 57 493 l 25
 143 493 l 25
 143 407 l 25
 57 407 l 25
257 407 m 25
 257 493 l 25
 343 493 l 25
 343 407 l 25
 257 407 l 25
57 307 m 25
 57 393 l 25
 143 393 l 25
 143 307 l 25
 57 307 l 25
157 307 m 25
 157 393 l 25
 243 393 l 25
 243 307 l 25
 157 307 l 25
257 307 m 25
 257 393 l 25
 343 393 l 25
 343 307 l 25
 257 307 l 25
257 207 m 25
 257 293 l 25
 343 293 l 25
 343 207 l 25
 257 207 l 25
EndSplineSet
EndChar

StartChar: Euro
Encoding: 8364 8364 204
Width: 600
Flags: HMW
LayerCount: 2
Fore
SplineSet
257 607 m 25
 257 693 l 25
 343 693 l 25
 343 607 l 25
 257 607 l 25
357 607 m 25
 357 693 l 25
 443 693 l 25
 443 607 l 25
 357 607 l 25
157 507 m 25
 157 593 l 25
 243 593 l 25
 243 507 l 25
 157 507 l 25
457 507 m 25
 457 593 l 25
 543 593 l 25
 543 507 l 25
 457 507 l 25
57 407 m 25
 57 493 l 25
 143 493 l 25
 143 407 l 25
 57 407 l 25
157 407 m 25
 157 493 l 25
 243 493 l 25
 243 407 l 25
 157 407 l 25
257 407 m 25
 257 493 l 25
 343 493 l 25
 343 407 l 25
 257 407 l 25
157 307 m 25
 157 393 l 25
 243 393 l 25
 243 307 l 25
 157 307 l 25
57 207 m 25
 57 293 l 25
 143 293 l 25
 143 207 l 25
 57 207 l 25
157 207 m 25
 157 293 l 25
 243 293 l 25
 243 207 l 25
 157 207 l 25
257 207 m 25
 257 293 l 25
 343 293 l 25
 343 207 l 25
 257 207 l 25
157 107 m 25
 157 193 l 25
 243 193 l 25
 243 107 l 25
 157 107 l 25
457 107 m 25
 457 193 l 25
 543 193 l 25
 543 107 l 25
 457 107 l 25
257 7 m 25
 257 93 l 25
 343 93 l 25
 343 7 l 25
 257 7 l 25
357 7 m 25
 357 93 l 25
 443 93 l 25
 443 7 l 25
 357 7 l 25
EndSplineSet
EndChar

StartChar: uni2113
Encoding: 8467 8467 205
Width: 600
Flags: HMW
LayerCount: 2
Fore
SplineSet
257 607 m 25
 257 693 l 25
 343 693 l 25
 343 607 l 25
 257 607 l 25
157 507 m 25
 157 593 l 25
 243 593 l 25
 243 507 l 25
 157 507 l 25
357 507 m 25
 357 593 l 25
 443 593 l 25
 443 507 l 25
 357 507 l 25
157 407 m 25
 157 493 l 25
 243 493 l 25
 243 407 l 25
 157 407 l 25
357 407 m 25
 357 493 l 25
 443 493 l 25
 443 407 l 25
 357 407 l 25
157 307 m 25
 157 393 l 25
 243 393 l 25
 243 307 l 25
 157 307 l 25
257 307 m 25
 257 393 l 25
 343 393 l 25
 343 307 l 25
 257 307 l 25
57 207 m 25
 57 293 l 25
 143 293 l 25
 143 207 l 25
 57 207 l 25
157 207 m 25
 157 293 l 25
 243 293 l 25
 243 207 l 25
 157 207 l 25
157 107 m 25
 157 193 l 25
 243 193 l 25
 243 107 l 25
 157 107 l 25
457 107 m 25
 457 193 l 25
 543 193 l 25
 543 107 l 25
 457 107 l 25
257 7 m 25
 257 93 l 25
 343 93 l 25
 343 7 l 25
 257 7 l 25
357 7 m 25
 357 93 l 25
 443 93 l 25
 443 7 l 25
 357 7 l 25
EndSplineSet
EndChar

StartChar: trademark
Encoding: 8482 8482 206
Width: 600
Flags: HMW
LayerCount: 2
Fore
SplineSet
57 607 m 25
 57 693 l 25
 143 693 l 25
 143 607 l 25
 57 607 l 25
157 607 m 25
 157 693 l 25
 243 693 l 25
 243 607 l 25
 157 607 l 25
257 607 m 25
 257 693 l 25
 343 693 l 25
 343 607 l 25
 257 607 l 25
357 607 m 25
 357 693 l 25
 443 693 l 25
 443 607 l 25
 357 607 l 25
457 607 m 25
 457 693 l 25
 543 693 l 25
 543 607 l 25
 457 607 l 25
257 507 m 25
 257 593 l 25
 343 593 l 25
 343 507 l 25
 257 507 l 25
257 407 m 25
 257 493 l 25
 343 493 l 25
 343 407 l 25
 257 407 l 25
57 207 m 25
 57 293 l 25
 143 293 l 25
 143 207 l 25
 57 207 l 25
157 207 m 25
 157 293 l 25
 243 293 l 25
 243 207 l 25
 157 207 l 25
357 207 m 25
 357 293 l 25
 443 293 l 25
 443 207 l 25
 357 207 l 25
457 207 m 25
 457 293 l 25
 543 293 l 25
 543 207 l 25
 457 207 l 25
57 107 m 25
 57 193 l 25
 143 193 l 25
 143 107 l 25
 57 107 l 25
257 107 m 25
 257 193 l 25
 343 193 l 25
 343 107 l 25
 257 107 l 25
457 107 m 25
 457 193 l 25
 543 193 l 25
 543 107 l 25
 457 107 l 25
57 7 m 25
 57 93 l 25
 143 93 l 25
 143 7 l 25
 57 7 l 25
457 7 m 25
 457 93 l 25
 543 93 l 25
 543 7 l 25
 457 7 l 25
EndSplineSet
EndChar

StartChar: partialdiff
Encoding: 8706 8706 207
Width: 600
Flags: HMW
LayerCount: 2
Fore
SplineSet
157 607 m 25
 157 693 l 25
 243 693 l 25
 243 607 l 25
 157 607 l 25
257 607 m 25
 257 693 l 25
 343 693 l 25
 343 607 l 25
 257 607 l 25
357 507 m 25
 357 593 l 25
 443 593 l 25
 443 507 l 25
 357 507 l 25
457 407 m 25
 457 493 l 25
 543 493 l 25
 543 407 l 25
 457 407 l 25
157 307 m 25
 157 393 l 25
 243 393 l 25
 243 307 l 25
 157 307 l 25
257 307 m 25
 257 393 l 25
 343 393 l 25
 343 307 l 25
 257 307 l 25
357 307 m 25
 357 393 l 25
 443 393 l 25
 443 307 l 25
 357 307 l 25
457 307 m 25
 457 393 l 25
 543 393 l 25
 543 307 l 25
 457 307 l 25
57 207 m 25
 57 293 l 25
 143 293 l 25
 143 207 l 25
 57 207 l 25
457 207 m 25
 457 293 l 25
 543 293 l 25
 543 207 l 25
 457 207 l 25
57 107 m 25
 57 193 l 25
 143 193 l 25
 143 107 l 25
 57 107 l 25
457 107 m 25
 457 193 l 25
 543 193 l 25
 543 107 l 25
 457 107 l 25
157 7 m 25
 157 93 l 25
 243 93 l 25
 243 7 l 25
 157 7 l 25
257 7 m 25
 257 93 l 25
 343 93 l 25
 343 7 l 25
 257 7 l 25
357 7 m 25
 357 93 l 25
 443 93 l 25
 443 7 l 25
 357 7 l 25
EndSplineSet
EndChar

StartChar: Delta
Encoding: 8710 8710 208
Width: 600
Flags: HMW
AnchorPoint: "marks_below" 300 0 basechar 0
AnchorPoint: "marks_above" 300 800 basechar 0
LayerCount: 2
Fore
SplineSet
257 607 m 25
 257 693 l 25
 343 693 l 25
 343 607 l 25
 257 607 l 25
257 507 m 25
 257 593 l 25
 343 593 l 25
 343 507 l 25
 257 507 l 25
157 407 m 25
 157 493 l 25
 243 493 l 25
 243 407 l 25
 157 407 l 25
357 407 m 25
 357 493 l 25
 443 493 l 25
 443 407 l 25
 357 407 l 25
157 307 m 25
 157 393 l 25
 243 393 l 25
 243 307 l 25
 157 307 l 25
357 307 m 25
 357 393 l 25
 443 393 l 25
 443 307 l 25
 357 307 l 25
57 207 m 25
 57 293 l 25
 143 293 l 25
 143 207 l 25
 57 207 l 25
457 207 m 25
 457 293 l 25
 543 293 l 25
 543 207 l 25
 457 207 l 25
57 107 m 25
 57 193 l 25
 143 193 l 25
 143 107 l 25
 57 107 l 25
457 107 m 25
 457 193 l 25
 543 193 l 25
 543 107 l 25
 457 107 l 25
57 7 m 25
 57 93 l 25
 143 93 l 25
 143 7 l 25
 57 7 l 25
157 7 m 25
 157 93 l 25
 243 93 l 25
 243 7 l 25
 157 7 l 25
257 7 m 25
 257 93 l 25
 343 93 l 25
 343 7 l 25
 257 7 l 25
357 7 m 25
 357 93 l 25
 443 93 l 25
 443 7 l 25
 357 7 l 25
457 7 m 25
 457 93 l 25
 543 93 l 25
 543 7 l 25
 457 7 l 25
EndSplineSet
EndChar

StartChar: product
Encoding: 8719 8719 209
Width: 600
Flags: HMW
LayerCount: 2
Fore
SplineSet
57 607 m 25
 57 693 l 25
 143 693 l 25
 143 607 l 25
 57 607 l 25
157 607 m 25
 157 693 l 25
 243 693 l 25
 243 607 l 25
 157 607 l 25
257 607 m 25
 257 693 l 25
 343 693 l 25
 343 607 l 25
 257 607 l 25
357 607 m 25
 357 693 l 25
 443 693 l 25
 443 607 l 25
 357 607 l 25
457 607 m 25
 457 693 l 25
 543 693 l 25
 543 607 l 25
 457 607 l 25
57 507 m 25
 57 593 l 25
 143 593 l 25
 143 507 l 25
 57 507 l 25
457 507 m 25
 457 593 l 25
 543 593 l 25
 543 507 l 25
 457 507 l 25
57 407 m 25
 57 493 l 25
 143 493 l 25
 143 407 l 25
 57 407 l 25
457 407 m 25
 457 493 l 25
 543 493 l 25
 543 407 l 25
 457 407 l 25
57 307 m 25
 57 393 l 25
 143 393 l 25
 143 307 l 25
 57 307 l 25
457 307 m 25
 457 393 l 25
 543 393 l 25
 543 307 l 25
 457 307 l 25
57 207 m 25
 57 293 l 25
 143 293 l 25
 143 207 l 25
 57 207 l 25
457 207 m 25
 457 293 l 25
 543 293 l 25
 543 207 l 25
 457 207 l 25
57 107 m 25
 57 193 l 25
 143 193 l 25
 143 107 l 25
 57 107 l 25
457 107 m 25
 457 193 l 25
 543 193 l 25
 543 107 l 25
 457 107 l 25
57 7 m 25
 57 93 l 25
 143 93 l 25
 143 7 l 25
 57 7 l 25
457 7 m 25
 457 93 l 25
 543 93 l 25
 543 7 l 25
 457 7 l 25
57 -93 m 25
 57 -7 l 25
 143 -7 l 25
 143 -93 l 25
 57 -93 l 25
457 -93 m 25
 457 -7 l 25
 543 -7 l 25
 543 -93 l 25
 457 -93 l 25
57 -193 m 25
 57 -107 l 25
 143 -107 l 25
 143 -193 l 25
 57 -193 l 25
457 -193 m 25
 457 -107 l 25
 543 -107 l 25
 543 -193 l 25
 457 -193 l 25
EndSplineSet
EndChar

StartChar: summation
Encoding: 8721 8721 210
Width: 600
Flags: HMW
LayerCount: 2
Fore
SplineSet
57 607 m 25
 57 693 l 25
 143 693 l 25
 143 607 l 25
 57 607 l 25
157 607 m 25
 157 693 l 25
 243 693 l 25
 243 607 l 25
 157 607 l 25
257 607 m 25
 257 693 l 25
 343 693 l 25
 343 607 l 25
 257 607 l 25
357 607 m 25
 357 693 l 25
 443 693 l 25
 443 607 l 25
 357 607 l 25
457 607 m 25
 457 693 l 25
 543 693 l 25
 543 607 l 25
 457 607 l 25
57 507 m 25
 57 593 l 25
 143 593 l 25
 143 507 l 25
 57 507 l 25
157 407 m 25
 157 493 l 25
 243 493 l 25
 243 407 l 25
 157 407 l 25
257 307 m 25
 257 393 l 25
 343 393 l 25
 343 307 l 25
 257 307 l 25
357 207 m 25
 357 293 l 25
 443 293 l 25
 443 207 l 25
 357 207 l 25
257 107 m 25
 257 193 l 25
 343 193 l 25
 343 107 l 25
 257 107 l 25
157 7 m 25
 157 93 l 25
 243 93 l 25
 243 7 l 25
 157 7 l 25
57 -93 m 25
 57 -7 l 25
 143 -7 l 25
 143 -93 l 25
 57 -93 l 25
57 -193 m 25
 57 -107 l 25
 143 -107 l 25
 143 -193 l 25
 57 -193 l 25
157 -193 m 25
 157 -107 l 25
 243 -107 l 25
 243 -193 l 25
 157 -193 l 25
257 -193 m 25
 257 -107 l 25
 343 -107 l 25
 343 -193 l 25
 257 -193 l 25
357 -193 m 25
 357 -107 l 25
 443 -107 l 25
 443 -193 l 25
 357 -193 l 25
457 -193 m 25
 457 -107 l 25
 543 -107 l 25
 543 -193 l 25
 457 -193 l 25
EndSplineSet
EndChar

StartChar: minus
Encoding: 8722 8722 211
Width: 600
Flags: HMW
LayerCount: 2
Fore
SplineSet
57 307 m 25
 57 393 l 25
 143 393 l 25
 143 307 l 25
 57 307 l 25
157 307 m 25
 157 393 l 25
 243 393 l 25
 243 307 l 25
 157 307 l 25
257 307 m 25
 257 393 l 25
 343 393 l 25
 343 307 l 25
 257 307 l 25
357 307 m 25
 357 393 l 25
 443 393 l 25
 443 307 l 25
 357 307 l 25
457 307 m 25
 457 393 l 25
 543 393 l 25
 543 307 l 25
 457 307 l 25
EndSplineSet
EndChar

StartChar: radical
Encoding: 8730 8730 212
Width: 600
Flags: HMW
LayerCount: 2
Fore
SplineSet
257 607 m 25
 257 693 l 25
 343 693 l 25
 343 607 l 25
 257 607 l 25
357 607 m 25
 357 693 l 25
 443 693 l 25
 443 607 l 25
 357 607 l 25
457 607 m 25
 457 693 l 25
 543 693 l 25
 543 607 l 25
 457 607 l 25
257 507 m 25
 257 593 l 25
 343 593 l 25
 343 507 l 25
 257 507 l 25
257 407 m 25
 257 493 l 25
 343 493 l 25
 343 407 l 25
 257 407 l 25
257 307 m 25
 257 393 l 25
 343 393 l 25
 343 307 l 25
 257 307 l 25
57 207 m 25
 57 293 l 25
 143 293 l 25
 143 207 l 25
 57 207 l 25
257 207 m 25
 257 293 l 25
 343 293 l 25
 343 207 l 25
 257 207 l 25
157 107 m 25
 157 193 l 25
 243 193 l 25
 243 107 l 25
 157 107 l 25
257 107 m 25
 257 193 l 25
 343 193 l 25
 343 107 l 25
 257 107 l 25
257 7 m 25
 257 93 l 25
 343 93 l 25
 343 7 l 25
 257 7 l 25
EndSplineSet
EndChar

StartChar: infinity
Encoding: 8734 8734 213
Width: 600
Flags: HMW
LayerCount: 2
Fore
SplineSet
157 407 m 25
 157 493 l 25
 243 493 l 25
 243 407 l 25
 157 407 l 25
357 407 m 25
 357 493 l 25
 443 493 l 25
 443 407 l 25
 357 407 l 25
57 307 m 25
 57 393 l 25
 143 393 l 25
 143 307 l 25
 57 307 l 25
257 307 m 25
 257 393 l 25
 343 393 l 25
 343 307 l 25
 257 307 l 25
457 307 m 25
 457 393 l 25
 543 393 l 25
 543 307 l 25
 457 307 l 25
57 207 m 25
 57 293 l 25
 143 293 l 25
 143 207 l 25
 57 207 l 25
257 207 m 25
 257 293 l 25
 343 293 l 25
 343 207 l 25
 257 207 l 25
457 207 m 25
 457 293 l 25
 543 293 l 25
 543 207 l 25
 457 207 l 25
157 107 m 25
 157 193 l 25
 243 193 l 25
 243 107 l 25
 157 107 l 25
357 107 m 25
 357 193 l 25
 443 193 l 25
 443 107 l 25
 357 107 l 25
EndSplineSet
EndChar

StartChar: integral
Encoding: 8747 8747 214
Width: 600
Flags: HMW
LayerCount: 2
Fore
SplineSet
357 707 m 25
 357 793 l 25
 443 793 l 25
 443 707 l 25
 357 707 l 25
257 607 m 25
 257 693 l 25
 343 693 l 25
 343 607 l 25
 257 607 l 25
457 607 m 25
 457 693 l 25
 543 693 l 25
 543 607 l 25
 457 607 l 25
257 507 m 25
 257 593 l 25
 343 593 l 25
 343 507 l 25
 257 507 l 25
257 407 m 25
 257 493 l 25
 343 493 l 25
 343 407 l 25
 257 407 l 25
257 307 m 25
 257 393 l 25
 343 393 l 25
 343 307 l 25
 257 307 l 25
257 207 m 25
 257 293 l 25
 343 293 l 25
 343 207 l 25
 257 207 l 25
257 107 m 25
 257 193 l 25
 343 193 l 25
 343 107 l 25
 257 107 l 25
57 7 m 25
 57 93 l 25
 143 93 l 25
 143 7 l 25
 57 7 l 25
257 7 m 25
 257 93 l 25
 343 93 l 25
 343 7 l 25
 257 7 l 25
157 -93 m 25
 157 -7 l 25
 243 -7 l 25
 243 -93 l 25
 157 -93 l 25
EndSplineSet
EndChar

StartChar: notequal
Encoding: 8800 8800 215
Width: 600
Flags: HMW
LayerCount: 2
Fore
SplineSet
457 607 m 25
 457 693 l 25
 543 693 l 25
 543 607 l 25
 457 607 l 25
357 507 m 25
 357 593 l 25
 443 593 l 25
 443 507 l 25
 357 507 l 25
57 407 m 25
 57 493 l 25
 143 493 l 25
 143 407 l 25
 57 407 l 25
157 407 m 25
 157 493 l 25
 243 493 l 25
 243 407 l 25
 157 407 l 25
257 407 m 25
 257 493 l 25
 343 493 l 25
 343 407 l 25
 257 407 l 25
357 407 m 25
 357 493 l 25
 443 493 l 25
 443 407 l 25
 357 407 l 25
457 407 m 25
 457 493 l 25
 543 493 l 25
 543 407 l 25
 457 407 l 25
257 307 m 25
 257 393 l 25
 343 393 l 25
 343 307 l 25
 257 307 l 25
57 207 m 25
 57 293 l 25
 143 293 l 25
 143 207 l 25
 57 207 l 25
157 207 m 25
 157 293 l 25
 243 293 l 25
 243 207 l 25
 157 207 l 25
257 207 m 25
 257 293 l 25
 343 293 l 25
 343 207 l 25
 257 207 l 25
357 207 m 25
 357 293 l 25
 443 293 l 25
 443 207 l 25
 357 207 l 25
457 207 m 25
 457 293 l 25
 543 293 l 25
 543 207 l 25
 457 207 l 25
157 107 m 25
 157 193 l 25
 243 193 l 25
 243 107 l 25
 157 107 l 25
57 7 m 25
 57 93 l 25
 143 93 l 25
 143 7 l 25
 57 7 l 25
EndSplineSet
EndChar

StartChar: lozenge
Encoding: 9674 9674 216
Width: 600
Flags: HMW
LayerCount: 2
Fore
SplineSet
257 607 m 25
 257 693 l 25
 343 693 l 25
 343 607 l 25
 257 607 l 25
157 507 m 25
 157 593 l 25
 243 593 l 25
 243 507 l 25
 157 507 l 25
357 507 m 25
 357 593 l 25
 443 593 l 25
 443 507 l 25
 357 507 l 25
57 407 m 25
 57 493 l 25
 143 493 l 25
 143 407 l 25
 57 407 l 25
457 407 m 25
 457 493 l 25
 543 493 l 25
 543 407 l 25
 457 407 l 25
57 307 m 25
 57 393 l 25
 143 393 l 25
 143 307 l 25
 57 307 l 25
457 307 m 25
 457 393 l 25
 543 393 l 25
 543 307 l 25
 457 307 l 25
57 207 m 25
 57 293 l 25
 143 293 l 25
 143 207 l 25
 57 207 l 25
457 207 m 25
 457 293 l 25
 543 293 l 25
 543 207 l 25
 457 207 l 25
157 107 m 25
 157 193 l 25
 243 193 l 25
 243 107 l 25
 157 107 l 25
357 107 m 25
 357 193 l 25
 443 193 l 25
 443 107 l 25
 357 107 l 25
257 7 m 25
 257 93 l 25
 343 93 l 25
 343 7 l 25
 257 7 l 25
EndSplineSet
EndChar

StartChar: uniFB01
Encoding: 64257 64257 217
Width: 600
Flags: HMW
LayerCount: 2
Fore
SplineSet
257 607 m 25
 257 693 l 25
 343 693 l 25
 343 607 l 25
 257 607 l 25
357 607 m 25
 357 693 l 25
 443 693 l 25
 443 607 l 25
 357 607 l 25
157 507 m 25
 157 593 l 25
 243 593 l 25
 243 507 l 25
 157 507 l 25
457 507 m 25
 457 593 l 25
 543 593 l 25
 543 507 l 25
 457 507 l 25
157 407 m 25
 157 493 l 25
 243 493 l 25
 243 407 l 25
 157 407 l 25
57 307 m 25
 57 393 l 25
 143 393 l 25
 143 307 l 25
 57 307 l 25
157 307 m 25
 157 393 l 25
 243 393 l 25
 243 307 l 25
 157 307 l 25
257 307 m 25
 257 393 l 25
 343 393 l 25
 343 307 l 25
 257 307 l 25
357 307 m 25
 357 393 l 25
 443 393 l 25
 443 307 l 25
 357 307 l 25
457 307 m 25
 457 393 l 25
 543 393 l 25
 543 307 l 25
 457 307 l 25
157 207 m 25
 157 293 l 25
 243 293 l 25
 243 207 l 25
 157 207 l 25
457 207 m 25
 457 293 l 25
 543 293 l 25
 543 207 l 25
 457 207 l 25
157 107 m 25
 157 193 l 25
 243 193 l 25
 243 107 l 25
 157 107 l 25
457 107 m 25
 457 193 l 25
 543 193 l 25
 543 107 l 25
 457 107 l 25
157 7 m 25
 157 93 l 25
 243 93 l 25
 243 7 l 25
 157 7 l 25
457 7 m 25
 457 93 l 25
 543 93 l 25
 543 7 l 25
 457 7 l 25
EndSplineSet
EndChar

StartChar: uniFB02
Encoding: 64258 64258 218
Width: 600
Flags: HMW
LayerCount: 2
Fore
SplineSet
257 607 m 25
 257 693 l 25
 343 693 l 25
 343 607 l 25
 257 607 l 25
357 607 m 25
 357 693 l 25
 443 693 l 25
 443 607 l 25
 357 607 l 25
457 607 m 25
 457 693 l 25
 543 693 l 25
 543 607 l 25
 457 607 l 25
157 507 m 25
 157 593 l 25
 243 593 l 25
 243 507 l 25
 157 507 l 25
457 507 m 25
 457 593 l 25
 543 593 l 25
 543 507 l 25
 457 507 l 25
157 407 m 25
 157 493 l 25
 243 493 l 25
 243 407 l 25
 157 407 l 25
457 407 m 25
 457 493 l 25
 543 493 l 25
 543 407 l 25
 457 407 l 25
57 307 m 25
 57 393 l 25
 143 393 l 25
 143 307 l 25
 57 307 l 25
157 307 m 25
 157 393 l 25
 243 393 l 25
 243 307 l 25
 157 307 l 25
257 307 m 25
 257 393 l 25
 343 393 l 25
 343 307 l 25
 257 307 l 25
457 307 m 25
 457 393 l 25
 543 393 l 25
 543 307 l 25
 457 307 l 25
157 207 m 25
 157 293 l 25
 243 293 l 25
 243 207 l 25
 157 207 l 25
457 207 m 25
 457 293 l 25
 543 293 l 25
 543 207 l 25
 457 207 l 25
157 107 m 25
 157 193 l 25
 243 193 l 25
 243 107 l 25
 157 107 l 25
457 107 m 25
 457 193 l 25
 543 193 l 25
 543 107 l 25
 457 107 l 25
157 7 m 25
 157 93 l 25
 243 93 l 25
 243 7 l 25
 157 7 l 25
457 7 m 25
 457 93 l 25
 543 93 l 25
 543 7 l 25
 457 7 l 25
EndSplineSet
EndChar

StartChar: Omega
Encoding: 8486 8486 219
Width: 600
Flags: HMW
AnchorPoint: "marks_below" 300 0 basechar 0
AnchorPoint: "marks_above" 300 800 basechar 0
LayerCount: 2
Fore
SplineSet
157 607 m 25
 157 693 l 25
 243 693 l 25
 243 607 l 25
 157 607 l 25
257 607 m 25
 257 693 l 25
 343 693 l 25
 343 607 l 25
 257 607 l 25
357 607 m 25
 357 693 l 25
 443 693 l 25
 443 607 l 25
 357 607 l 25
57 507 m 25
 57 593 l 25
 143 593 l 25
 143 507 l 25
 57 507 l 25
457 507 m 25
 457 593 l 25
 543 593 l 25
 543 507 l 25
 457 507 l 25
57 407 m 25
 57 493 l 25
 143 493 l 25
 143 407 l 25
 57 407 l 25
457 407 m 25
 457 493 l 25
 543 493 l 25
 543 407 l 25
 457 407 l 25
57 307 m 25
 57 393 l 25
 143 393 l 25
 143 307 l 25
 57 307 l 25
457 307 m 25
 457 393 l 25
 543 393 l 25
 543 307 l 25
 457 307 l 25
57 207 m 25
 57 293 l 25
 143 293 l 25
 143 207 l 25
 57 207 l 25
457 207 m 25
 457 293 l 25
 543 293 l 25
 543 207 l 25
 457 207 l 25
157 107 m 25
 157 193 l 25
 243 193 l 25
 243 107 l 25
 157 107 l 25
357 107 m 25
 357 193 l 25
 443 193 l 25
 443 107 l 25
 357 107 l 25
57 7 m 25
 57 93 l 25
 143 93 l 25
 143 7 l 25
 57 7 l 25
157 7 m 25
 157 93 l 25
 243 93 l 25
 243 7 l 25
 157 7 l 25
357 7 m 25
 357 93 l 25
 443 93 l 25
 443 7 l 25
 357 7 l 25
457 7 m 25
 457 93 l 25
 543 93 l 25
 543 7 l 25
 457 7 l 25
EndSplineSet
EndChar

StartChar: dotaccent
Encoding: 729 729 242
Width: 200
Flags: HMW
LayerCount: 2
Fore
SplineSet
57 607 m 25
 57 693 l 25
 143 693 l 25
 143 607 l 25
 57 607 l 25
EndSplineSet
EndChar

StartChar: ellipsis
Encoding: 8230 8230 251
Width: 600
VWidth: 0
Flags: HMW
LayerCount: 2
Fore
SplineSet
57 7 m 25
 57 93 l 25
 143 93 l 25
 143 7 l 25
 57 7 l 25
457 7 m 25
 457 93 l 25
 543 93 l 25
 543 7 l 25
 457 7 l 25
257 7 m 25
 257 93 l 25
 343 93 l 25
 343 7 l 25
 257 7 l 25
EndSplineSet
EndChar

StartChar: perthousand
Encoding: 8240 8240 252
Width: 900
Flags: HMW
LayerCount: 2
Fore
SplineSet
457 7 m 25
 457 93 l 25
 543 93 l 25
 543 7 l 25
 457 7 l 25
357 7 m 25
 357 93 l 25
 443 93 l 25
 443 7 l 25
 357 7 l 25
457 107 m 25
 457 193 l 25
 543 193 l 25
 543 107 l 25
 457 107 l 25
357 107 m 25
 357 193 l 25
 443 193 l 25
 443 107 l 25
 357 107 l 25
57 107 m 25
 57 193 l 25
 143 193 l 25
 143 107 l 25
 57 107 l 25
157 207 m 25
 157 293 l 25
 243 293 l 25
 243 207 l 25
 157 207 l 25
257 307 m 25
 257 393 l 25
 343 393 l 25
 343 307 l 25
 257 307 l 25
357 407 m 25
 357 493 l 25
 443 493 l 25
 443 407 l 25
 357 407 l 25
457 507 m 25
 457 593 l 25
 543 593 l 25
 543 507 l 25
 457 507 l 25
157 507 m 25
 157 593 l 25
 243 593 l 25
 243 507 l 25
 157 507 l 25
57 507 m 25
 57 593 l 25
 143 593 l 25
 143 507 l 25
 57 507 l 25
157 607 m 25
 157 693 l 25
 243 693 l 25
 243 607 l 25
 157 607 l 25
57 607 m 25
 57 693 l 25
 143 693 l 25
 143 607 l 25
 57 607 l 25
757 7 m 25
 757 93 l 25
 843 93 l 25
 843 7 l 25
 757 7 l 25
657 7 m 25
 657 93 l 25
 743 93 l 25
 743 7 l 25
 657 7 l 25
757 107 m 25
 757 193 l 25
 843 193 l 25
 843 107 l 25
 757 107 l 25
657 107 m 25
 657 193 l 25
 743 193 l 25
 743 107 l 25
 657 107 l 25
EndSplineSet
EndChar

StartChar: estimated
Encoding: 8494 8494 254
Width: 892
Flags: HMW
LayerCount: 2
Fore
SplineSet
188 360 m 1
 704 360 l 1
 704 576 l 1
 641 648 549 693 446 693 c 0
 343 693 251 648 188 576 c 1
 188 360 l 1
852 340 m 1
 188 340 l 1
 188 124 l 1
 251 52 343 7 446 7 c 0
 550 7 643 54 706 127 c 1
 767 127 l 1
 693 41 577 -15 446 -15 c 0
 222 -15 40 149 40 350 c 0
 40 551 222 715 446 715 c 0
 680 715 852 548 852 340 c 1
EndSplineSet
EndChar

StartChar: uni2219
Encoding: 8729 8729 256
Width: 200
VWidth: 0
Flags: HMW
LayerCount: 2
Fore
SplineSet
57 307 m 25
 57 393 l 25
 143 393 l 25
 143 307 l 25
 57 307 l 25
EndSplineSet
EndChar

StartChar: lessequal
Encoding: 8804 8804 258
Width: 400
Flags: HMW
LayerCount: 2
Fore
SplineSet
257 7 m 25
 257 93 l 25
 343 93 l 25
 343 7 l 25
 257 7 l 25
157 7 m 25
 157 93 l 25
 243 93 l 25
 243 7 l 25
 157 7 l 25
57 7 m 25
 57 93 l 25
 143 93 l 25
 143 7 l 25
 57 7 l 25
257 607 m 25
 257 693 l 25
 343 693 l 25
 343 607 l 25
 257 607 l 25
157 507 m 25
 157 593 l 25
 243 593 l 25
 243 507 l 25
 157 507 l 25
57 407 m 25
 57 493 l 25
 143 493 l 25
 143 407 l 25
 57 407 l 25
157 307 m 25
 157 393 l 25
 243 393 l 25
 243 307 l 25
 157 307 l 25
257 207 m 25
 257 293 l 25
 343 293 l 25
 343 207 l 25
 257 207 l 25
EndSplineSet
EndChar

StartChar: greaterequal
Encoding: 8805 8805 259
Width: 400
Flags: HMW
LayerCount: 2
Fore
SplineSet
257 7 m 25
 257 93 l 25
 343 93 l 25
 343 7 l 25
 257 7 l 25
157 7 m 25
 157 93 l 25
 243 93 l 25
 243 7 l 25
 157 7 l 25
57 7 m 25
 57 93 l 25
 143 93 l 25
 143 7 l 25
 57 7 l 25
57 607 m 25
 57 693 l 25
 143 693 l 25
 143 607 l 25
 57 607 l 25
157 507 m 25
 157 593 l 25
 243 593 l 25
 243 507 l 25
 157 507 l 25
257 407 m 25
 257 493 l 25
 343 493 l 25
 343 407 l 25
 257 407 l 25
157 307 m 25
 157 393 l 25
 243 393 l 25
 243 307 l 25
 157 307 l 25
57 207 m 25
 57 293 l 25
 143 293 l 25
 143 207 l 25
 57 207 l 25
EndSplineSet
EndChar

StartChar: uni25CC
Encoding: 9676 9676 261
Width: 600
Flags: HMW
AnchorPoint: "marks_aboveright" 550 400 basechar 0
AnchorPoint: "ogonek" 400 0 basechar 0
AnchorPoint: "marks_below" 300 0 basechar 0
AnchorPoint: "marks_above" 300 600 basechar 0
LayerCount: 2
Fore
SplineSet
357 7 m 25
 357 93 l 25
 443 93 l 25
 443 7 l 25
 357 7 l 25
157 7 m 25
 157 93 l 25
 243 93 l 25
 243 7 l 25
 157 7 l 25
457 207 m 25
 457 293 l 25
 543 293 l 25
 543 207 l 25
 457 207 l 25
57 207 m 25
 57 293 l 25
 143 293 l 25
 143 207 l 25
 57 207 l 25
357 407 m 25
 357 493 l 25
 443 493 l 25
 443 407 l 25
 357 407 l 25
157 407 m 25
 157 493 l 25
 243 493 l 25
 243 407 l 25
 157 407 l 25
EndSplineSet
EndChar

StartChar: dcroat
Encoding: 273 273 262
Width: 700
Flags: HMW
AnchorPoint: "marks_below" 300 0 basechar 0
AnchorPoint: "marks_above" 300 800 basechar 0
LayerCount: 2
Fore
SplineSet
457 7 m 25
 457 93 l 25
 543 93 l 25
 543 7 l 25
 457 7 l 25
257 7 m 25
 257 93 l 25
 343 93 l 25
 343 7 l 25
 257 7 l 25
157 7 m 25
 157 93 l 25
 243 93 l 25
 243 7 l 25
 157 7 l 25
457 107 m 25
 457 193 l 25
 543 193 l 25
 543 107 l 25
 457 107 l 25
357 107 m 25
 357 193 l 25
 443 193 l 25
 443 107 l 25
 357 107 l 25
57 107 m 25
 57 193 l 25
 143 193 l 25
 143 107 l 25
 57 107 l 25
457 207 m 25
 457 293 l 25
 543 293 l 25
 543 207 l 25
 457 207 l 25
357 207 m 25
 357 293 l 25
 443 293 l 25
 443 207 l 25
 357 207 l 25
57 207 m 25
 57 293 l 25
 143 293 l 25
 143 207 l 25
 57 207 l 25
457 307 m 25
 457 393 l 25
 543 393 l 25
 543 307 l 25
 457 307 l 25
257 307 m 25
 257 393 l 25
 343 393 l 25
 343 307 l 25
 257 307 l 25
157 307 m 25
 157 393 l 25
 243 393 l 25
 243 307 l 25
 157 307 l 25
457 407 m 25
 457 493 l 25
 543 493 l 25
 543 407 l 25
 457 407 l 25
557 507 m 25
 557 593 l 25
 643 593 l 25
 643 507 l 25
 557 507 l 25
457 507 m 25
 457 593 l 25
 543 593 l 25
 543 507 l 25
 457 507 l 25
357 507 m 25
 357 593 l 25
 443 593 l 25
 443 507 l 25
 357 507 l 25
457 607 m 25
 457 693 l 25
 543 693 l 25
 543 607 l 25
 457 607 l 25
257 507 m 25
 257 593 l 25
 343 593 l 25
 343 507 l 25
 257 507 l 25
EndSplineSet
EndChar

StartChar: Hbar
Encoding: 294 294 263
Width: 600
Flags: HMW
AnchorPoint: "marks_below" 300 0 basechar 0
AnchorPoint: "marks_above" 300 800 basechar 0
LayerCount: 2
Fore
SplineSet
57 607 m 25
 57 693 l 25
 143 693 l 25
 143 607 l 25
 57 607 l 25
457 607 m 25
 457 693 l 25
 543 693 l 25
 543 607 l 25
 457 607 l 25
57 507 m 25
 57 593 l 25
 143 593 l 25
 143 507 l 25
 57 507 l 25
157 507 m 25
 157 593 l 25
 243 593 l 25
 243 507 l 25
 157 507 l 25
257 507 m 25
 257 593 l 25
 343 593 l 25
 343 507 l 25
 257 507 l 25
357 507 m 25
 357 593 l 25
 443 593 l 25
 443 507 l 25
 357 507 l 25
457 507 m 25
 457 593 l 25
 543 593 l 25
 543 507 l 25
 457 507 l 25
57 407 m 25
 57 493 l 25
 143 493 l 25
 143 407 l 25
 57 407 l 25
457 407 m 25
 457 493 l 25
 543 493 l 25
 543 407 l 25
 457 407 l 25
57 307 m 25
 57 393 l 25
 143 393 l 25
 143 307 l 25
 57 307 l 25
157 307 m 25
 157 393 l 25
 243 393 l 25
 243 307 l 25
 157 307 l 25
257 307 m 25
 257 393 l 25
 343 393 l 25
 343 307 l 25
 257 307 l 25
357 307 m 25
 357 393 l 25
 443 393 l 25
 443 307 l 25
 357 307 l 25
457 307 m 25
 457 393 l 25
 543 393 l 25
 543 307 l 25
 457 307 l 25
57 207 m 25
 57 293 l 25
 143 293 l 25
 143 207 l 25
 57 207 l 25
457 207 m 25
 457 293 l 25
 543 293 l 25
 543 207 l 25
 457 207 l 25
57 107 m 25
 57 193 l 25
 143 193 l 25
 143 107 l 25
 57 107 l 25
457 107 m 25
 457 193 l 25
 543 193 l 25
 543 107 l 25
 457 107 l 25
57 7 m 25
 57 93 l 25
 143 93 l 25
 143 7 l 25
 57 7 l 25
457 7 m 25
 457 93 l 25
 543 93 l 25
 543 7 l 25
 457 7 l 25
EndSplineSet
EndChar

StartChar: hbar
Encoding: 295 295 264
Width: 700
Flags: HMW
AnchorPoint: "marks_below" 400 0 basechar 0
AnchorPoint: "marks_above" 400 800 basechar 0
LayerCount: 2
Fore
SplineSet
557 7 m 25
 557 93 l 25
 643 93 l 25
 643 7 l 25
 557 7 l 25
157 7 m 25
 157 93 l 25
 243 93 l 25
 243 7 l 25
 157 7 l 25
557 107 m 25
 557 193 l 25
 643 193 l 25
 643 107 l 25
 557 107 l 25
157 107 m 25
 157 193 l 25
 243 193 l 25
 243 107 l 25
 157 107 l 25
557 207 m 25
 557 293 l 25
 643 293 l 25
 643 207 l 25
 557 207 l 25
257 207 m 25
 257 293 l 25
 343 293 l 25
 343 207 l 25
 257 207 l 25
157 207 m 25
 157 293 l 25
 243 293 l 25
 243 207 l 25
 157 207 l 25
457 307 m 25
 457 393 l 25
 543 393 l 25
 543 307 l 25
 457 307 l 25
357 307 m 25
 357 393 l 25
 443 393 l 25
 443 307 l 25
 357 307 l 25
157 307 m 25
 157 393 l 25
 243 393 l 25
 243 307 l 25
 157 307 l 25
157 407 m 25
 157 493 l 25
 243 493 l 25
 243 407 l 25
 157 407 l 25
257 507 m 25
 257 593 l 25
 343 593 l 25
 343 507 l 25
 257 507 l 25
157 507 m 25
 157 593 l 25
 243 593 l 25
 243 507 l 25
 157 507 l 25
57 507 m 25
 57 593 l 25
 143 593 l 25
 143 507 l 25
 57 507 l 25
157 607 m 25
 157 693 l 25
 243 693 l 25
 243 607 l 25
 157 607 l 25
357 507 m 25
 357 593 l 25
 443 593 l 25
 443 507 l 25
 357 507 l 25
EndSplineSet
EndChar

StartChar: IJ
Encoding: 306 306 265
Width: 600
Flags: HMW
AnchorPoint: "marks_below" 300 0 basechar 0
AnchorPoint: "marks_above" 300 800 basechar 0
LayerCount: 2
Fore
SplineSet
457 607 m 25
 457 693 l 25
 543 693 l 25
 543 607 l 25
 457 607 l 25
457 507 m 25
 457 593 l 25
 543 593 l 25
 543 507 l 25
 457 507 l 25
457 407 m 25
 457 493 l 25
 543 493 l 25
 543 407 l 25
 457 407 l 25
457 307 m 25
 457 393 l 25
 543 393 l 25
 543 307 l 25
 457 307 l 25
457 207 m 25
 457 293 l 25
 543 293 l 25
 543 207 l 25
 457 207 l 25
257 107 m 25
 257 193 l 25
 343 193 l 25
 343 107 l 25
 257 107 l 25
457 107 m 25
 457 193 l 25
 543 193 l 25
 543 107 l 25
 457 107 l 25
357 7 m 25
 357 93 l 25
 443 93 l 25
 443 7 l 25
 357 7 l 25
57 7 m 25
 57 93 l 25
 143 93 l 25
 143 7 l 25
 57 7 l 25
57 107 m 25
 57 193 l 25
 143 193 l 25
 143 107 l 25
 57 107 l 25
57 207 m 25
 57 293 l 25
 143 293 l 25
 143 207 l 25
 57 207 l 25
57 307 m 25
 57 393 l 25
 143 393 l 25
 143 307 l 25
 57 307 l 25
57 407 m 25
 57 493 l 25
 143 493 l 25
 143 407 l 25
 57 407 l 25
57 507 m 25
 57 593 l 25
 143 593 l 25
 143 507 l 25
 57 507 l 25
57 607 m 25
 57 693 l 25
 143 693 l 25
 143 607 l 25
 57 607 l 25
EndSplineSet
EndChar

StartChar: ij
Encoding: 307 307 266
Width: 600
Flags: HMW
LayerCount: 2
Fore
SplineSet
457 607 m 25
 457 693 l 25
 543 693 l 25
 543 607 l 25
 457 607 l 25
357 407 m 25
 357 493 l 25
 443 493 l 25
 443 407 l 25
 357 407 l 25
457 407 m 25
 457 493 l 25
 543 493 l 25
 543 407 l 25
 457 407 l 25
457 307 m 25
 457 393 l 25
 543 393 l 25
 543 307 l 25
 457 307 l 25
457 207 m 25
 457 293 l 25
 543 293 l 25
 543 207 l 25
 457 207 l 25
457 107 m 25
 457 193 l 25
 543 193 l 25
 543 107 l 25
 457 107 l 25
457 7 m 25
 457 93 l 25
 543 93 l 25
 543 7 l 25
 457 7 l 25
457 -93 m 25
 457 -7 l 25
 543 -7 l 25
 543 -93 l 25
 457 -93 l 25
257 -193 m 25
 257 -107 l 25
 343 -107 l 25
 343 -193 l 25
 257 -193 l 25
357 -193 m 25
 357 -107 l 25
 443 -107 l 25
 443 -193 l 25
 357 -193 l 25
257 7 m 25
 257 93 l 25
 343 93 l 25
 343 7 l 25
 257 7 l 25
157 7 m 25
 157 93 l 25
 243 93 l 25
 243 7 l 25
 157 7 l 25
57 7 m 25
 57 93 l 25
 143 93 l 25
 143 7 l 25
 57 7 l 25
157 107 m 25
 157 193 l 25
 243 193 l 25
 243 107 l 25
 157 107 l 25
157 207 m 25
 157 293 l 25
 243 293 l 25
 243 207 l 25
 157 207 l 25
157 307 m 25
 157 393 l 25
 243 393 l 25
 243 307 l 25
 157 307 l 25
157 407 m 25
 157 493 l 25
 243 493 l 25
 243 407 l 25
 157 407 l 25
57 407 m 25
 57 493 l 25
 143 493 l 25
 143 407 l 25
 57 407 l 25
157 607 m 25
 157 693 l 25
 243 693 l 25
 243 607 l 25
 157 607 l 25
EndSplineSet
EndChar

StartChar: Eng
Encoding: 330 330 267
Width: 600
Flags: HMW
AnchorPoint: "marks_below" 300 0 basechar 0
AnchorPoint: "marks_above" 300 800 basechar 0
LayerCount: 2
Fore
SplineSet
357 -193 m 25
 357 -107 l 25
 443 -107 l 25
 443 -193 l 25
 357 -193 l 25
257 -193 m 25
 257 -107 l 25
 343 -107 l 25
 343 -193 l 25
 257 -193 l 25
457 -93 m 25
 457 -7 l 25
 543 -7 l 25
 543 -93 l 25
 457 -93 l 25
457 7 m 25
 457 93 l 25
 543 93 l 25
 543 7 l 25
 457 7 l 25
57 7 m 25
 57 93 l 25
 143 93 l 25
 143 7 l 25
 57 7 l 25
457 107 m 25
 457 193 l 25
 543 193 l 25
 543 107 l 25
 457 107 l 25
57 107 m 25
 57 193 l 25
 143 193 l 25
 143 107 l 25
 57 107 l 25
457 207 m 25
 457 293 l 25
 543 293 l 25
 543 207 l 25
 457 207 l 25
57 207 m 25
 57 293 l 25
 143 293 l 25
 143 207 l 25
 57 207 l 25
457 307 m 25
 457 393 l 25
 543 393 l 25
 543 307 l 25
 457 307 l 25
57 307 m 25
 57 393 l 25
 143 393 l 25
 143 307 l 25
 57 307 l 25
457 407 m 25
 457 493 l 25
 543 493 l 25
 543 407 l 25
 457 407 l 25
57 407 m 25
 57 493 l 25
 143 493 l 25
 143 407 l 25
 57 407 l 25
457 507 m 25
 457 593 l 25
 543 593 l 25
 543 507 l 25
 457 507 l 25
157 507 m 25
 157 593 l 25
 243 593 l 25
 243 507 l 25
 157 507 l 25
57 507 m 25
 57 593 l 25
 143 593 l 25
 143 507 l 25
 57 507 l 25
357 607 m 25
 357 693 l 25
 443 693 l 25
 443 607 l 25
 357 607 l 25
257 607 m 25
 257 693 l 25
 343 693 l 25
 343 607 l 25
 257 607 l 25
57 607 m 25
 57 693 l 25
 143 693 l 25
 143 607 l 25
 57 607 l 25
EndSplineSet
EndChar

StartChar: eng
Encoding: 331 331 268
Width: 600
Flags: HMW
AnchorPoint: "marks_above" 300 600 basechar 0
LayerCount: 2
Fore
SplineSet
57 407 m 25
 57 493 l 25
 143 493 l 25
 143 407 l 25
 57 407 l 25
257 407 m 25
 257 493 l 25
 343 493 l 25
 343 407 l 25
 257 407 l 25
357 407 m 25
 357 493 l 25
 443 493 l 25
 443 407 l 25
 357 407 l 25
57 307 m 25
 57 393 l 25
 143 393 l 25
 143 307 l 25
 57 307 l 25
157 307 m 25
 157 393 l 25
 243 393 l 25
 243 307 l 25
 157 307 l 25
457 307 m 25
 457 393 l 25
 543 393 l 25
 543 307 l 25
 457 307 l 25
57 207 m 25
 57 293 l 25
 143 293 l 25
 143 207 l 25
 57 207 l 25
457 207 m 25
 457 293 l 25
 543 293 l 25
 543 207 l 25
 457 207 l 25
57 107 m 25
 57 193 l 25
 143 193 l 25
 143 107 l 25
 57 107 l 25
457 107 m 25
 457 193 l 25
 543 193 l 25
 543 107 l 25
 457 107 l 25
57 7 m 25
 57 93 l 25
 143 93 l 25
 143 7 l 25
 57 7 l 25
457 7 m 25
 457 93 l 25
 543 93 l 25
 543 7 l 25
 457 7 l 25
457 -93 m 25
 457 -7 l 25
 543 -7 l 25
 543 -93 l 25
 457 -93 l 25
257 -193 m 25
 257 -107 l 25
 343 -107 l 25
 343 -193 l 25
 257 -193 l 25
357 -193 m 25
 357 -107 l 25
 443 -107 l 25
 443 -193 l 25
 357 -193 l 25
EndSplineSet
EndChar

StartChar: uni0237
Encoding: 567 567 269
Width: 500
Flags: HMW
AnchorPoint: "marks_above" 400 600 basechar 0
LayerCount: 2
Fore
SplineSet
257 407 m 25
 257 493 l 25
 343 493 l 25
 343 407 l 25
 257 407 l 25
357 407 m 25
 357 493 l 25
 443 493 l 25
 443 407 l 25
 357 407 l 25
357 307 m 25
 357 393 l 25
 443 393 l 25
 443 307 l 25
 357 307 l 25
357 207 m 25
 357 293 l 25
 443 293 l 25
 443 207 l 25
 357 207 l 25
357 107 m 25
 357 193 l 25
 443 193 l 25
 443 107 l 25
 357 107 l 25
357 7 m 25
 357 93 l 25
 443 93 l 25
 443 7 l 25
 357 7 l 25
57 -93 m 25
 57 -7 l 25
 143 -7 l 25
 143 -93 l 25
 57 -93 l 25
357 -93 m 25
 357 -7 l 25
 443 -7 l 25
 443 -93 l 25
 357 -93 l 25
157 -193 m 25
 157 -107 l 25
 243 -107 l 25
 243 -193 l 25
 157 -193 l 25
257 -193 m 25
 257 -107 l 25
 343 -107 l 25
 343 -193 l 25
 257 -193 l 25
EndSplineSet
EndChar

StartChar: uni1E9E
Encoding: 7838 7838 270
Width: 600
Flags: HMW
AnchorPoint: "marks_below" 300 0 basechar 0
AnchorPoint: "marks_above" 300 800 basechar 0
LayerCount: 2
Fore
SplineSet
157 607 m 25
 157 693 l 25
 243 693 l 25
 243 607 l 25
 157 607 l 25
257 607 m 25
 257 693 l 25
 343 693 l 25
 343 607 l 25
 257 607 l 25
357 607 m 25
 357 693 l 25
 443 693 l 25
 443 607 l 25
 357 607 l 25
457 607 m 25
 457 693 l 25
 543 693 l 25
 543 607 l 25
 457 607 l 25
57 507 m 25
 57 593 l 25
 143 593 l 25
 143 507 l 25
 57 507 l 25
457 507 m 25
 457 593 l 25
 543 593 l 25
 543 507 l 25
 457 507 l 25
57 407 m 25
 57 493 l 25
 143 493 l 25
 143 407 l 25
 57 407 l 25
357 407 m 25
 357 493 l 25
 443 493 l 25
 443 407 l 25
 357 407 l 25
57 307 m 25
 57 393 l 25
 143 393 l 25
 143 307 l 25
 57 307 l 25
257 307 m 25
 257 393 l 25
 343 393 l 25
 343 307 l 25
 257 307 l 25
357 307 m 25
 357 393 l 25
 443 393 l 25
 443 307 l 25
 357 307 l 25
57 207 m 25
 57 293 l 25
 143 293 l 25
 143 207 l 25
 57 207 l 25
457 207 m 25
 457 293 l 25
 543 293 l 25
 543 207 l 25
 457 207 l 25
57 107 m 25
 57 193 l 25
 143 193 l 25
 143 107 l 25
 57 107 l 25
457 107 m 25
 457 193 l 25
 543 193 l 25
 543 107 l 25
 457 107 l 25
57 7 m 25
 57 93 l 25
 143 93 l 25
 143 7 l 25
 57 7 l 25
257 7 m 25
 257 93 l 25
 343 93 l 25
 343 7 l 25
 257 7 l 25
357 7 m 25
 357 93 l 25
 443 93 l 25
 443 7 l 25
 357 7 l 25
EndSplineSet
EndChar

StartChar: uni20BA
Encoding: 8378 8378 271
Width: 600
Flags: HMW
LayerCount: 2
Fore
SplineSet
157 607 m 25
 157 693 l 25
 243 693 l 25
 243 607 l 25
 157 607 l 25
57 507 m 25
 57 593 l 25
 143 593 l 25
 143 507 l 25
 57 507 l 25
157 507 m 25
 157 593 l 25
 243 593 l 25
 243 507 l 25
 157 507 l 25
257 507 m 25
 257 593 l 25
 343 593 l 25
 343 507 l 25
 257 507 l 25
157 407 m 25
 157 493 l 25
 243 493 l 25
 243 407 l 25
 157 407 l 25
57 307 m 25
 57 393 l 25
 143 393 l 25
 143 307 l 25
 57 307 l 25
157 307 m 25
 157 393 l 25
 243 393 l 25
 243 307 l 25
 157 307 l 25
257 307 m 25
 257 393 l 25
 343 393 l 25
 343 307 l 25
 257 307 l 25
157 207 m 25
 157 293 l 25
 243 293 l 25
 243 207 l 25
 157 207 l 25
457 207 m 25
 457 293 l 25
 543 293 l 25
 543 207 l 25
 457 207 l 25
157 107 m 25
 157 193 l 25
 243 193 l 25
 243 107 l 25
 157 107 l 25
457 107 m 25
 457 193 l 25
 543 193 l 25
 543 107 l 25
 457 107 l 25
157 7 m 25
 157 93 l 25
 243 93 l 25
 243 7 l 25
 157 7 l 25
257 7 m 25
 257 93 l 25
 343 93 l 25
 343 7 l 25
 257 7 l 25
357 7 m 25
 357 93 l 25
 443 93 l 25
 443 7 l 25
 357 7 l 25
EndSplineSet
EndChar

StartChar: uni20BD
Encoding: 8381 8381 272
Width: 600
Flags: HMW
LayerCount: 2
Fore
SplineSet
157 607 m 25
 157 693 l 25
 243 693 l 25
 243 607 l 25
 157 607 l 25
257 607 m 25
 257 693 l 25
 343 693 l 25
 343 607 l 25
 257 607 l 25
357 607 m 25
 357 693 l 25
 443 693 l 25
 443 607 l 25
 357 607 l 25
157 507 m 25
 157 593 l 25
 243 593 l 25
 243 507 l 25
 157 507 l 25
457 507 m 25
 457 593 l 25
 543 593 l 25
 543 507 l 25
 457 507 l 25
157 407 m 25
 157 493 l 25
 243 493 l 25
 243 407 l 25
 157 407 l 25
457 407 m 25
 457 493 l 25
 543 493 l 25
 543 407 l 25
 457 407 l 25
157 307 m 25
 157 393 l 25
 243 393 l 25
 243 307 l 25
 157 307 l 25
257 307 m 25
 257 393 l 25
 343 393 l 25
 343 307 l 25
 257 307 l 25
357 307 m 25
 357 393 l 25
 443 393 l 25
 443 307 l 25
 357 307 l 25
157 207 m 25
 157 293 l 25
 243 293 l 25
 243 207 l 25
 157 207 l 25
57 107 m 25
 57 193 l 25
 143 193 l 25
 143 107 l 25
 57 107 l 25
157 107 m 25
 157 193 l 25
 243 193 l 25
 243 107 l 25
 157 107 l 25
257 107 m 25
 257 193 l 25
 343 193 l 25
 343 107 l 25
 257 107 l 25
157 7 m 25
 157 93 l 25
 243 93 l 25
 243 7 l 25
 157 7 l 25
EndSplineSet
EndChar

StartChar: uni0307
Encoding: 775 775 284
Width: 0
Flags: HMW
AnchorPoint: "marks_above" 0 600 mark 0
LayerCount: 2
Fore
SplineSet
-43 607 m 25
 -43 693 l 25
 43 693 l 25
 43 607 l 25
 -43 607 l 25
EndSplineSet
EndChar

StartChar: uni0315
Encoding: 789 789 290
Width: 0
Flags: HMW
AnchorPoint: "marks_aboveright" 0 500 mark 0
LayerCount: 2
Fore
SplineSet
7 607 m 25
 7 693 l 25
 93 693 l 25
 93 607 l 25
 7 607 l 25
7 507 m 25
 7 593 l 25
 93 593 l 25
 93 507 l 25
 7 507 l 25
EndSplineSet
EndChar

StartChar: Eng.loclNSM
Encoding: 1114115 -1 380
Width: 600
VWidth: 0
Flags: HMW
LayerCount: 2
Fore
SplineSet
57 607 m 25
 57 693 l 25
 143 693 l 25
 143 607 l 25
 57 607 l 25
457 607 m 25
 457 693 l 25
 543 693 l 25
 543 607 l 25
 457 607 l 25
57 507 m 25
 57 593 l 25
 143 593 l 25
 143 507 l 25
 57 507 l 25
457 507 m 25
 457 593 l 25
 543 593 l 25
 543 507 l 25
 457 507 l 25
57 407 m 25
 57 493 l 25
 143 493 l 25
 143 407 l 25
 57 407 l 25
157 407 m 25
 157 493 l 25
 243 493 l 25
 243 407 l 25
 157 407 l 25
457 407 m 25
 457 493 l 25
 543 493 l 25
 543 407 l 25
 457 407 l 25
57 307 m 25
 57 393 l 25
 143 393 l 25
 143 307 l 25
 57 307 l 25
257 307 m 25
 257 393 l 25
 343 393 l 25
 343 307 l 25
 257 307 l 25
457 307 m 25
 457 393 l 25
 543 393 l 25
 543 307 l 25
 457 307 l 25
57 207 m 25
 57 293 l 25
 143 293 l 25
 143 207 l 25
 57 207 l 25
357 207 m 25
 357 293 l 25
 443 293 l 25
 443 207 l 25
 357 207 l 25
457 207 m 25
 457 293 l 25
 543 293 l 25
 543 207 l 25
 457 207 l 25
57 107 m 25
 57 193 l 25
 143 193 l 25
 143 107 l 25
 57 107 l 25
457 107 m 25
 457 193 l 25
 543 193 l 25
 543 107 l 25
 457 107 l 25
57 7 m 25
 57 93 l 25
 143 93 l 25
 143 7 l 25
 57 7 l 25
457 7 m 25
 457 93 l 25
 543 93 l 25
 543 7 l 25
 457 7 l 25
457 -93 m 25
 457 -7 l 25
 543 -7 l 25
 543 -93 l 25
 457 -93 l 25
257 -193 m 25
 257 -107 l 25
 343 -107 l 25
 343 -193 l 25
 257 -193 l 25
357 -193 m 25
 357 -107 l 25
 443 -107 l 25
 443 -193 l 25
 357 -193 l 25
EndSplineSet
EndChar

StartChar: jacute
Encoding: 1114117 -1 382
Width: 500
Flags: HW
LayerCount: 2
Fore
SplineSet
157 -193 m 25
 157 -107 l 25
 243 -107 l 25
 243 -193 l 25
 157 -193 l 25
57 -193 m 25
 57 -107 l 25
 143 -107 l 25
 143 -193 l 25
 57 -193 l 25
257 -93 m 25
 257 -7 l 25
 343 -7 l 25
 343 -93 l 25
 257 -93 l 25
257 7 m 25
 257 93 l 25
 343 93 l 25
 343 7 l 25
 257 7 l 25
257 107 m 25
 257 193 l 25
 343 193 l 25
 343 107 l 25
 257 107 l 25
257 207 m 25
 257 293 l 25
 343 293 l 25
 343 207 l 25
 257 207 l 25
257 307 m 25
 257 393 l 25
 343 393 l 25
 343 307 l 25
 257 307 l 25
257 407 m 25
 257 493 l 25
 343 493 l 25
 343 407 l 25
 257 407 l 25
157 407 m 25
 157 493 l 25
 243 493 l 25
 243 407 l 25
 157 407 l 25
257 607 m 25
 257 693 l 25
 343 693 l 25
 343 607 l 25
 257 607 l 25
357 707 m 25
 357 793 l 25
 443 793 l 25
 443 707 l 25
 357 707 l 25
EndSplineSet
EndChar

StartChar: a.sc
Encoding: 1114118 -1 389
Width: 600
VWidth: 0
Flags: HW
AnchorPoint: "marks_above" 300 600 basechar 0
AnchorPoint: "marks_below" 300 0 basechar 0
AnchorPoint: "ogonek" 400 0 basechar 0
LayerCount: 2
Fore
SplineSet
257 407 m 25
 257 493 l 25
 343 493 l 25
 343 407 l 25
 257 407 l 25
157 307 m 25
 157 393 l 25
 243 393 l 25
 243 307 l 25
 157 307 l 25
357 307 m 25
 357 393 l 25
 443 393 l 25
 443 307 l 25
 357 307 l 25
57 207 m 25
 57 293 l 25
 143 293 l 25
 143 207 l 25
 57 207 l 25
457 207 m 25
 457 293 l 25
 543 293 l 25
 543 207 l 25
 457 207 l 25
57 107 m 25
 57 193 l 25
 143 193 l 25
 143 107 l 25
 57 107 l 25
157 107 m 25
 157 193 l 25
 243 193 l 25
 243 107 l 25
 157 107 l 25
257 107 m 25
 257 193 l 25
 343 193 l 25
 343 107 l 25
 257 107 l 25
357 107 m 25
 357 193 l 25
 443 193 l 25
 443 107 l 25
 357 107 l 25
457 107 m 25
 457 193 l 25
 543 193 l 25
 543 107 l 25
 457 107 l 25
57 7 m 25
 57 93 l 25
 143 93 l 25
 143 7 l 25
 57 7 l 25
457 7 m 25
 457 93 l 25
 543 93 l 25
 543 7 l 25
 457 7 l 25
EndSplineSet
EndChar

StartChar: b.sc
Encoding: 1114119 -1 390
Width: 600
VWidth: 0
Flags: HW
LayerCount: 2
Fore
SplineSet
57 407 m 25
 57 493 l 25
 143 493 l 25
 143 407 l 25
 57 407 l 25
157 407 m 25
 157 493 l 25
 243 493 l 25
 243 407 l 25
 157 407 l 25
257 407 m 25
 257 493 l 25
 343 493 l 25
 343 407 l 25
 257 407 l 25
357 407 m 25
 357 493 l 25
 443 493 l 25
 443 407 l 25
 357 407 l 25
57 307 m 25
 57 393 l 25
 143 393 l 25
 143 307 l 25
 57 307 l 25
457 307 m 25
 457 393 l 25
 543 393 l 25
 543 307 l 25
 457 307 l 25
57 207 m 25
 57 293 l 25
 143 293 l 25
 143 207 l 25
 57 207 l 25
157 207 m 25
 157 293 l 25
 243 293 l 25
 243 207 l 25
 157 207 l 25
257 207 m 25
 257 293 l 25
 343 293 l 25
 343 207 l 25
 257 207 l 25
357 207 m 25
 357 293 l 25
 443 293 l 25
 443 207 l 25
 357 207 l 25
57 107 m 25
 57 193 l 25
 143 193 l 25
 143 107 l 25
 57 107 l 25
457 107 m 25
 457 193 l 25
 543 193 l 25
 543 107 l 25
 457 107 l 25
57 7 m 25
 57 93 l 25
 143 93 l 25
 143 7 l 25
 57 7 l 25
157 7 m 25
 157 93 l 25
 243 93 l 25
 243 7 l 25
 157 7 l 25
257 7 m 25
 257 93 l 25
 343 93 l 25
 343 7 l 25
 257 7 l 25
357 7 m 25
 357 93 l 25
 443 93 l 25
 443 7 l 25
 357 7 l 25
EndSplineSet
EndChar

StartChar: d.sc
Encoding: 1114121 -1 391
Width: 600
VWidth: 0
Flags: HW
AnchorPoint: "marks_above" 300 600 basechar 0
LayerCount: 2
Fore
SplineSet
57 407 m 25
 57 493 l 25
 143 493 l 25
 143 407 l 25
 57 407 l 25
157 407 m 25
 157 493 l 25
 243 493 l 25
 243 407 l 25
 157 407 l 25
257 407 m 25
 257 493 l 25
 343 493 l 25
 343 407 l 25
 257 407 l 25
357 407 m 25
 357 493 l 25
 443 493 l 25
 443 407 l 25
 357 407 l 25
57 307 m 25
 57 393 l 25
 143 393 l 25
 143 307 l 25
 57 307 l 25
457 307 m 25
 457 393 l 25
 543 393 l 25
 543 307 l 25
 457 307 l 25
57 207 m 25
 57 293 l 25
 143 293 l 25
 143 207 l 25
 57 207 l 25
457 207 m 25
 457 293 l 25
 543 293 l 25
 543 207 l 25
 457 207 l 25
57 107 m 25
 57 193 l 25
 143 193 l 25
 143 107 l 25
 57 107 l 25
457 107 m 25
 457 193 l 25
 543 193 l 25
 543 107 l 25
 457 107 l 25
57 7 m 25
 57 93 l 25
 143 93 l 25
 143 7 l 25
 57 7 l 25
157 7 m 25
 157 93 l 25
 243 93 l 25
 243 7 l 25
 157 7 l 25
257 7 m 25
 257 93 l 25
 343 93 l 25
 343 7 l 25
 257 7 l 25
357 7 m 25
 357 93 l 25
 443 93 l 25
 443 7 l 25
 357 7 l 25
EndSplineSet
EndChar

StartChar: e.sc
Encoding: 1114122 -1 392
Width: 600
VWidth: 0
Flags: HW
AnchorPoint: "marks_above" 300 600 basechar 0
AnchorPoint: "marks_below" 300 0 basechar 0
AnchorPoint: "ogonek" 400 0 basechar 0
LayerCount: 2
Fore
SplineSet
57 407 m 25
 57 493 l 25
 143 493 l 25
 143 407 l 25
 57 407 l 25
157 407 m 25
 157 493 l 25
 243 493 l 25
 243 407 l 25
 157 407 l 25
257 407 m 25
 257 493 l 25
 343 493 l 25
 343 407 l 25
 257 407 l 25
357 407 m 25
 357 493 l 25
 443 493 l 25
 443 407 l 25
 357 407 l 25
457 407 m 25
 457 493 l 25
 543 493 l 25
 543 407 l 25
 457 407 l 25
57 307 m 25
 57 393 l 25
 143 393 l 25
 143 307 l 25
 57 307 l 25
57 207 m 25
 57 293 l 25
 143 293 l 25
 143 207 l 25
 57 207 l 25
157 207 m 25
 157 293 l 25
 243 293 l 25
 243 207 l 25
 157 207 l 25
257 207 m 25
 257 293 l 25
 343 293 l 25
 343 207 l 25
 257 207 l 25
357 207 m 25
 357 293 l 25
 443 293 l 25
 443 207 l 25
 357 207 l 25
57 107 m 25
 57 193 l 25
 143 193 l 25
 143 107 l 25
 57 107 l 25
57 7 m 25
 57 93 l 25
 143 93 l 25
 143 7 l 25
 57 7 l 25
157 7 m 25
 157 93 l 25
 243 93 l 25
 243 7 l 25
 157 7 l 25
257 7 m 25
 257 93 l 25
 343 93 l 25
 343 7 l 25
 257 7 l 25
357 7 m 25
 357 93 l 25
 443 93 l 25
 443 7 l 25
 357 7 l 25
457 7 m 25
 457 93 l 25
 543 93 l 25
 543 7 l 25
 457 7 l 25
EndSplineSet
EndChar

StartChar: f.sc
Encoding: 1114123 -1 393
Width: 600
VWidth: 0
Flags: HW
LayerCount: 2
Fore
SplineSet
57 407 m 25
 57 493 l 25
 143 493 l 25
 143 407 l 25
 57 407 l 25
157 407 m 25
 157 493 l 25
 243 493 l 25
 243 407 l 25
 157 407 l 25
257 407 m 25
 257 493 l 25
 343 493 l 25
 343 407 l 25
 257 407 l 25
357 407 m 25
 357 493 l 25
 443 493 l 25
 443 407 l 25
 357 407 l 25
457 407 m 25
 457 493 l 25
 543 493 l 25
 543 407 l 25
 457 407 l 25
57 307 m 25
 57 393 l 25
 143 393 l 25
 143 307 l 25
 57 307 l 25
57 207 m 25
 57 293 l 25
 143 293 l 25
 143 207 l 25
 57 207 l 25
157 207 m 25
 157 293 l 25
 243 293 l 25
 243 207 l 25
 157 207 l 25
257 207 m 25
 257 293 l 25
 343 293 l 25
 343 207 l 25
 257 207 l 25
357 207 m 25
 357 293 l 25
 443 293 l 25
 443 207 l 25
 357 207 l 25
57 107 m 25
 57 193 l 25
 143 193 l 25
 143 107 l 25
 57 107 l 25
57 7 m 25
 57 93 l 25
 143 93 l 25
 143 7 l 25
 57 7 l 25
EndSplineSet
EndChar

StartChar: g.sc
Encoding: 1114124 -1 394
Width: 600
VWidth: 0
Flags: HW
LayerCount: 2
Fore
SplineSet
157 407 m 25
 157 493 l 25
 243 493 l 25
 243 407 l 25
 157 407 l 25
257 407 m 25
 257 493 l 25
 343 493 l 25
 343 407 l 25
 257 407 l 25
357 407 m 25
 357 493 l 25
 443 493 l 25
 443 407 l 25
 357 407 l 25
457 407 m 25
 457 493 l 25
 543 493 l 25
 543 407 l 25
 457 407 l 25
57 307 m 25
 57 393 l 25
 143 393 l 25
 143 307 l 25
 57 307 l 25
57 207 m 25
 57 293 l 25
 143 293 l 25
 143 207 l 25
 57 207 l 25
357 207 m 25
 357 293 l 25
 443 293 l 25
 443 207 l 25
 357 207 l 25
457 207 m 25
 457 293 l 25
 543 293 l 25
 543 207 l 25
 457 207 l 25
57 107 m 25
 57 193 l 25
 143 193 l 25
 143 107 l 25
 57 107 l 25
457 107 m 25
 457 193 l 25
 543 193 l 25
 543 107 l 25
 457 107 l 25
157 7 m 25
 157 93 l 25
 243 93 l 25
 243 7 l 25
 157 7 l 25
257 7 m 25
 257 93 l 25
 343 93 l 25
 343 7 l 25
 257 7 l 25
357 7 m 25
 357 93 l 25
 443 93 l 25
 443 7 l 25
 357 7 l 25
457 7 m 25
 457 93 l 25
 543 93 l 25
 543 7 l 25
 457 7 l 25
EndSplineSet
EndChar

StartChar: h.sc
Encoding: 1114125 -1 395
Width: 600
VWidth: 0
Flags: HW
LayerCount: 2
Fore
SplineSet
57 407 m 25
 57 493 l 25
 143 493 l 25
 143 407 l 25
 57 407 l 25
457 407 m 25
 457 493 l 25
 543 493 l 25
 543 407 l 25
 457 407 l 25
57 307 m 25
 57 393 l 25
 143 393 l 25
 143 307 l 25
 57 307 l 25
457 307 m 25
 457 393 l 25
 543 393 l 25
 543 307 l 25
 457 307 l 25
57 207 m 25
 57 293 l 25
 143 293 l 25
 143 207 l 25
 57 207 l 25
157 207 m 25
 157 293 l 25
 243 293 l 25
 243 207 l 25
 157 207 l 25
257 207 m 25
 257 293 l 25
 343 293 l 25
 343 207 l 25
 257 207 l 25
357 207 m 25
 357 293 l 25
 443 293 l 25
 443 207 l 25
 357 207 l 25
457 207 m 25
 457 293 l 25
 543 293 l 25
 543 207 l 25
 457 207 l 25
57 107 m 25
 57 193 l 25
 143 193 l 25
 143 107 l 25
 57 107 l 25
457 107 m 25
 457 193 l 25
 543 193 l 25
 543 107 l 25
 457 107 l 25
57 7 m 25
 57 93 l 25
 143 93 l 25
 143 7 l 25
 57 7 l 25
457 7 m 25
 457 93 l 25
 543 93 l 25
 543 7 l 25
 457 7 l 25
EndSplineSet
EndChar

StartChar: i.sc
Encoding: 1114126 -1 396
Width: 400
VWidth: 0
Flags: HW
LayerCount: 2
Fore
SplineSet
57 407 m 25
 57 493 l 25
 143 493 l 25
 143 407 l 25
 57 407 l 25
157 407 m 25
 157 493 l 25
 243 493 l 25
 243 407 l 25
 157 407 l 25
257 407 m 25
 257 493 l 25
 343 493 l 25
 343 407 l 25
 257 407 l 25
157 307 m 25
 157 393 l 25
 243 393 l 25
 243 307 l 25
 157 307 l 25
157 207 m 25
 157 293 l 25
 243 293 l 25
 243 207 l 25
 157 207 l 25
157 107 m 25
 157 193 l 25
 243 193 l 25
 243 107 l 25
 157 107 l 25
57 7 m 25
 57 93 l 25
 143 93 l 25
 143 7 l 25
 57 7 l 25
157 7 m 25
 157 93 l 25
 243 93 l 25
 243 7 l 25
 157 7 l 25
257 7 m 25
 257 93 l 25
 343 93 l 25
 343 7 l 25
 257 7 l 25
EndSplineSet
EndChar

StartChar: j.sc
Encoding: 1114127 -1 397
Width: 600
VWidth: 0
Flags: HW
LayerCount: 2
Fore
SplineSet
257 407 m 25
 257 493 l 25
 343 493 l 25
 343 407 l 25
 257 407 l 25
357 407 m 25
 357 493 l 25
 443 493 l 25
 443 407 l 25
 357 407 l 25
457 407 m 25
 457 493 l 25
 543 493 l 25
 543 407 l 25
 457 407 l 25
357 307 m 25
 357 393 l 25
 443 393 l 25
 443 307 l 25
 357 307 l 25
357 207 m 25
 357 293 l 25
 443 293 l 25
 443 207 l 25
 357 207 l 25
57 107 m 25
 57 193 l 25
 143 193 l 25
 143 107 l 25
 57 107 l 25
357 107 m 25
 357 193 l 25
 443 193 l 25
 443 107 l 25
 357 107 l 25
157 7 m 25
 157 93 l 25
 243 93 l 25
 243 7 l 25
 157 7 l 25
257 7 m 25
 257 93 l 25
 343 93 l 25
 343 7 l 25
 257 7 l 25
EndSplineSet
EndChar

StartChar: l.sc
Encoding: 1114129 -1 398
Width: 600
VWidth: 0
Flags: HW
LayerCount: 2
Fore
SplineSet
57 407 m 25
 57 493 l 25
 143 493 l 25
 143 407 l 25
 57 407 l 25
57 307 m 25
 57 393 l 25
 143 393 l 25
 143 307 l 25
 57 307 l 25
57 207 m 25
 57 293 l 25
 143 293 l 25
 143 207 l 25
 57 207 l 25
57 107 m 25
 57 193 l 25
 143 193 l 25
 143 107 l 25
 57 107 l 25
57 7 m 25
 57 93 l 25
 143 93 l 25
 143 7 l 25
 57 7 l 25
157 7 m 25
 157 93 l 25
 243 93 l 25
 243 7 l 25
 157 7 l 25
257 7 m 25
 257 93 l 25
 343 93 l 25
 343 7 l 25
 257 7 l 25
357 7 m 25
 357 93 l 25
 443 93 l 25
 443 7 l 25
 357 7 l 25
457 7 m 25
 457 93 l 25
 543 93 l 25
 543 7 l 25
 457 7 l 25
EndSplineSet
EndChar

StartChar: m.sc
Encoding: 1114130 -1 399
Width: 600
VWidth: 0
Flags: HW
LayerCount: 2
Fore
SplineSet
57 407 m 25
 57 493 l 25
 143 493 l 25
 143 407 l 25
 57 407 l 25
457 407 m 25
 457 493 l 25
 543 493 l 25
 543 407 l 25
 457 407 l 25
57 307 m 25
 57 393 l 25
 143 393 l 25
 143 307 l 25
 57 307 l 25
157 307 m 25
 157 393 l 25
 243 393 l 25
 243 307 l 25
 157 307 l 25
357 307 m 25
 357 393 l 25
 443 393 l 25
 443 307 l 25
 357 307 l 25
457 307 m 25
 457 393 l 25
 543 393 l 25
 543 307 l 25
 457 307 l 25
57 207 m 25
 57 293 l 25
 143 293 l 25
 143 207 l 25
 57 207 l 25
257 207 m 25
 257 293 l 25
 343 293 l 25
 343 207 l 25
 257 207 l 25
457 207 m 25
 457 293 l 25
 543 293 l 25
 543 207 l 25
 457 207 l 25
57 107 m 25
 57 193 l 25
 143 193 l 25
 143 107 l 25
 57 107 l 25
257 107 m 25
 257 193 l 25
 343 193 l 25
 343 107 l 25
 257 107 l 25
457 107 m 25
 457 193 l 25
 543 193 l 25
 543 107 l 25
 457 107 l 25
57 7 m 25
 57 93 l 25
 143 93 l 25
 143 7 l 25
 57 7 l 25
457 7 m 25
 457 93 l 25
 543 93 l 25
 543 7 l 25
 457 7 l 25
EndSplineSet
EndChar

StartChar: n.sc
Encoding: 1114131 -1 400
Width: 600
VWidth: 0
Flags: HW
LayerCount: 2
Fore
SplineSet
57 407 m 25
 57 493 l 25
 143 493 l 25
 143 407 l 25
 57 407 l 25
457 407 m 25
 457 493 l 25
 543 493 l 25
 543 407 l 25
 457 407 l 25
57 307 m 25
 57 393 l 25
 143 393 l 25
 143 307 l 25
 57 307 l 25
157 307 m 25
 157 393 l 25
 243 393 l 25
 243 307 l 25
 157 307 l 25
457 307 m 25
 457 393 l 25
 543 393 l 25
 543 307 l 25
 457 307 l 25
57 207 m 25
 57 293 l 25
 143 293 l 25
 143 207 l 25
 57 207 l 25
257 207 m 25
 257 293 l 25
 343 293 l 25
 343 207 l 25
 257 207 l 25
457 207 m 25
 457 293 l 25
 543 293 l 25
 543 207 l 25
 457 207 l 25
57 107 m 25
 57 193 l 25
 143 193 l 25
 143 107 l 25
 57 107 l 25
357 107 m 25
 357 193 l 25
 443 193 l 25
 443 107 l 25
 357 107 l 25
457 107 m 25
 457 193 l 25
 543 193 l 25
 543 107 l 25
 457 107 l 25
57 7 m 25
 57 93 l 25
 143 93 l 25
 143 7 l 25
 57 7 l 25
457 7 m 25
 457 93 l 25
 543 93 l 25
 543 7 l 25
 457 7 l 25
EndSplineSet
EndChar

StartChar: p.sc
Encoding: 1114133 -1 401
Width: 600
VWidth: 0
Flags: HW
LayerCount: 2
Fore
SplineSet
57 407 m 25
 57 493 l 25
 143 493 l 25
 143 407 l 25
 57 407 l 25
157 407 m 25
 157 493 l 25
 243 493 l 25
 243 407 l 25
 157 407 l 25
257 407 m 25
 257 493 l 25
 343 493 l 25
 343 407 l 25
 257 407 l 25
357 407 m 25
 357 493 l 25
 443 493 l 25
 443 407 l 25
 357 407 l 25
57 307 m 25
 57 393 l 25
 143 393 l 25
 143 307 l 25
 57 307 l 25
457 307 m 25
 457 393 l 25
 543 393 l 25
 543 307 l 25
 457 307 l 25
57 207 m 25
 57 293 l 25
 143 293 l 25
 143 207 l 25
 57 207 l 25
157 207 m 25
 157 293 l 25
 243 293 l 25
 243 207 l 25
 157 207 l 25
257 207 m 25
 257 293 l 25
 343 293 l 25
 343 207 l 25
 257 207 l 25
357 207 m 25
 357 293 l 25
 443 293 l 25
 443 207 l 25
 357 207 l 25
57 107 m 25
 57 193 l 25
 143 193 l 25
 143 107 l 25
 57 107 l 25
57 7 m 25
 57 93 l 25
 143 93 l 25
 143 7 l 25
 57 7 l 25
EndSplineSet
EndChar

StartChar: r.sc
Encoding: 1114134 -1 402
Width: 600
VWidth: 0
Flags: HW
LayerCount: 2
Fore
SplineSet
57 407 m 25
 57 493 l 25
 143 493 l 25
 143 407 l 25
 57 407 l 25
157 407 m 25
 157 493 l 25
 243 493 l 25
 243 407 l 25
 157 407 l 25
257 407 m 25
 257 493 l 25
 343 493 l 25
 343 407 l 25
 257 407 l 25
357 407 m 25
 357 493 l 25
 443 493 l 25
 443 407 l 25
 357 407 l 25
57 307 m 25
 57 393 l 25
 143 393 l 25
 143 307 l 25
 57 307 l 25
457 307 m 25
 457 393 l 25
 543 393 l 25
 543 307 l 25
 457 307 l 25
57 207 m 25
 57 293 l 25
 143 293 l 25
 143 207 l 25
 57 207 l 25
157 207 m 25
 157 293 l 25
 243 293 l 25
 243 207 l 25
 157 207 l 25
257 207 m 25
 257 293 l 25
 343 293 l 25
 343 207 l 25
 257 207 l 25
357 207 m 25
 357 293 l 25
 443 293 l 25
 443 207 l 25
 357 207 l 25
57 107 m 25
 57 193 l 25
 143 193 l 25
 143 107 l 25
 57 107 l 25
357 107 m 25
 357 193 l 25
 443 193 l 25
 443 107 l 25
 357 107 l 25
57 7 m 25
 57 93 l 25
 143 93 l 25
 143 7 l 25
 57 7 l 25
457 7 m 25
 457 93 l 25
 543 93 l 25
 543 7 l 25
 457 7 l 25
EndSplineSet
EndChar

StartChar: t.sc
Encoding: 1114136 -1 403
Width: 600
VWidth: 0
Flags: HW
LayerCount: 2
Fore
SplineSet
57 407 m 25
 57 493 l 25
 143 493 l 25
 143 407 l 25
 57 407 l 25
157 407 m 25
 157 493 l 25
 243 493 l 25
 243 407 l 25
 157 407 l 25
257 407 m 25
 257 493 l 25
 343 493 l 25
 343 407 l 25
 257 407 l 25
357 407 m 25
 357 493 l 25
 443 493 l 25
 443 407 l 25
 357 407 l 25
457 407 m 25
 457 493 l 25
 543 493 l 25
 543 407 l 25
 457 407 l 25
257 307 m 25
 257 393 l 25
 343 393 l 25
 343 307 l 25
 257 307 l 25
257 207 m 25
 257 293 l 25
 343 293 l 25
 343 207 l 25
 257 207 l 25
257 107 m 25
 257 193 l 25
 343 193 l 25
 343 107 l 25
 257 107 l 25
257 7 m 25
 257 93 l 25
 343 93 l 25
 343 7 l 25
 257 7 l 25
EndSplineSet
EndChar

StartChar: u.sc
Encoding: 1114137 -1 404
Width: 600
VWidth: 0
Flags: HW
LayerCount: 2
Fore
SplineSet
57 407 m 25
 57 493 l 25
 143 493 l 25
 143 407 l 25
 57 407 l 25
457 407 m 25
 457 493 l 25
 543 493 l 25
 543 407 l 25
 457 407 l 25
57 307 m 25
 57 393 l 25
 143 393 l 25
 143 307 l 25
 57 307 l 25
457 307 m 25
 457 393 l 25
 543 393 l 25
 543 307 l 25
 457 307 l 25
57 207 m 25
 57 293 l 25
 143 293 l 25
 143 207 l 25
 57 207 l 25
457 207 m 25
 457 293 l 25
 543 293 l 25
 543 207 l 25
 457 207 l 25
57 107 m 25
 57 193 l 25
 143 193 l 25
 143 107 l 25
 57 107 l 25
457 107 m 25
 457 193 l 25
 543 193 l 25
 543 107 l 25
 457 107 l 25
157 7 m 25
 157 93 l 25
 243 93 l 25
 243 7 l 25
 157 7 l 25
257 7 m 25
 257 93 l 25
 343 93 l 25
 343 7 l 25
 257 7 l 25
357 7 m 25
 357 93 l 25
 443 93 l 25
 443 7 l 25
 357 7 l 25
EndSplineSet
EndChar

StartChar: y.sc
Encoding: 1114141 -1 405
Width: 600
VWidth: 0
Flags: HW
LayerCount: 2
Fore
SplineSet
57 407 m 25
 57 493 l 25
 143 493 l 25
 143 407 l 25
 57 407 l 25
457 407 m 25
 457 493 l 25
 543 493 l 25
 543 407 l 25
 457 407 l 25
157 307 m 25
 157 393 l 25
 243 393 l 25
 243 307 l 25
 157 307 l 25
357 307 m 25
 357 393 l 25
 443 393 l 25
 443 307 l 25
 357 307 l 25
257 207 m 25
 257 293 l 25
 343 293 l 25
 343 207 l 25
 257 207 l 25
257 107 m 25
 257 193 l 25
 343 193 l 25
 343 107 l 25
 257 107 l 25
257 7 m 25
 257 93 l 25
 343 93 l 25
 343 7 l 25
 257 7 l 25
EndSplineSet
EndChar

StartChar: ae.sc
Encoding: 1114143 -1 406
Width: 600
VWidth: 0
Flags: HW
LayerCount: 2
Fore
SplineSet
257 407 m 25
 257 493 l 25
 343 493 l 25
 343 407 l 25
 257 407 l 25
357 407 m 25
 357 493 l 25
 443 493 l 25
 443 407 l 25
 357 407 l 25
457 407 m 25
 457 493 l 25
 543 493 l 25
 543 407 l 25
 457 407 l 25
157 307 m 25
 157 393 l 25
 243 393 l 25
 243 307 l 25
 157 307 l 25
257 307 m 25
 257 393 l 25
 343 393 l 25
 343 307 l 25
 257 307 l 25
57 207 m 25
 57 293 l 25
 143 293 l 25
 143 207 l 25
 57 207 l 25
257 207 m 25
 257 293 l 25
 343 293 l 25
 343 207 l 25
 257 207 l 25
357 207 m 25
 357 293 l 25
 443 293 l 25
 443 207 l 25
 357 207 l 25
457 207 m 25
 457 293 l 25
 543 293 l 25
 543 207 l 25
 457 207 l 25
57 107 m 25
 57 193 l 25
 143 193 l 25
 143 107 l 25
 57 107 l 25
157 107 m 25
 157 193 l 25
 243 193 l 25
 243 107 l 25
 157 107 l 25
257 107 m 25
 257 193 l 25
 343 193 l 25
 343 107 l 25
 257 107 l 25
57 7 m 25
 57 93 l 25
 143 93 l 25
 143 7 l 25
 57 7 l 25
257 7 m 25
 257 93 l 25
 343 93 l 25
 343 7 l 25
 257 7 l 25
357 7 m 25
 357 93 l 25
 443 93 l 25
 443 7 l 25
 357 7 l 25
457 7 m 25
 457 93 l 25
 543 93 l 25
 543 7 l 25
 457 7 l 25
EndSplineSet
EndChar

StartChar: eth.sc
Encoding: 1114144 -1 407
Width: 600
VWidth: 0
Flags: HW
LayerCount: 2
Fore
SplineSet
157 407 m 25
 157 493 l 25
 243 493 l 25
 243 407 l 25
 157 407 l 25
257 407 m 25
 257 493 l 25
 343 493 l 25
 343 407 l 25
 257 407 l 25
357 407 m 25
 357 493 l 25
 443 493 l 25
 443 407 l 25
 357 407 l 25
157 307 m 25
 157 393 l 25
 243 393 l 25
 243 307 l 25
 157 307 l 25
457 307 m 25
 457 393 l 25
 543 393 l 25
 543 307 l 25
 457 307 l 25
57 207 m 25
 57 293 l 25
 143 293 l 25
 143 207 l 25
 57 207 l 25
157 207 m 25
 157 293 l 25
 243 293 l 25
 243 207 l 25
 157 207 l 25
257 207 m 25
 257 293 l 25
 343 293 l 25
 343 207 l 25
 257 207 l 25
457 207 m 25
 457 293 l 25
 543 293 l 25
 543 207 l 25
 457 207 l 25
157 107 m 25
 157 193 l 25
 243 193 l 25
 243 107 l 25
 157 107 l 25
457 107 m 25
 457 193 l 25
 543 193 l 25
 543 107 l 25
 457 107 l 25
157 7 m 25
 157 93 l 25
 243 93 l 25
 243 7 l 25
 157 7 l 25
257 7 m 25
 257 93 l 25
 343 93 l 25
 343 7 l 25
 257 7 l 25
357 7 m 25
 357 93 l 25
 443 93 l 25
 443 7 l 25
 357 7 l 25
EndSplineSet
EndChar

StartChar: thorn.sc
Encoding: 1114146 -1 408
Width: 600
VWidth: 0
Flags: HW
LayerCount: 2
Fore
SplineSet
57 407 m 25
 57 493 l 25
 143 493 l 25
 143 407 l 25
 57 407 l 25
57 307 m 25
 57 393 l 25
 143 393 l 25
 143 307 l 25
 57 307 l 25
157 307 m 25
 157 393 l 25
 243 393 l 25
 243 307 l 25
 157 307 l 25
257 307 m 25
 257 393 l 25
 343 393 l 25
 343 307 l 25
 257 307 l 25
357 307 m 25
 357 393 l 25
 443 393 l 25
 443 307 l 25
 357 307 l 25
57 207 m 25
 57 293 l 25
 143 293 l 25
 143 207 l 25
 57 207 l 25
457 207 m 25
 457 293 l 25
 543 293 l 25
 543 207 l 25
 457 207 l 25
57 107 m 25
 57 193 l 25
 143 193 l 25
 143 107 l 25
 57 107 l 25
157 107 m 25
 157 193 l 25
 243 193 l 25
 243 107 l 25
 157 107 l 25
257 107 m 25
 257 193 l 25
 343 193 l 25
 343 107 l 25
 257 107 l 25
357 107 m 25
 357 193 l 25
 443 193 l 25
 443 107 l 25
 357 107 l 25
57 7 m 25
 57 93 l 25
 143 93 l 25
 143 7 l 25
 57 7 l 25
EndSplineSet
EndChar

StartChar: germandbls.sc
Encoding: 1114147 -1 409
Width: 600
VWidth: 0
Flags: HW
LayerCount: 2
Fore
SplineSet
157 407 m 25
 157 493 l 25
 243 493 l 25
 243 407 l 25
 157 407 l 25
257 407 m 25
 257 493 l 25
 343 493 l 25
 343 407 l 25
 257 407 l 25
357 407 m 25
 357 493 l 25
 443 493 l 25
 443 407 l 25
 357 407 l 25
457 407 m 25
 457 493 l 25
 543 493 l 25
 543 407 l 25
 457 407 l 25
57 307 m 25
 57 393 l 25
 143 393 l 25
 143 307 l 25
 57 307 l 25
357 307 m 25
 357 393 l 25
 443 393 l 25
 443 307 l 25
 357 307 l 25
57 207 m 25
 57 293 l 25
 143 293 l 25
 143 207 l 25
 57 207 l 25
257 207 m 25
 257 293 l 25
 343 293 l 25
 343 207 l 25
 257 207 l 25
357 207 m 25
 357 293 l 25
 443 293 l 25
 443 207 l 25
 357 207 l 25
57 107 m 25
 57 193 l 25
 143 193 l 25
 143 107 l 25
 57 107 l 25
457 107 m 25
 457 193 l 25
 543 193 l 25
 543 107 l 25
 457 107 l 25
57 7 m 25
 57 93 l 25
 143 93 l 25
 143 7 l 25
 57 7 l 25
257 7 m 25
 257 93 l 25
 343 93 l 25
 343 7 l 25
 257 7 l 25
357 7 m 25
 357 93 l 25
 443 93 l 25
 443 7 l 25
 357 7 l 25
EndSplineSet
EndChar

